<svg width="447" height="82" viewBox="0 0 447 82" fill="none" xmlns="http://www.w3.org/2000/svg">
<path d="M103.5 70.05C97.45 70.05 92.05 68.975 87.3 66.825L89.775 57.75C91.675 58.6 93.775 59.275 96.075 59.775C98.375 60.275 100.6 60.525 102.75 60.525C105.85 60.525 108.1 60.05 109.5 59.1C110.95 58.1 111.675 56.55 111.675 54.45C111.675 52.9 111.275 51.7 110.475 50.85C109.675 49.95 108.325 49.3 106.425 48.9L100.725 47.7C96.475 46.75 93.35 45.1 91.35 42.75C89.35 40.4 88.35 37.175 88.35 33.075C88.35 28.075 89.95 24.225 93.15 21.525C96.4 18.775 100.9 17.4 106.65 17.4C112.15 17.4 117.225 18.35 121.875 20.25L119.55 29.175C117.85 28.425 115.975 27.875 113.925 27.525C111.875 27.125 109.775 26.925 107.625 26.925C104.825 26.925 102.75 27.375 101.4 28.275C100.1 29.125 99.45 30.55 99.45 32.55C99.45 34.05 99.825 35.2 100.575 36C101.375 36.8 102.775 37.425 104.775 37.875L109.575 38.925C114.325 40.025 117.775 41.775 119.925 44.175C122.075 46.575 123.15 49.9 123.15 54.15C123.15 64.75 116.6 70.05 103.5 70.05ZM148.382 70.05C135.882 70.05 129.632 63.425 129.632 50.175C129.632 43.525 131.282 38.425 134.582 34.875C137.932 31.275 142.657 29.475 148.757 29.475C152.807 29.475 156.357 30.2 159.407 31.65L157.232 39.9C155.882 39.4 154.657 39.05 153.557 38.85C152.507 38.6 151.432 38.475 150.332 38.475C147.182 38.475 144.882 39.425 143.432 41.325C141.982 43.175 141.257 46.15 141.257 50.25C141.257 54.1 141.957 56.875 143.357 58.575C144.757 60.225 147.057 61.05 150.257 61.05C152.507 61.05 154.907 60.6 157.457 59.7L159.482 67.875C156.582 69.325 152.882 70.05 148.382 70.05ZM176.474 69.9C172.824 69.9 169.974 68.925 167.924 66.975C165.874 64.975 164.849 62.2 164.849 58.65C164.849 54.25 166.149 51.05 168.749 49.05C171.399 47.05 175.574 46.05 181.274 46.05H188.024V45.675C188.024 42.875 187.549 40.975 186.599 39.975C185.699 38.975 183.949 38.475 181.349 38.475C179.649 38.475 177.824 38.65 175.874 39C173.974 39.35 171.999 39.875 169.949 40.575L167.924 32.1C170.224 31.3 172.649 30.7 175.199 30.3C177.799 29.85 180.324 29.625 182.774 29.625C188.424 29.625 192.499 30.8 194.999 33.15C197.499 35.45 198.749 39.275 198.749 44.625V69H189.224L188.399 63.525C185.799 67.775 181.824 69.9 176.474 69.9ZM180.674 61.575C182.074 61.575 183.424 61.325 184.724 60.825C186.074 60.275 187.174 59.575 188.024 58.725V52.425H181.874C177.874 52.425 175.874 54.025 175.874 57.225C175.874 60.125 177.474 61.575 180.674 61.575ZM219.885 69.675C215.635 69.675 212.61 68.675 210.81 66.675C209.01 64.625 208.11 61.25 208.11 56.55V15.6H219.435V57.525C219.435 58.875 219.685 59.825 220.185 60.375C220.735 60.875 221.635 61.125 222.885 61.125C223.785 61.125 224.735 61.025 225.735 60.825V69C223.785 69.45 221.835 69.675 219.885 69.675ZM250.423 70.05C237.523 70.05 231.073 63.375 231.073 50.025C231.073 43.425 232.623 38.35 235.723 34.8C238.873 31.25 243.348 29.475 249.148 29.475C260.448 29.475 266.098 36.275 266.098 49.875V53.25H242.173C242.473 56.1 243.348 58.125 244.798 59.325C246.248 60.525 248.473 61.125 251.473 61.125C255.023 61.125 258.523 60.35 261.973 58.8L264.523 66.825C260.623 68.975 255.923 70.05 250.423 70.05ZM248.998 37.5C246.748 37.5 245.073 38.175 243.973 39.525C242.873 40.875 242.248 43.15 242.098 46.35H255.373C255.323 43.15 254.798 40.875 253.798 39.525C252.848 38.175 251.248 37.5 248.998 37.5ZM282.806 70.05C278.606 70.05 274.931 69.3 271.781 67.8L274.331 58.95C275.631 59.45 276.831 59.825 277.931 60.075C279.031 60.325 280.056 60.45 281.006 60.45C283.506 60.45 285.281 59.825 286.331 58.575C287.431 57.275 287.981 55.1 287.981 52.05V27.9H275.156V18.45H299.681V53.25C299.681 59 298.306 63.25 295.556 66C292.856 68.7 288.606 70.05 282.806 70.05ZM317.466 69.9C313.816 69.9 310.966 68.925 308.916 66.975C306.866 64.975 305.841 62.2 305.841 58.65C305.841 54.25 307.141 51.05 309.741 49.05C312.391 47.05 316.566 46.05 322.266 46.05H329.016V45.675C329.016 42.875 328.541 40.975 327.591 39.975C326.691 38.975 324.941 38.475 322.341 38.475C320.641 38.475 318.816 38.65 316.866 39C314.966 39.35 312.991 39.875 310.941 40.575L308.916 32.1C311.216 31.3 313.641 30.7 316.191 30.3C318.791 29.85 321.316 29.625 323.766 29.625C329.416 29.625 333.491 30.8 335.991 33.15C338.491 35.45 339.741 39.275 339.741 44.625V69H330.216L329.391 63.525C326.791 67.775 322.816 69.9 317.466 69.9ZM321.666 61.575C323.066 61.575 324.416 61.325 325.716 60.825C327.066 60.275 328.166 59.575 329.016 58.725V52.425H322.866C318.866 52.425 316.866 54.025 316.866 57.225C316.866 60.125 318.466 61.575 321.666 61.575ZM361.326 69.975C356.876 69.975 353.476 68.25 351.126 64.8C348.776 61.35 347.601 56.35 347.601 49.8C347.601 43.25 348.776 38.25 351.126 34.8C353.476 31.35 356.851 29.625 361.251 29.625C366.051 29.625 369.801 31.35 372.501 34.8V15.6H383.826V69H374.301L373.476 63.6C372.126 65.6 370.401 67.175 368.301 68.325C366.201 69.425 363.876 69.975 361.326 69.975ZM365.601 60.825C368.201 60.825 370.501 59.975 372.501 58.275V41.325C370.501 39.575 368.201 38.7 365.601 38.7C363.301 38.7 361.651 39.575 360.651 41.325C359.651 43.025 359.151 45.85 359.151 49.8C359.151 53.75 359.651 56.575 360.651 58.275C361.651 59.975 363.301 60.825 365.601 60.825ZM411.409 70.05C398.509 70.05 392.059 63.375 392.059 50.025C392.059 43.425 393.609 38.35 396.709 34.8C399.859 31.25 404.334 29.475 410.134 29.475C421.434 29.475 427.084 36.275 427.084 49.875V53.25H403.159C403.459 56.1 404.334 58.125 405.784 59.325C407.234 60.525 409.459 61.125 412.459 61.125C416.009 61.125 419.509 60.35 422.959 58.8L425.509 66.825C421.609 68.975 416.909 70.05 411.409 70.05ZM409.984 37.5C407.734 37.5 406.059 38.175 404.959 39.525C403.859 40.875 403.234 43.15 403.084 46.35H416.359C416.309 43.15 415.784 40.875 414.784 39.525C413.834 38.175 412.234 37.5 409.984 37.5Z" fill="white"/>
<path d="M47.4557 3.17957C47.7605 3.26664 48.4353 3.46256 48.9795 3.61494C54.7482 5.20406 58.9278 7.64215 62.7156 11.6041C68.0489 17.1768 70.487 25.2748 69.0067 32.5456C67.6788 39.0326 64.8054 44.4095 60.1251 49.1116C56.0326 53.2041 53.3986 55.1415 48.5006 57.6014C44.9959 59.3864 42.0789 60.3877 37.551 61.4326C35.1129 61.9986 34.6122 62.0422 30.1496 62.0204C25.7088 62.0204 25.1864 61.9769 22.966 61.4326C20.2884 60.8014 18.2857 60.2136 17.9592 59.9959C17.8503 59.9088 17.2626 59.6694 16.653 59.4517C9.94829 56.9918 3.17823 50.1129 1.02313 43.5605C0.82721 42.951 0.522448 42.0367 0.348299 41.4925L0.0217687 40.5129L0 41.4707C0 42.015 0.0870747 42.7333 0.217687 43.1034C0.32653 43.4735 0.631292 44.5184 0.892516 45.4109C2.41632 50.8095 6.74829 56.1211 12.517 59.7129C16.1741 61.9551 18.8517 63.0653 23.2925 64.1537C26.1877 64.8721 26.2966 64.8939 31.2381 64.8721C35.8748 64.8721 36.4625 64.8286 39.0748 64.2626C53.8775 61.1061 66.6122 50.4394 70.8571 37.683C71.7496 34.9619 71.7931 34.766 72.1632 32.5673C73.1645 26.2762 71.7713 19.8109 68.2231 14.4558C66.3074 11.5823 61.2788 7.4027 58.0353 6.0095C57.5346 5.81358 56.7074 5.44351 56.1632 5.18229C54.6176 4.48569 50.7646 3.41902 48.9795 3.17957C47.0639 2.94011 46.7156 2.94011 47.4557 3.17957Z" fill="white"/>
<path d="M34.068 5.81265C23.5972 7.38 13.8448 14.0195 8.99043 22.9011C5.3986 29.4535 5.7469 37.682 9.88295 43.8861C13.4312 49.2195 18.5033 52.3977 25.5564 53.7038C29.453 54.4222 32.1958 54.4222 36.136 53.7256C38.9224 53.2249 40.0326 52.9419 41.0339 52.4848C41.2734 52.3977 42.0135 52.0929 42.6666 51.8535C46.0407 50.5473 49.8938 47.8916 52.9414 44.7569C56.3809 41.2086 57.9264 38.7922 59.2326 34.9174C59.8203 33.1759 59.8638 32.8276 59.8638 29.6058C59.8638 26.4929 59.8203 26.014 59.3196 24.599C58.253 21.5514 56.0543 18.2861 53.7904 16.3922C52.4843 15.282 50.7428 13.9759 50.6122 13.9759C50.5468 13.9759 50.0462 13.6929 49.4802 13.3446C48.0217 12.4521 45.1047 11.4725 42.6884 11.0589C34.4816 9.66571 25.2081 12.5609 18.917 18.5038C16.5224 20.7678 15.1945 22.5528 13.8231 25.4263C12.2775 28.6045 11.8639 30.6072 12.038 34.0031C12.1034 35.3746 12.2993 36.9854 12.4734 37.595C12.8435 38.8793 13.9537 41.165 14.6503 41.9922C15.8476 43.4725 17.502 45.1052 17.785 45.1052C17.9809 45.1052 18.068 44.7351 18.068 43.6684C18.068 40.1854 20.702 35.048 24.2067 31.6956C28.0816 27.9732 31.4775 25.9487 36.0707 24.6208C38.2911 23.9895 38.6394 23.946 42.1224 23.9242C45.3659 23.9024 46.019 23.9678 47.4557 24.4031C49.6108 25.0562 51.7659 26.2099 53.0502 27.3854C53.6162 27.9079 54.1822 28.3433 54.2693 28.3433C54.3564 28.3433 54.3781 27.9732 54.2911 27.5161C53.355 22.0521 49.6543 18.112 43.6462 16.2399C41.8394 15.6739 41.4258 15.6303 38.204 15.6303C35.0475 15.6303 34.5251 15.6956 32.653 16.2399C29.9319 17.0235 28.7999 17.5242 26.536 18.8739C24.3156 20.2235 24.0979 20.3977 22.0299 22.3569C18.3727 25.8399 16.1523 30.4548 15.4557 36.0712C15.3251 37.1378 15.1727 38.0521 15.1074 38.1174C14.9333 38.3133 15.0204 33.8507 15.2598 32.4793C15.804 29.0181 17.6544 25.3174 20.419 22.1392C21.2462 21.1814 22.2693 20.1147 22.7047 19.7882C23.1183 19.4834 23.5972 19.0698 23.7714 18.9174C25.4693 17.2412 30.868 14.6507 34.3727 13.8235C36.702 13.2793 42.8625 13.2793 44.7346 13.8235C49.306 15.1732 52.6149 17.4589 54.9224 20.8984C57.97 25.4045 57.9917 32.414 54.9659 37.8344C50.6122 45.6059 40.9686 51.1786 31.238 51.5487C29.5618 51.614 27.4503 51.5705 26.5578 51.4616C23.1618 51.0263 19.5918 49.6984 16.9795 47.9133C15.3687 46.8249 12.6476 43.995 11.5809 42.3405C6.48703 34.3732 8.83805 24.1201 17.5238 16.2834C20.0272 14.0195 23.5101 11.6902 25.687 10.8412C26.2312 10.6235 26.9714 10.3188 27.3197 10.1664C28.3646 9.68748 31.0421 8.94734 33.4149 8.51197C37.2244 7.81537 43.2761 8.03306 46.3673 9.01265C51.3958 10.58 54.6176 12.4303 57.5564 15.4344C59.9945 17.8943 61.8666 21.3337 62.672 24.7514C63.238 27.146 63.3033 31.4127 62.7808 33.9161C62.3672 35.897 60.7999 39.5977 59.5373 41.5133C55.2271 48.0875 47.9564 53.2031 38.9659 55.9678C34.1986 57.4263 27.5156 57.4698 22.4217 56.0766C18.2857 54.9446 14.4979 52.8331 11.0802 49.7637C6.72649 45.8671 4.3537 41.3392 3.72241 35.7446C3.26527 31.6956 4.11425 26.8195 5.89928 23.2494C6.39996 22.2698 6.46526 22.0303 6.13873 22.3569C5.70336 22.7922 3.9401 26.1011 3.19996 27.8208C2.30745 29.9106 1.93738 32.0657 1.93738 35.0916C1.93738 36.7242 2.00268 38.3351 2.06799 38.6834C3.83125 46.4113 9.07751 52.8331 16.653 56.5773C19.4176 57.9487 21.0721 58.58 23.1836 59.0589C29.7142 60.5392 37.1373 59.995 43.385 57.6004C50.8298 54.7052 56.2502 50.7868 60.4081 45.214C64.4353 39.7936 65.9591 35.5922 65.9591 29.6929C65.9591 23.4235 63.9128 18.5909 59.2761 13.8453C54.9224 9.40449 49.0883 6.59632 42.3836 5.70381C40.2067 5.42081 36.3101 5.46435 34.068 5.81265Z" fill="white"/>
<path d="M68.4409 13.5197C68.6586 13.8898 69.1157 14.5211 69.4422 14.9347C70.4218 16.1755 72.1633 19.6803 72.8817 21.8136C73.2518 22.902 73.6654 24.6 73.7742 25.6231C74.8626 34.2 72.2722 42.6463 66.0899 50.8531C65.0014 52.2898 60.4082 56.9483 58.8627 58.1674C54.2042 61.8463 47.4776 65.1334 41.3606 66.7225C38.0083 67.5932 36.2668 67.8109 32.0001 67.9633C23.0532 68.2898 15.4342 65.9606 8.92531 60.9102C7.18382 59.5606 4.28859 56.4259 3.11308 54.6408C2.48179 53.7048 1.76342 52.6163 1.5022 52.268C1.08859 51.6585 1.06682 51.6585 1.19743 52.1592C1.93757 54.815 4.81103 59.147 7.61919 61.8027C11.8641 65.83 18.5906 69.2912 24.7076 70.5538C25.6654 70.7497 26.8627 70.9891 27.3416 71.098C27.8423 71.2068 29.6491 71.3592 31.3688 71.4463C41.9266 71.9034 52.5062 68.4204 61.8014 61.4327C66.8953 57.6014 71.7933 51.6803 74.1443 46.5429C76.3211 41.7973 77.1919 38.1401 77.4749 32.502L77.6273 29.4109L77.8014 31.3701C77.9973 33.4599 77.8232 37.9225 77.4967 39.4027C76.2558 44.8449 75.5375 46.8476 73.5565 50.5918C72.8382 51.9633 71.5756 54.0095 70.7484 55.1415C69.0722 57.4925 65.1103 61.6286 62.7157 63.5225C56.0763 68.8123 47.4994 72.5565 39.8368 73.5143C36.5933 73.9279 29.6926 73.8626 27.1022 73.4272C19.0042 72.0123 13.3879 69.2259 7.83688 63.849C5.74709 61.8245 5.02872 61.1932 5.33348 61.7374C6.11716 63.0653 9.44776 67.2014 11.0369 68.8123C14.5199 72.3823 17.4151 74.4721 21.66 76.5402C28.1471 79.6531 32.7838 80.6762 40.4899 80.6544C48.2178 80.6544 52.1144 79.7837 58.9715 76.6055C62.6504 74.8857 65.6327 72.7524 68.9198 69.4871C74.6885 63.7184 78.1062 56.6 79.6082 47.2612C80.1307 43.9742 80.1307 36.7687 79.6082 33.9388C78.215 26.5157 74.8844 19.8327 69.9865 14.6952C68.3973 13.019 67.8531 12.6054 68.4409 13.5197Z" fill="white"/>
</svg>
