<?xml version="1.0" encoding="UTF-8"?>
<svg version="1.1" xmlns="http://www.w3.org/2000/svg" width="960" height="279">
<path d="M0 0 C87.12 0 174.24 0 264 0 C264 87.12 264 174.24 264 264 C176.88 264 89.76 264 0 264 C0 176.88 0 89.76 0 0 Z " fill="#FEFDFD" transform="translate(0,0)"/>
<path d="M0 0 C15.74358105 -0.07042098 31.48711881 -0.12314885 47.23081875 -0.15543652 C54.54268633 -0.17083398 61.85445544 -0.19178522 69.16625977 -0.22631836 C75.5473213 -0.25644101 81.92831143 -0.27562658 88.3094421 -0.28226548 C91.68092504 -0.28613958 95.05204373 -0.29672317 98.42349052 -0.31719017 C125.42405049 -0.47445682 153.12459926 1.14172731 173.78125 20.78515625 C174.5134375 21.51605469 175.245625 22.24695313 176 23 C176.5878125 23.57621094 177.175625 24.15242188 177.78125 24.74609375 C187.19310739 34.75819715 189.49051723 48.09518291 189.24609375 61.3515625 C188.20170371 76.83505927 182.78196119 90.59887749 171 101 C165.23233103 105.06780257 160.08055973 108.15033283 153 109 C153 109.66 153 110.32 153 111 C154.00546875 111.11085938 155.0109375 111.22171875 156.046875 111.3359375 C171.5337907 113.5694776 185.12239668 123.34667716 196 134 C196.62648438 134.59039062 197.25296875 135.18078125 197.8984375 135.7890625 C209.99957176 148.21873435 214.53954013 165.83216126 214.42016602 182.69921875 C213.74920318 204.23862626 204.81789653 222.00215905 189.125 236.75 C163.68419316 258.71272418 131.20406296 262.70007545 98.79296875 263.57421875 C98.07682026 263.59465178 97.36067177 263.6150848 96.62282181 263.63613701 C77.9444748 264.15905666 59.26439637 264.1159862 40.58044434 264.06866455 C35.97941575 264.05818077 31.37838099 264.05381502 26.77734375 264.04882812 C17.85154652 264.03830534 8.92577781 264.02138741 0 264 C0 263.01 0 262.02 0 261 C1.50390625 259.67578125 1.50390625 259.67578125 3.5625 258.3125 C12.24287179 252.02883264 16.55841015 245.50146173 19 235 C19.78731694 229.59482169 20.14560423 224.33251232 20.13371277 218.86761475 C20.13597833 218.08928764 20.13824388 217.31096053 20.14057809 216.50904775 C20.14686664 213.92235753 20.14609206 211.33572041 20.14526367 208.74902344 C20.14825839 206.88556349 20.15166164 205.02210415 20.15544128 203.15864563 C20.16425399 198.11095063 20.16661826 193.06327259 20.16725707 188.01557064 C20.16796916 184.85753899 20.17010651 181.69951161 20.17275429 178.54148102 C20.18199894 167.51153796 20.18609031 156.48160696 20.18530273 145.45166016 C20.1847023 135.19068546 20.19524972 124.9297634 20.2110464 114.66880202 C20.22414782 105.84219674 20.22948553 97.01560861 20.22884732 88.18899369 C20.22859309 82.92486357 20.23140316 77.66078024 20.24202538 72.39665985 C20.25175012 67.44228425 20.25175567 62.48799976 20.24450874 57.53362083 C20.2434683 55.72291365 20.24579341 53.91220066 20.2518692 52.10150337 C20.44722793 29.17488337 20.44722793 29.17488337 9.7109375 9.5390625 C6.61481981 6.74549703 3.46911437 4.31274291 0 2 C0 1.34 0 0.68 0 0 Z M63 25 C63 51.73 63 78.46 63 106 C101.66925607 108.13101366 101.66925607 108.13101366 135.86328125 92.19140625 C144.03108344 82.44273911 145.08007078 70.19845811 144.21435547 58.00292969 C143.21699713 48.68364976 137.75074726 42.15446675 131 36 C111.76870265 21.11331467 85.54522777 25 63 25 Z M63 131 C63 165.65 63 200.3 63 236 C99.08342769 236.82467705 99.08342769 236.82467705 134 230 C135.37865234 229.55333984 135.37865234 229.55333984 136.78515625 229.09765625 C148.37916321 224.92238017 158.64483984 216.85148501 164.375 205.8125 C170.71470227 191.68082887 170.20110811 177.39764664 165 163 C158.5182659 149.28088922 146.8632261 141.22105761 133 136 C110.24684659 128.94790895 86.70254417 131 63 131 Z " fill="#006785" transform="translate(334,0)"/>
<path d="M0 0 C7.7011871 -0.25554205 15.40193229 -0.45064766 23.10640049 -0.56993389 C26.68484882 -0.62721019 30.26038601 -0.70478061 33.8371582 -0.82983398 C37.29337208 -0.94990756 40.74679968 -1.01522665 44.20493889 -1.04364967 C46.15722159 -1.07369269 48.1083903 -1.15949283 50.05897522 -1.2462616 C53.68748423 -1.24877236 56.54942524 -1.13227773 60 0 C63.20577329 3.29714161 65.0104349 6.89403119 67 11 C68.05112366 12.54418492 69.1306168 14.06998908 70.25390625 15.5625 C70.79072021 16.28622803 71.32753418 17.00995605 71.88061523 17.75561523 C72.71314819 18.86658569 72.71314819 18.86658569 73.5625 20 C74.79439983 21.65745621 76.02616692 23.3150111 77.2578125 24.97265625 C77.87946289 25.80684082 78.50111328 26.64102539 79.14160156 27.50048828 C81.51183663 30.68841085 83.86342763 33.88980391 86.21459961 37.09179688 C91.60153501 44.42602889 97.0321087 51.72594074 102.5 59 C110.89200455 70.16407315 119.17188654 81.40934441 127.42578125 92.67578125 C133.61925938 101.11879809 139.88380562 109.49873554 146.25 117.8125 C151.01408732 124.03467144 155.70043388 130.28910816 160.21289062 136.69580078 C163.79676811 141.7650622 167.51617112 146.72798373 171.25 151.6875 C180.50961451 163.98686923 189.6217914 176.39250509 198.72558594 188.80737305 C199.23394989 189.50061424 199.74231384 190.19385544 200.26608276 190.90810394 C201.51073037 192.60539638 202.75536636 194.30269732 204 196 C204.07020018 174.69394452 204.12304202 153.38790823 204.15543652 132.08176041 C204.17088019 122.18809382 204.19192176 112.29449925 204.22631836 102.40087891 C204.25629741 93.77375194 204.27559315 85.14667715 204.28226548 76.51949954 C204.28616337 71.95496326 204.29527145 67.39057622 204.31719017 62.82608795 C204.33768995 58.521847 204.34380679 54.21781549 204.33932304 49.91353035 C204.34014225 48.34147818 204.34602705 46.76941834 204.35761642 45.19740868 C204.4520976 31.7098577 203.63006422 19.28746713 194 9 C191.39200512 6.95086117 188.75949541 5.12213129 185.94140625 3.375 C185.30074219 2.92125 184.66007813 2.4675 184 2 C184 1.34 184 0.68 184 0 C207.76 0 231.52 0 256 0 C255 3 255 3 252.4375 4.625 C244.14417424 9.92073814 239.2784836 17.5385003 237 27 C236.07958642 33.10998284 235.8483014 39.05217547 235.84178162 45.22521973 C235.83684364 46.2284419 235.83190566 47.23166408 235.82681805 48.26528692 C235.81151272 51.61240323 235.80310137 54.95950046 235.79467773 58.30664062 C235.78509373 60.71173265 235.77508335 63.11682301 235.76467896 65.52191162 C235.74048102 71.36555554 235.72071808 77.20920224 235.70292621 83.0528689 C235.68197418 89.85549959 235.65552993 96.65810562 235.62875474 103.46071547 C235.58115476 115.59098554 235.53787014 127.72126699 235.49731445 139.8515625 C235.45792079 151.63151941 235.41648536 163.41146624 235.37231445 175.19140625 C235.36822804 176.28149395 235.36822804 176.28149395 235.36405908 177.39360362 C235.35037897 181.03955206 235.33665882 184.68550034 235.32291877 188.33144855 C235.20907337 218.55427812 235.10230993 248.77712906 235 279 C233.40120082 278.21661291 231.80421942 277.42951524 230.20800781 276.64086914 C229.31849426 276.20295547 228.42898071 275.76504181 227.51251221 275.31385803 C221.80182047 272.32758868 216.9721834 268.0594852 212 264 C211.47486816 263.57928223 210.94973633 263.15856445 210.40869141 262.72509766 C202.01530075 255.97451372 194.32003634 248.52601387 186.6875 240.9375 C185.768479 240.02774414 184.84945801 239.11798828 183.90258789 238.18066406 C177.84399029 232.09416178 172.31559447 225.74180701 167 219 C166.11501831 217.88806274 166.11501831 217.88806274 165.2121582 216.75366211 C163.56770086 214.67761023 161.93708353 212.59163307 160.3125 210.5 C159.72001465 209.73792236 159.1275293 208.97584473 158.51708984 208.19067383 C153.70957619 201.97721315 149.03761023 195.67063779 144.40063477 189.3293457 C139.92686077 183.22239798 135.35484967 177.19605648 130.75 171.1875 C126.00419747 164.99131125 121.34541622 158.75935496 116.85742188 152.37451172 C112.45950167 146.159823 107.80194407 140.14400479 103.17285156 134.10083008 C98.04187112 127.39307934 93.00366819 120.62320048 88.00878906 113.8137207 C84.36901907 108.85289899 80.70036635 103.91577024 77 99 C72.48845777 93.00288496 68.01503583 86.97855859 63.5625 80.9375 C62.98306641 80.15181641 62.40363281 79.36613281 61.80664062 78.55664062 C59.31502721 75.17164313 56.83786282 71.77835627 54.39610291 68.35719299 C53.94704055 67.72812325 53.49797819 67.09905352 53.03530788 66.45092106 C52.69365628 65.97211711 52.35200468 65.49331316 52 65 C51.92975934 86.27151395 51.87693827 107.54300864 51.84456348 128.81461525 C51.82912833 138.69253046 51.80810326 148.57037339 51.77368164 158.44824219 C51.74367628 167.06293647 51.72440067 175.67757838 51.71773452 184.29232347 C51.71384104 188.84909896 51.70476156 193.40572469 51.68280983 197.96245193 C51.66226825 202.26177451 51.65620144 206.5608873 51.66067696 210.86025429 C51.65985958 212.42824129 51.65400007 213.99623619 51.64238358 215.56418037 C51.54302042 229.68241055 52.11069496 245.01091433 62.375 255.75 C64.60425776 257.86370228 66.85246873 259.65636885 69.4375 261.3125 C70.283125 261.869375 71.12875 262.42625 72 263 C72 263.66 72 264.32 72 265 C48.24 265 24.48 265 0 265 C0 264.34 0 263.68 0 263 C1.50390625 261.7734375 1.50390625 261.7734375 3.5625 260.375 C12.70732092 253.65800764 17.62300904 246.11815089 19.53663254 234.83624363 C20.02305254 230.80914684 20.14522951 226.85985577 20.14044189 222.81150818 C20.14341302 222.01502886 20.14638414 221.21854955 20.1494453 220.3979345 C20.15807859 217.74371308 20.15963598 215.08953705 20.16113281 212.43530273 C20.16576486 210.52597458 20.17079004 208.61664734 20.17617798 206.70732117 C20.18926835 201.5292752 20.19574058 196.35124217 20.20018864 191.17318225 C20.20312533 187.93322817 20.2072313 184.69327758 20.21169281 181.45332527 C20.22536006 171.30212974 20.23503 161.15094225 20.2388947 150.99973816 C20.24337103 139.30832263 20.26090246 127.61702426 20.2898953 115.92564434 C20.31156359 106.87142909 20.32160176 97.81724668 20.32293582 88.76300579 C20.32398033 83.36351291 20.32981238 77.96413027 20.34775543 72.56466484 C20.3643249 67.47976397 20.36634882 62.39505517 20.35761642 57.3101368 C20.35685073 55.45350248 20.36112636 53.59685745 20.37107468 51.74024963 C20.44838847 36.40039472 20.29952126 20.36808789 9.0625 8.6875 C6.22694346 5.979146 3.426272 3.927278 0 2 C0 1.34 0 0.68 0 0 Z " fill="#006785" transform="translate(577,0)"/>
<path d="M0 0 C27.39 0 54.78 0 83 0 C81.06712245 3.86575509 80.52598243 4.59748393 77.1875 6.8125 C68.84176553 12.86013367 65.64090218 21.02344491 64 31 C63.90367897 33.73836055 63.85644955 36.45111802 63.85955811 39.18922424 C63.85658698 40.00990715 63.85361586 40.83059007 63.8505547 41.67614216 C63.84188825 44.42416047 63.84036118 47.17213512 63.83886719 49.92016602 C63.83423746 51.89155673 63.82921259 53.86294655 63.82382202 55.83433533 C63.81070858 61.19004573 63.8042548 66.54574361 63.79981136 71.90146756 C63.79687818 75.25027652 63.79277284 78.59908208 63.78830719 81.94788933 C63.77463337 92.4333315 63.76496685 102.91876587 63.7611053 113.40421635 C63.75662846 125.49299386 63.7390974 137.58165808 63.7101047 149.67040116 C63.68845483 159.02348071 63.67839921 168.37652847 63.67706418 177.72963279 C63.67601828 183.31129593 63.67015647 188.89285255 63.65224457 194.47448921 C63.63570734 199.73007689 63.63363578 204.98547865 63.64238358 210.24108315 C63.643151 212.16305796 63.63885038 214.085043 63.62892532 216.00699234 C63.56119112 229.94859673 63.75222803 243.63572764 73 255 C75.58293312 257.3010884 78.21645279 259.38588342 81.0234375 261.40625 C81.67570313 261.9321875 82.32796875 262.458125 83 263 C83 263.66 83 264.32 83 265 C55.61 265 28.22 265 0 265 C1.18807544 261.43577368 2.16968107 260.96775885 5.1875 258.875 C13.40448219 252.63061608 17.26570171 245.07963306 19 235 C19.55009258 228.39873296 19.42115404 221.75749305 19.40405273 215.13916016 C19.40976283 213.13894776 19.41672955 211.13873861 19.42485046 209.13853455 C19.44272682 203.73141335 19.44162382 198.32445492 19.43590808 192.9173131 C19.43280807 188.392192 19.43891774 183.8671018 19.44494683 179.34198511 C19.45897247 168.66090641 19.45744723 157.97990773 19.44604492 147.29882812 C19.43456699 136.30440459 19.44863852 125.31022508 19.4754414 114.31583369 C19.49764096 104.85304925 19.50422614 95.39034117 19.49836498 85.92753255 C19.49500424 80.2861079 19.49735166 74.64483963 19.51461601 69.00343704 C19.53015086 63.69598966 19.52605724 58.38890209 19.50731087 53.08146858 C19.50364298 51.14217634 19.50668044 49.20285705 19.51719666 47.26358986 C19.58565021 33.5881874 19.24934892 20.91205708 9.94921875 9.9375 C7.34766238 7.35158425 4.55337192 5.22245455 1.50390625 3.19140625 C1.00761719 2.79824219 0.51132812 2.40507813 0 2 C0 1.34 0 0.68 0 0 Z " fill="#006885" transform="translate(877,0)"/>
<path d="M0 0 C27.06 0 54.12 0 82 0 C81 7 81 7 80.46484375 9.5703125 C75.07109924 35.70000811 81.59269154 62.00179634 92 86 C92.30776367 86.72558105 92.61552734 87.45116211 92.93261719 88.19873047 C102.49859766 110.54175838 116.01023987 132.45510575 131.78173828 150.94604492 C133 153 133 153 132.91186523 155.06030273 C131.78495925 157.45742939 130.5277155 158.58388485 128.46484375 160.2421875 C127.73716797 160.83386719 127.00949219 161.42554688 126.25976562 162.03515625 C125.49341797 162.64230469 124.72707031 163.24945313 123.9375 163.875 C123.19822266 164.47441406 122.45894531 165.07382813 121.69726562 165.69140625 C116.88264504 169.57511594 111.97287629 173.32171198 107 177 C103.57410368 175.3976287 101.86755411 173.90391297 99.5625 170.875 C98.86898437 169.98039063 98.17546875 169.08578125 97.4609375 168.1640625 C97.07389648 167.66293945 96.68685547 167.16181641 96.28808594 166.64550781 C93.80485458 163.47322212 91.23755499 160.36860041 88.6875 157.25 C84.11859034 151.6432097 79.61597387 145.99054324 75.16479492 140.29003906 C71.66277027 135.81624841 68.09214568 131.40164329 64.5 127 C59.99240027 121.47660315 55.55157358 115.90815564 51.1640625 110.2890625 C47.66223753 105.81563292 44.09188836 101.40132798 40.5 97 C35.99305682 91.47740765 31.55215545 85.91031228 27.16625977 80.29125977 C23.16266216 75.17543103 19.06876425 70.13555094 14.94140625 65.11914062 C13.89823435 63.84490345 12.87357607 62.555367 11.86425781 61.25415039 C9.96075275 58.87255851 9.96075275 58.87255851 7.39355469 56.44702148 C0.09434494 48.90273632 -1.00336767 42.29457287 -0.96699524 31.94589233 C-0.89123462 28.69197974 -0.75467985 25.43971002 -0.625 22.1875 C-0.41875 14.865625 -0.2125 7.54375 0 0 Z " fill="#F15A22" transform="translate(0,0)"/>
<path d="M0 0 C3.33567981 2.77184741 6.48542759 5.72797727 9.6015625 8.7421875 C11.78032253 11.0099301 11.78032253 11.0099301 14 12 C14 46.32 14 80.64 14 116 C-2.36416834 121.03512872 -13.53609513 121.99001586 -28.91796875 114.59765625 C-52.80674123 101.69077653 -72.14940736 76.81092272 -80.45703125 51.1328125 C-83.60556353 38.76519651 -83.61737911 24.55467912 -77.48828125 13.19921875 C-70.55417553 1.68392857 -60.3884166 -8.16930328 -46.98046875 -11.55859375 C-29.56651201 -14.1375939 -14.45480998 -10.27052288 0 0 Z " fill="#F15B23" transform="translate(250,68)"/>
<path d="M0 0 C48.51 0 97.02 0 147 0 C147 11.55 147 23.1 147 35 C141.98395581 33.88532351 137.4460297 32.84355982 132.625 31.375 C112.79702208 26.33528289 91.36580009 30.87370878 74 41 C52.3380966 55.35858991 40.14940067 74.83356631 35 100 C34.61231189 102.66392201 34.2976862 105.32380106 34 108 C33.01 108 32.02 108 31 108 C29.16611661 105.80987237 27.58272915 103.67737882 26 101.3125 C25.52014648 100.59989014 25.04029297 99.88728027 24.54589844 99.15307617 C14.39022831 83.71943481 7.17614428 67.70755007 2 50 C1.44892578 48.12634766 1.44892578 48.12634766 0.88671875 46.21484375 C-1.53885243 37.42081256 -2.19999699 28.90471313 -2.25 19.8125 C-2.25918457 18.88622803 -2.26836914 17.95995605 -2.27783203 17.00561523 C-2.27380371 16.10270752 -2.26977539 15.1997998 -2.265625 14.26953125 C-2.26336914 13.47135986 -2.26111328 12.67318848 -2.25878906 11.85083008 C-1.8952351 7.84590591 -0.87236228 3.92563028 0 0 Z " fill="#F15B23" transform="translate(117,0)"/>
<path d="M0 0 C3.85035134 3.19497239 7.43581518 6.42889733 10.875 10.0625 C30.73168139 29.98626477 53.99332864 42.32178066 82.26245117 42.38134766 C92.38957737 42.22496364 101.4026198 40.7631802 110.5625 36.375 C117.80133929 33 117.80133929 33 120 33 C120 53.79 120 74.58 120 96 C89.97 96 59.94 96 29 96 C29 95.34 29 94.68 29 94 C31.21566824 92.13386231 33.43979503 90.3668212 35.75 88.625 C39.72979305 85.59971016 43.56677308 82.65864081 47 79 C46.443125 79.15726562 45.88625 79.31453125 45.3125 79.4765625 C36.04895534 81.57337835 28.16932559 79.54765984 20 75 C5.89304271 65.81169126 -4.45326357 53.05593013 -14.59277344 39.81884766 C-16.08672933 37.88790189 -17.60619667 35.97943155 -19.1328125 34.07421875 C-19.89936157 33.1140686 -19.89936157 33.1140686 -20.68139648 32.13452148 C-21.66724963 30.90096654 -22.65622989 29.66990271 -23.64868164 28.44165039 C-27 24.22408842 -27 24.22408842 -27 22 C-24.97273821 20.27667551 -22.93469514 18.66177516 -20.8125 17.0625 C-15.6457744 13.09440671 -10.58297539 9.03905061 -5.625 4.8125 C-5.06014893 4.33111572 -4.49529785 3.84973145 -3.91333008 3.35375977 C-2.60714415 2.23787637 -1.30328687 1.11926796 0 0 Z " fill="#F15C25" transform="translate(144,168)"/>
<path d="M0 0 C5.62811791 5.62811791 5.62811791 5.62811791 7.9453125 8.49609375 C8.45900391 9.12966797 8.97269531 9.76324219 9.50195312 10.41601562 C10.03755859 11.08310547 10.57316406 11.75019531 11.125 12.4375 C11.69412109 13.14197266 12.26324219 13.84644531 12.84960938 14.57226562 C16.88843037 19.58364552 20.87295017 24.63616506 24.83447266 29.70874023 C28.87779435 34.87488258 33.01791994 39.95931555 37.16625977 45.04125977 C40.63893482 49.30310909 44.05826306 53.60131101 47.4375 57.9375 C51.5393971 63.19757981 55.74647484 68.36190746 60 73.5 C64.46981001 78.91159713 68.93132526 84.32873934 73.3125 89.8125 C73.77462891 90.38097656 74.23675781 90.94945312 74.71289062 91.53515625 C76.93548285 94.33977493 78.28272464 96.50907275 79 100 C71.32069534 106.27309432 63.63750577 112.53405827 55.8125 118.625 C50.73082666 122.58497817 45.79204073 126.68212152 40.89819336 130.87109375 C36.39368584 134.70925401 31.76637494 138.37222313 27.09863281 142.0090332 C22.54861875 145.55634014 18.07430452 149.18799747 13.6171875 152.8515625 C10.87859675 155.09965939 8.1317945 157.3367594 5.375 159.5625 C4.55773437 160.22378906 3.74046875 160.88507813 2.8984375 161.56640625 C1 163 1 163 0 163 C0 109.21 0 55.42 0 0 Z " fill="#F15A22" transform="translate(0,100)"/>
<path d="M0 0 C3.69639197 3.55752931 6.93588711 7.30474369 10.0625 11.375 C13.02591112 15.20151097 15.9959816 19.01625144 19.06640625 22.7578125 C24.08182701 28.88058579 28.88527971 35.03686024 33.1875 41.6875 C33.74945068 42.55181641 33.74945068 42.55181641 34.32275391 43.43359375 C36.17228423 46.37185469 37.14359 48.57435998 38 52 C4.67 52 -28.66 52 -63 52 C-63 51.34 -63 50.68 -63 50 C-61.2003503 48.48077517 -59.39519662 47.07942605 -57.5 45.6875 C-52.26100172 41.75369912 -47.13089813 37.71378871 -42.0625 33.5625 C-37.08044193 29.49021423 -32.07247965 25.45913242 -27 21.5 C-21.04584349 16.85253853 -15.17516981 12.10758161 -9.328125 7.32617188 C-6.26172459 4.82153105 -3.19759812 2.33733061 0 0 Z " fill="#F15D26" transform="translate(90,212)"/>
</svg>
