<?xml version="1.0" encoding="UTF-8"?>
<svg version="1.1" xmlns="http://www.w3.org/2000/svg" width="346" height="146">
<path d="M0 0 C6.05236175 3.63141705 9.59381568 8.21718512 11.3828125 15.0546875 C11.70930945 18.74803681 11.75486096 22.43441527 11.796875 26.140625 C11.81624115 27.19754547 11.8356073 28.25446594 11.8555603 29.34341431 C11.91514164 32.70542434 11.96165592 36.06746901 12.0078125 39.4296875 C12.04601198 41.71485834 12.08506486 44.00001508 12.125 46.28515625 C12.2208257 51.87488497 12.30493609 57.46468107 12.3828125 63.0546875 C8.0928125 63.0546875 3.8028125 63.0546875 -0.6171875 63.0546875 C-0.9471875 62.0646875 -1.2771875 61.0746875 -1.6171875 60.0546875 C-2.3596875 60.5290625 -3.1021875 61.0034375 -3.8671875 61.4921875 C-9.19320237 64.51833231 -14.72347512 64.84947149 -20.703125 63.62890625 C-26.17278975 61.9209458 -29.54176456 58.85391438 -32.6171875 54.0546875 C-35.31407698 48.40230269 -35.87510227 42.02427484 -33.96484375 35.99609375 C-30.88449162 30.06013621 -25.73675238 25.63872446 -19.5546875 23.1796875 C-13.39859814 21.35209847 -6.96937931 21.81071996 -0.6171875 22.0546875 C-1.04141994 20.59243951 -1.48208995 19.13495338 -1.9296875 17.6796875 C-2.17332031 16.86757812 -2.41695313 16.05546875 -2.66796875 15.21875 C-3.53086935 12.72284121 -3.53086935 12.72284121 -6.6171875 11.0546875 C-13.00509875 10.49544367 -13.00509875 10.49544367 -18.6171875 13.0546875 C-19.2771875 14.7046875 -19.9371875 16.3546875 -20.6171875 18.0546875 C-24.5771875 18.0546875 -28.5371875 18.0546875 -32.6171875 18.0546875 C-32.07928087 11.33085459 -30.13606299 7.37980334 -25.1796875 2.8046875 C-18.08921058 -2.03758942 -8.10240975 -2.92654203 0 0 Z M-20.6171875 37.0546875 C-22.90406855 40.77558637 -23.15145226 43.70424589 -22.6171875 48.0546875 C-20.60030861 51.11253614 -19.13364773 52.71181138 -15.4921875 53.53515625 C-11.39426131 53.79127664 -8.47280466 53.40966766 -5.1796875 50.8671875 C-0.06045059 45.24851284 -0.36235399 40.3457573 -0.6171875 33.0546875 C-11.29820951 32.40310036 -11.29820951 32.40310036 -20.6171875 37.0546875 Z " fill="#152038" transform="translate(307.6171875,62.9453125)"/>
<path d="M0 0 C6.0491312 3.78728214 9.32260155 9.19035595 11.3125 15.9375 C13.88867635 28.066997 14.08837019 42.70536384 8.18359375 53.87109375 C4.37722849 59.52359802 -0.17195553 62.44533184 -6.7578125 64.02734375 C-14.1341641 65.17106377 -20.66181042 64.09766773 -26.875 59.875 C-30.81835163 56.63721824 -32.87530251 53.2774329 -34.5625 48.5 C-34.78679687 47.86835937 -35.01109375 47.23671875 -35.2421875 46.5859375 C-38.58742232 34.71722767 -37.78072233 20.00214905 -32.30859375 8.97265625 C-29.67855206 4.55103302 -26.91405325 1.10363594 -22.09765625 -0.91015625 C-15.07687731 -2.54365027 -6.72552899 -2.90273313 0 0 Z M-20.5625 12.5 C-25.70901624 20.30850741 -25.25150421 31.70075542 -23.8125 40.625 C-22.79312451 45.19859801 -21.68828872 48.90565846 -17.8125 51.8125 C-13.57394423 53.10761426 -9.94236827 53.03313092 -5.8125 51.4375 C-1.04146452 47.32910834 -0.0823366 41.53010456 0.4375 35.5 C0.9093285 27.61161724 0.76134085 17.8097373 -4.5625 11.5 C-10.33523358 8.30980513 -15.1388649 8.84494156 -20.5625 12.5 Z " fill="#152038" transform="translate(207.5625,63.5)"/>
<path d="M0 0 C5.21165853 2.4261169 8.65157826 6.12161725 11.09518433 11.33781433 C12.04421758 14.13009877 12.24192756 16.21930699 12.22705078 19.1574707 C12.22689972 20.15813065 12.22674866 21.15879059 12.22659302 22.18977356 C12.21627045 23.2576561 12.20594788 24.32553864 12.1953125 25.42578125 C12.1924826 26.52850876 12.18965271 27.63123627 12.18673706 28.76737976 C12.17555981 32.28253114 12.15045937 35.79742589 12.125 39.3125 C12.11496704 41.69856402 12.10584174 44.08463205 12.09765625 46.47070312 C12.07562845 52.31390066 12.04111513 58.15690685 12 64 C8.04 64 4.08 64 0 64 C-0.01458252 62.59717773 -0.02916504 61.19435547 -0.04418945 59.74902344 C-0.10215157 54.54547607 -0.17938503 49.34236237 -0.26245117 44.13916016 C-0.29571024 41.8869531 -0.32373908 39.63466249 -0.34643555 37.38232422 C-0.37996296 34.14514554 -0.43227888 30.9087332 -0.48828125 27.671875 C-0.49467117 26.66445251 -0.5010611 25.65703003 -0.50764465 24.61907959 C-0.52743881 23.67840637 -0.54723297 22.73773315 -0.56762695 21.76855469 C-0.58428154 20.52945343 -0.58428154 20.52945343 -0.60127258 19.26531982 C-1.10108701 16.42568683 -1.99775769 15.05992669 -4 13 C-8.62007127 11.8639169 -10.88642002 11.60818482 -15.375 13.1875 C-18.154217 15.10648317 -18.7971935 15.94574214 -20 19 C-20.32265837 21.21773267 -20.32265837 21.21773267 -20.31884766 23.58496094 C-20.33871735 24.48559265 -20.35858704 25.38622437 -20.37905884 26.31414795 C-20.39638565 27.75966034 -20.39638565 27.75966034 -20.4140625 29.234375 C-20.43342865 30.22753723 -20.4527948 31.22069946 -20.4727478 32.24395752 C-20.53247322 35.41255129 -20.57890111 38.58118153 -20.625 41.75 C-20.66318623 43.89975533 -20.70223834 46.04949546 -20.7421875 48.19921875 C-20.83816891 53.46601085 -20.92323704 58.73289464 -21 64 C-24 65 -24 65 -33 65 C-33 43.88 -33 22.76 -33 1 C-29.04 1 -25.08 1 -21 1 C-20.67 1.66 -20.34 2.32 -20 3 C-18.7315625 2.27103516 -18.7315625 2.27103516 -17.4375 1.52734375 C-11.75607208 -0.99701797 -6.10499181 -0.65255257 0 0 Z " fill="#152139" transform="translate(151,62)"/>
<path d="M0 0 C5.35742799 4.01807099 8.33235568 8.30458256 9.5 14.875 C9.75611723 18.60608083 9.73337619 22.32023768 9.6953125 26.05859375 C9.6924826 27.11409927 9.68965271 28.1696048 9.68673706 29.25709534 C9.67559415 32.60901504 9.65050024 35.96066184 9.625 39.3125 C9.6149626 41.59309508 9.60583808 43.87369438 9.59765625 46.15429688 C9.57567407 51.72796881 9.54118473 57.30143822 9.5 62.875 C5.54 62.875 1.58 62.875 -2.5 62.875 C-2.51458252 61.50770752 -2.52916504 60.14041504 -2.54418945 58.73168945 C-2.60221463 53.65297452 -2.67944785 48.57470097 -2.76245117 43.49633789 C-2.79568055 41.29947073 -2.82371866 39.1025186 -2.84643555 36.90551758 C-2.88001754 33.74523757 -2.93233634 30.58573479 -2.98828125 27.42578125 C-2.99467117 26.44539383 -3.0010611 25.46500641 -3.00764465 24.45491028 C-3.14142048 17.66976401 -3.14142048 17.66976401 -6.5 11.875 C-9.46521971 10.64937585 -12.32032606 10.58790849 -15.5 10.875 C-19.01662056 12.43940372 -19.01662056 12.43940372 -21.5 14.875 C-22.42923977 17.66271931 -22.64867338 19.45734248 -22.70532227 22.34643555 C-22.72526749 23.24714279 -22.74521271 24.14785004 -22.76576233 25.07585144 C-22.79083107 26.52910576 -22.79083107 26.52910576 -22.81640625 28.01171875 C-22.83718735 29.00629593 -22.85796844 30.00087311 -22.87937927 31.02558899 C-22.94479412 34.20448867 -23.0037224 37.38347134 -23.0625 40.5625 C-23.10569288 42.71680548 -23.14930742 44.87110254 -23.19335938 47.02539062 C-23.30046726 52.30850588 -23.40224873 57.59170379 -23.5 62.875 C-26.5 63.875 -26.5 63.875 -35.5 63.875 C-35.5 42.755 -35.5 21.635 -35.5 -0.125 C-31.54 -0.125 -27.58 -0.125 -23.5 -0.125 C-23.17 0.535 -22.84 1.195 -22.5 1.875 C-21.4171875 1.1325 -21.4171875 1.1325 -20.3125 0.375 C-14.25551345 -2.66072118 -6.26615098 -2.01411996 0 0 Z " fill="#16213A" transform="translate(97.5,63.125)"/>
<path d="M0 0 C4.29 0 8.58 0 13 0 C16.17207291 8.8592198 18.37699232 17.95044322 20.6875 27.0625 C22.110625 32.651875 23.53375 38.24125 25 44 C28.63 29.48 32.26 14.96 36 0 C40.62 0 45.24 0 50 0 C46.92856601 13.83673957 43.1457345 27.43806751 39.25 41.0625 C38.64157541 43.20107186 38.03350025 45.33974315 37.42578125 47.47851562 C35.95453631 52.65349607 34.47860527 57.82711799 33 63 C27.72 63 22.44 63 17 63 C14.90027595 55.72260795 12.8006699 48.44518187 10.70117188 41.16772461 C9.98733692 38.69343145 9.27347006 36.21914751 8.55957031 33.74487305 C7.53181651 30.18280433 6.5041785 26.62070223 5.4765625 23.05859375 C4.99988632 21.40663246 4.99988632 21.40663246 4.51358032 19.72129822 C3.9278714 17.69085043 3.34358131 15.65999255 2.76104736 13.62863159 C2.29777836 12.02851628 1.82626636 10.43071825 1.34002686 8.83743286 C0.38109146 5.66956443 0 3.37373052 0 0 Z " fill="#16213A" transform="translate(222,63)"/>
<path d="M0 0 C1 1 1 1 1.1328125 3.25 C1.13023438 4.1575 1.12765625 5.065 1.125 6 C1.12886719 7.36125 1.12886719 7.36125 1.1328125 8.75 C1 11 1 11 0 12 C-2.25543624 12.24261665 -4.50945523 12.38332133 -6.7734375 12.5234375 C-9.49936655 13.10688196 -10.38018911 13.74418974 -12 16 C-13.02462064 19.95059488 -13.1524679 23.7400282 -13.20532227 27.80981445 C-13.22017166 28.80577385 -13.22017166 28.80577385 -13.23532104 29.82185364 C-13.26674426 32.00229405 -13.29161699 34.18275619 -13.31640625 36.36328125 C-13.33699238 37.88071742 -13.35798927 39.39814807 -13.37937927 40.91557312 C-13.43442873 44.89884963 -13.48391312 48.88217641 -13.53222656 52.86553955 C-13.58256707 56.93449347 -13.63818747 61.00337486 -13.69335938 65.07226562 C-13.80073131 73.04811567 -13.90222233 81.0240266 -14 89 C-17.90854743 89.91965822 -20.82335339 90 -25 90 C-25 72.51 -25 55.02 -25 37 C-28.3 37 -31.6 37 -35 37 C-35 33.37 -35 29.74 -35 26 C-31.7 26 -28.4 26 -25 26 C-25.061875 24.494375 -25.12375 22.98875 -25.1875 21.4375 C-25.17747 14.33626132 -23.03320455 9.17701039 -18 4 C-12.22591837 0.48534162 -6.68740754 -0.31104221 0 0 Z " fill="#152038" transform="translate(35,37)"/>
<path d="M0 0 C6.0491312 3.78728214 9.32260155 9.19035595 11.3125 15.9375 C13.88867635 28.066997 14.08837019 42.70536384 8.18359375 53.87109375 C4.37722849 59.52359802 -0.17195553 62.44533184 -6.7578125 64.02734375 C-14.02410986 65.15399961 -20.57573691 64.15938754 -26.625 59.875 C-27.594375 59.09125 -28.56375 58.3075 -29.5625 57.5 C-26.5625 57.5 -26.5625 57.5 -24.6875 58.5 C-22.10076017 59.71728933 -20.39340432 59.79034916 -17.5625 59.5 C-16.5725 58.84 -15.5825 58.18 -14.5625 57.5 C-14.5625 58.16 -14.5625 58.82 -14.5625 59.5 C-13.9025 59.83 -13.2425 60.16 -12.5625 60.5 C-13.5525 61.16 -14.5425 61.82 -15.5625 62.5 C-13.14429317 62.04884201 -10.72817137 61.58938045 -8.3125 61.125 C-7.63058594 60.99867187 -6.94867188 60.87234375 -6.24609375 60.7421875 C-2.73765024 60.06093633 0.34789673 59.33146585 3.4375 57.5 C2.76013073 54.40642312 2.76013073 54.40642312 0.4375 53.25 C-3.63517885 52.23183029 -7.49071674 52.45681586 -11.5625 53.5 C-11.8925 54.16 -12.2225 54.82 -12.5625 55.5 C-18.22945728 53.16169238 -21.62417916 51.14157601 -24.5625 45.5 C-25.99918857 40.84395377 -25.78564581 36.14289793 -25.8125 31.3125 C-25.833125 30.40435547 -25.85375 29.49621094 -25.875 28.56054688 C-25.90872646 22.67106341 -25.592765 16.70746621 -22.5625 11.5 C-19.67266567 9.69767897 -16.90725299 9.05745883 -13.5625 8.5 C-13.8925 9.16 -14.2225 9.82 -14.5625 10.5 C-15.34625 10.726875 -16.13 10.95375 -16.9375 11.1875 C-19.91025564 12.67387782 -20.86227776 13.9551774 -21.99609375 17.05859375 C-24.38000057 27.33405416 -25.03829469 40.06255082 -19.5625 49.5 C-16.12865393 52.04358968 -12.70738056 51.7960629 -8.5625 51.5 C-6.24500878 51.09130748 -6.24500878 51.09130748 -4.5625 49.5 C1.26345294 38.49542223 0.2369346 26.00058117 -3.1875 14.37890625 C-3.72878088 11.66686352 -2.71597343 9.94264961 -1.5625 7.5 C-0.9025 7.5 -0.2425 7.5 0.4375 7.5 C0.7675 6.51 1.0975 5.52 1.4375 4.5 C0.7775 4.17 0.1175 3.84 -0.5625 3.5 C-0.5625 2.84 -0.5625 2.18 -0.5625 1.5 C-14.6642469 -0.16033222 -14.6642469 -0.16033222 -27.3125 5.5 C-30.51766481 9.77355309 -31.97532826 14.43701083 -33.5625 19.5 C-34.2225 18.84 -34.8825 18.18 -35.5625 17.5 C-30.71591937 4.22346263 -30.71591937 4.22346263 -24.25 0.1875 C-17.16012617 -3.07144764 -7.16463509 -3.09225098 0 0 Z " fill="#101930" transform="translate(207.5625,63.5)"/>
<path d="M0 0 C3.96 0 7.92 0 12 0 C12 20.46 12 40.92 12 62 C9 63 9 63 0 63 C0 42.21 0 21.42 0 0 Z " fill="#162139" transform="translate(36,64)"/>
<path d="M0 0 C2.97 0 5.94 0 9 0 C9.33 1.32 9.66 2.64 10 4 C10.99 4.33 11.98 4.66 13 5 C13.75 7.125 13.75 7.125 14 10 C13.35772461 10.83869629 12.71544922 11.67739258 12.05371094 12.54150391 C9.08204764 16.78969011 9.39725769 21.18243754 9.390625 26.2109375 C9.37408875 27.17907379 9.35755249 28.14721008 9.34051514 29.14468384 C9.29212655 32.22152102 9.2706842 35.29786426 9.25 38.375 C9.22183272 40.46747264 9.19190424 42.55992237 9.16015625 44.65234375 C9.08636978 49.76818849 9.03673912 54.8837605 9 60 C6.03 60 3.06 60 0 60 C0 40.2 0 20.4 0 0 Z " fill="#17223B" transform="translate(63,65)"/>
<path d="M0 0 C0.53625 0.226875 1.0725 0.45375 1.625 0.6875 C-1.84 2.1725 -1.84 2.1725 -5.375 3.6875 C-5.375 5.9975 -5.375 8.3075 -5.375 10.6875 C-4.715 10.3575 -4.055 10.0275 -3.375 9.6875 C1.39550211 9.17245464 5.35157529 8.99772828 9.625 11.3125 C14.17866813 16.7199809 13.89831206 22.75305181 13.8203125 29.4609375 C13.8174826 30.3846817 13.81465271 31.3084259 13.81173706 32.26016235 C13.80059179 35.19440976 13.77549765 38.1283457 13.75 41.0625 C13.73996289 43.05858932 13.73083832 45.05468346 13.72265625 47.05078125 C13.70067097 51.92980649 13.66618017 56.80860054 13.625 61.6875 C16.265 61.6875 18.905 61.6875 21.625 61.6875 C21.50722036 54.94299002 21.38239272 48.19863677 21.25268555 41.4543457 C21.20939801 39.1604304 21.16771858 36.86648417 21.12768555 34.57250977 C21.06983334 31.27350546 21.00618178 27.97465599 20.94140625 24.67578125 C20.92469376 23.65164627 20.90798126 22.62751129 20.89076233 21.57234192 C20.8608445 20.13141426 20.8608445 20.13141426 20.83032227 18.66137695 C20.81477798 17.81976517 20.7992337 16.97815338 20.78321838 16.11103821 C20.61699385 13.56486443 20.17874448 11.17580329 19.625 8.6875 C20.285 8.6875 20.945 8.6875 21.625 8.6875 C23.78677738 14.81752271 23.88611118 20.40879711 23.8203125 26.87109375 C23.8174826 27.92659927 23.81465271 28.9821048 23.81173706 30.06959534 C23.80059415 33.42151504 23.77550024 36.77316184 23.75 40.125 C23.7399626 42.40559508 23.73083808 44.68619438 23.72265625 46.96679688 C23.70067407 52.54046881 23.66618473 58.11393822 23.625 63.6875 C19.665 63.6875 15.705 63.6875 11.625 63.6875 C11.61041748 62.32020752 11.59583496 60.95291504 11.58081055 59.54418945 C11.52278537 54.46547452 11.44555215 49.38720097 11.36254883 44.30883789 C11.32931945 42.11197073 11.30128134 39.9150186 11.27856445 37.71801758 C11.24498246 34.55773757 11.19266366 31.39823479 11.13671875 28.23828125 C11.13032883 27.25789383 11.1239389 26.27750641 11.11735535 25.26741028 C10.98357952 18.48226401 10.98357952 18.48226401 7.625 12.6875 C4.65978029 11.46187585 1.80467394 11.40040849 -1.375 11.6875 C-4.89162056 13.25190372 -4.89162056 13.25190372 -7.375 15.6875 C-8.30423977 18.47521931 -8.52367338 20.26984248 -8.58032227 23.15893555 C-8.60026749 24.05964279 -8.62021271 24.96035004 -8.64076233 25.88835144 C-8.66583107 27.34160576 -8.66583107 27.34160576 -8.69140625 28.82421875 C-8.71218735 29.81879593 -8.73296844 30.81337311 -8.75437927 31.83808899 C-8.81979412 35.01698867 -8.8787224 38.19597134 -8.9375 41.375 C-8.98069288 43.52930548 -9.02430742 45.68360254 -9.06835938 47.83789062 C-9.17546726 53.12100588 -9.27724873 58.40420379 -9.375 63.6875 C-12.375 64.6875 -12.375 64.6875 -21.375 64.6875 C-21.375 43.5675 -21.375 22.4475 -21.375 0.6875 C-17.415 0.6875 -13.455 0.6875 -9.375 0.6875 C-9.045 1.3475 -8.715 2.0075 -8.375 2.6875 C-7.4675 2.171875 -6.56 1.65625 -5.625 1.125 C-2.375 -0.3125 -2.375 -0.3125 0 0 Z M-20.375 2.6875 C-20.375 22.4875 -20.375 42.2875 -20.375 62.6875 C-17.405 62.6875 -14.435 62.6875 -11.375 62.6875 C-11.3656543 61.38603027 -11.35630859 60.08456055 -11.34667969 58.74365234 C-11.30671953 53.90151105 -11.24094343 49.06000107 -11.16748047 44.21826172 C-11.13930587 42.12524544 -11.11807391 40.03212346 -11.10400391 37.93896484 C-11.08252606 34.92490663 -11.03585012 31.91211463 -10.984375 28.8984375 C-10.98253204 27.50121964 -10.98253204 27.50121964 -10.98065186 26.07577515 C-10.84891818 20.1937119 -9.86376541 17.3744722 -6.375 12.6875 C-6.98238122 9.35971575 -6.98238122 9.35971575 -8.375 6.6875 C-9.035 6.6875 -9.695 6.6875 -10.375 6.6875 C-10.705 5.3675 -11.035 4.0475 -11.375 2.6875 C-14.345 2.6875 -17.315 2.6875 -20.375 2.6875 Z " fill="#0D1225" transform="translate(83.375,62.3125)"/>
<path d="M0 0 C4.62 0 9.24 0 14 0 C11.33343613 11.76863385 8.3113918 23.39655743 5 35 C4.34 35 3.68 35 3 35 C3 33.35 3 31.7 3 30 C-0.91063224 28.52952664 -0.91063224 28.52952664 -5 28 C-5.33 30.31 -5.66 32.62 -6 35 C-6.66 35 -7.32 35 -8 35 C-6.66258145 26.99841016 -4.88620186 19.16965944 -2.875 11.3125 C-2.59785156 10.21744141 -2.32070312 9.12238281 -2.03515625 7.99414062 C-1.36004036 5.32859686 -0.68048864 2.66417722 0 0 Z " fill="#121C33" transform="translate(258,63)"/>
<path d="M0 0 C4.29 0 8.58 0 13 0 C13.33 1.32 13.66 2.64 14 4 C13.34 4 12.68 4 12 4 C12 3.34 12 2.68 12 2 C8.7 2 5.4 2 2 2 C2.29132813 2.91136719 2.58265625 3.82273437 2.8828125 4.76171875 C6.48288174 16.11063591 9.7723408 27.54022191 13 39 C13.99 38.505 13.99 38.505 15 38 C15.99 37.505 15.99 37.505 17 37 C17 37.66 17 38.32 17 39 C17.99 39 18.98 39 20 39 C20.33 38.01 20.66 37.02 21 36 C21.66 36 22.32 36 23 36 C23.66 38.64 24.32 41.28 25 44 C25.66 41.36 26.32 38.72 27 36 C27.66 36 28.32 36 29 36 C28.53199289 40.05606165 28.12046792 43.46588679 26 47 C25.01 47 24.02 47 23 47 C22.34 45.68 21.68 44.36 21 43 C20.566875 44.4540625 20.566875 44.4540625 20.125 45.9375 C19 49 19 49 17 50 C17.33 53.63 17.66 57.26 18 61 C23.94 60.505 23.94 60.505 30 60 C32.36353698 54.7808113 34.12530299 49.57030637 35.6875 44.0625 C35.91244141 43.28326172 36.13738281 42.50402344 36.36914062 41.70117188 C36.91677367 39.80193386 37.45895949 37.90112655 38 36 C38.66 36.66 39.32 37.32 40 38 C37.69 46.25 35.38 54.5 33 63 C27.72 63 22.44 63 17 63 C14.90027595 55.72260795 12.8006699 48.44518187 10.70117188 41.16772461 C9.98733692 38.69343145 9.27347006 36.21914751 8.55957031 33.74487305 C7.53181651 30.18280433 6.5041785 26.62070223 5.4765625 23.05859375 C4.99988632 21.40663246 4.99988632 21.40663246 4.51358032 19.72129822 C3.9278714 17.69085043 3.34358131 15.65999255 2.76104736 13.62863159 C2.29777836 12.02851628 1.82626636 10.43071825 1.34002686 8.83743286 C0.38109146 5.66956443 0 3.37373052 0 0 Z " fill="#101B31" transform="translate(222,63)"/>
<path d="M0 0 C4.68721819 -0.37497746 8.04875802 -0.48459497 12.3125 1.6875 C17.09912456 5.80622346 20.61889026 10.03935532 21.24050903 16.49946594 C21.2338472 17.8151783 21.2338472 17.8151783 21.22705078 19.1574707 C21.22689972 20.15813065 21.22674866 21.15879059 21.22659302 22.18977356 C21.21627045 23.2576561 21.20594788 24.32553864 21.1953125 25.42578125 C21.1924826 26.52850876 21.18965271 27.63123627 21.18673706 28.76737976 C21.17555981 32.28253114 21.15045937 35.79742589 21.125 39.3125 C21.11496704 41.69856402 21.10584174 44.08463205 21.09765625 46.47070312 C21.07562845 52.31390066 21.04111513 58.15690685 21 64 C17.04 64 13.08 64 9 64 C8.98541748 62.59717773 8.97083496 61.19435547 8.95581055 59.74902344 C8.89784843 54.54547607 8.82061497 49.34236237 8.73754883 44.13916016 C8.70428976 41.8869531 8.67626092 39.63466249 8.65356445 37.38232422 C8.62003704 34.14514554 8.56772112 30.9087332 8.51171875 27.671875 C8.50532883 26.66445251 8.4989389 25.65703003 8.49235535 24.61907959 C8.47256119 23.67840637 8.45276703 22.73773315 8.43237305 21.76855469 C8.42126999 20.94248718 8.41016693 20.11641968 8.39872742 19.26531982 C7.90298291 16.44880954 6.94898616 15.07104294 5 13 C4.01 12.67 3.02 12.34 2 12 C2 11.34 2 10.68 2 10 C5.3529984 11.17808052 7.7552529 12.19406612 10 15 C10.93512434 17.80537303 11.12182907 19.48165364 11.11352539 22.37963867 C11.11344986 23.26032516 11.11337433 24.14101166 11.11329651 25.04838562 C11.10813522 25.99534805 11.10297394 26.94231049 11.09765625 27.91796875 C11.0962413 28.89034988 11.09482635 29.86273102 11.09336853 30.86457825 C11.08776817 33.97225004 11.07521562 37.07984996 11.0625 40.1875 C11.05748505 42.29361875 11.05292213 44.39973863 11.04882812 46.50585938 C11.03779862 51.67060064 11.02053375 56.83528813 11 62 C13.64 62 16.28 62 19 62 C18.93290462 55.13116097 18.84306018 48.26288684 18.73754883 41.39453125 C18.70433667 39.05898763 18.67629324 36.72336447 18.65356445 34.38769531 C18.61995099 31.02634855 18.56762997 27.66572831 18.51171875 24.3046875 C18.50532883 23.26384003 18.4989389 22.22299255 18.49235535 21.15060425 C18.35747667 14.46897997 17.60902805 9.84621242 12.9375 4.75 C8.83467846 2.30576589 4.68244817 1.69100206 0 1 C0 0.67 0 0.34 0 0 Z " fill="#0A1226" transform="translate(142,62)"/>
<path d="M0 0 C0 0.66 0 1.32 0 2 C-0.61875 2.2475 -1.2375 2.495 -1.875 2.75 C-4.48998244 4.28822496 -5.06708246 5.12350424 -6 8 C-6.4027715 11.75920062 -6.53831196 14.07018844 -4.625 17.375 C-0.65769836 19.83094863 3.41069011 19.8248355 8 20 C7.01 20.99 6.02 21.98 5 23 C6.32 24.32 7.64 25.64 9 27 C10.98 26.01 12.96 25.02 15 24 C13.73721868 27.78834395 12.47887048 28.22011278 9 30 C3.14009631 32.22272209 -3.41682079 31.44715399 -9.1015625 29.1328125 C-12.47915874 27.11737441 -14.71966131 24.15274099 -17 21 C-16.34 20.67 -15.68 20.34 -15 20 C-14.01 21.32 -13.02 22.64 -12 24 C-9.73040118 22.6557715 -9.73040118 22.6557715 -8 20 C-8.0308948 17.46221266 -8.39434967 15.05084298 -8.75 12.5390625 C-9.10800003 8.90312468 -8.48875602 6.31586568 -7 3 C-4.56321735 1.11149345 -3.10586948 0 0 0 Z " fill="#0F182F" transform="translate(292,96)"/>
<path d="M0 0 C0.66 0 1.32 0 2 0 C4.16177738 6.13002271 4.26111118 11.72129711 4.1953125 18.18359375 C4.1924826 19.23909927 4.18965271 20.2946048 4.18673706 21.38209534 C4.17559415 24.73401504 4.15050024 28.08566184 4.125 31.4375 C4.1149626 33.71809508 4.10583808 35.99869438 4.09765625 38.27929688 C4.07567407 43.85296881 4.04118473 49.42643822 4 55 C0.04 55 -3.92 55 -8 55 C-8 40.15 -8 25.3 -8 10 C-7.01 10.495 -7.01 10.495 -6 11 C-6 24.86 -6 38.72 -6 53 C-3.36 53 -0.72 53 2 53 C1.88222036 46.25549002 1.75739272 39.51113677 1.62768555 32.7668457 C1.58439801 30.4729304 1.54271858 28.17898417 1.50268555 25.88500977 C1.44483334 22.58600546 1.38118178 19.28715599 1.31640625 15.98828125 C1.29969376 14.96414627 1.28298126 13.94001129 1.26576233 12.88484192 C1.24581711 11.92422348 1.22587189 10.96360504 1.20532227 9.97387695 C1.18200584 8.71145927 1.18200584 8.71145927 1.15821838 7.42353821 C0.99199385 4.87736443 0.55374448 2.48830329 0 0 Z " fill="#0D1326" transform="translate(103,71)"/>
<path d="M0 0 C3.38121991 2.44598887 4.76936783 3.89296559 5.625 8 C4.77618008 12.0743356 3.32274404 13.54405875 0 16 C-3.78454468 16.70960213 -5.46714413 16.27801176 -8.875 14.5 C-11.46043632 11.45831021 -11.69010681 9.79992767 -11.4140625 5.90625 C-11 4 -11 4 -9.4375 1.5 C-6.00863886 -0.61006839 -3.95779649 -0.62491523 0 0 Z " fill="#DF48AF" transform="translate(339,111)"/>
<path d="M0 0 C6.77085581 -0.56008918 11.72789649 -0.50348288 17.34375 3.5703125 C20.8209849 6.57188791 23.31392643 9.36900341 24 14 C23.34 14 22.68 14 22 14 C21.01 12.02 20.02 10.04 19 8 C17.33892724 10.98993096 16.56116703 13.63299784 16 17 C15.814375 18.093125 15.62875 19.18625 15.4375 20.3125 C15.2209375 21.6428125 15.2209375 21.6428125 15 23 C15.66 23.33 16.32 23.66 17 24 C13.23699626 25.25433458 9.72789091 25.10695422 5.8125 25.0625 C5.06291016 25.05798828 4.31332031 25.05347656 3.54101562 25.04882812 C1.69397617 25.03706354 -0.15302213 25.01912865 -2 25 C-1.67 24.34 -1.34 23.68 -1 23 C3.62 23 8.24 23 13 23 C12.566875 21.55625 12.13375 20.1125 11.6875 18.625 C11.44386719 17.81289062 11.20023437 17.00078125 10.94921875 16.1640625 C10.08631815 13.66815371 10.08631815 13.66815371 7 12 C4.67612053 11.60612212 2.34206251 11.26513915 0 11 C0 10.34 0 9.68 0 9 C1.47968324 9.14049518 2.95874516 9.28754826 4.4375 9.4375 C5.67306641 9.55931641 5.67306641 9.55931641 6.93359375 9.68359375 C9 10 9 10 10 11 C10.33 10.34 10.66 9.68 11 9 C11.99 9 12.98 9 14 9 C14 7.35 14 5.7 14 4 C9.38 3.01 4.76 2.02 0 1 C0 0.67 0 0.34 0 0 Z " fill="#0D142A" transform="translate(294,62)"/>
<path d="M0 0 C3.63 0 7.26 0 11 0 C11 20.46 11 40.92 11 62 C8.11788698 62.96070434 6.30149956 63.10581883 3.3125 63.0625 C2.10013672 63.04896484 2.10013672 63.04896484 0.86328125 63.03515625 C0.24839844 63.02355469 -0.36648437 63.01195312 -1 63 C-0.67 62.34 -0.34 61.68 0 61 C2.97 61 5.94 61 9 61 C9 41.2 9 21.4 9 1 C6.03 1 3.06 1 0 1 C0 0.67 0 0.34 0 0 Z " fill="#040622" transform="translate(37,64)"/>
<path d="M0 0 C0.66 0.33 1.32 0.66 2 1 C2.02688151 2.64574566 2.04634123 4.29161413 2.0625 5.9375 C2.07410156 6.85402344 2.08570312 7.77054688 2.09765625 8.71484375 C2 11 2 11 1 12 C-1.25543624 12.24261665 -3.50945523 12.38332133 -5.7734375 12.5234375 C-8.49936655 13.10688196 -9.38018911 13.74418974 -11 16 C-12.02462064 19.95059488 -12.1524679 23.7400282 -12.20532227 27.80981445 C-12.22017166 28.80577385 -12.22017166 28.80577385 -12.23532104 29.82185364 C-12.26674426 32.00229405 -12.29161699 34.18275619 -12.31640625 36.36328125 C-12.33699238 37.88071742 -12.35798927 39.39814807 -12.37937927 40.91557312 C-12.43442873 44.89884963 -12.48391312 48.88217641 -12.53222656 52.86553955 C-12.58256707 56.93449347 -12.63818747 61.00337486 -12.69335938 65.07226562 C-12.80073131 73.04811567 -12.90222233 81.0240266 -13 89 C-16.73201925 89.84676067 -19.26940301 89.95929637 -23 89 C-23 88.67 -23 88.34 -23 88 C-20.03 88 -17.06 88 -14 88 C-14.00888245 87.10908157 -14.01776489 86.21816315 -14.0269165 85.30024719 C-14.10710714 76.89893952 -14.16798715 68.49776062 -14.20724869 60.09615803 C-14.2281122 55.7769111 -14.25640687 51.45798075 -14.30175781 47.13891602 C-14.34526027 42.96974265 -14.36914641 38.80087354 -14.37950897 34.63149071 C-14.3868925 33.041864 -14.40131103 31.4522537 -14.42292023 29.86275673 C-14.45201408 27.6338075 -14.45595371 25.4061109 -14.45410156 23.17700195 C-14.46298401 21.90903275 -14.47186646 20.64106354 -14.48101807 19.33467102 C-13.91533268 15.41304146 -12.76155184 13.78436312 -10 11 C-6.78548731 9.39274365 -3.56387464 9.94251815 0 10 C0 6.7 0 3.4 0 0 Z " fill="#000315" transform="translate(34,37)"/>
<path d="M0 0 C0 0.66 0 1.32 0 2 C-1.423125 2.61875 -1.423125 2.61875 -2.875 3.25 C-6.18600261 5.10416146 -6.71757514 5.61408704 -8 9 C-8.32265837 11.21773267 -8.32265837 11.21773267 -8.31884766 13.58496094 C-8.33871735 14.48559265 -8.35858704 15.38622437 -8.37905884 16.31414795 C-8.39638565 17.75966034 -8.39638565 17.75966034 -8.4140625 19.234375 C-8.43342865 20.22753723 -8.4527948 21.22069946 -8.4727478 22.24395752 C-8.53247322 25.41255129 -8.57890111 28.58118153 -8.625 31.75 C-8.66318623 33.89975533 -8.70223834 36.04949546 -8.7421875 38.19921875 C-8.83816891 43.46601085 -8.92323704 48.73289464 -9 54 C-11.88211302 54.96070434 -13.69850044 55.10581883 -16.6875 55.0625 C-17.89986328 55.04896484 -17.89986328 55.04896484 -19.13671875 55.03515625 C-19.75160156 55.02355469 -20.36648437 55.01195312 -21 55 C-20.34 54.01 -19.68 53.02 -19 52 C-15.04 52.495 -15.04 52.495 -11 53 C-11.01571045 51.76435303 -11.0314209 50.52870605 -11.04760742 49.25561523 C-11.10210151 44.65053888 -11.13642082 40.04549079 -11.16479492 35.44018555 C-11.17983724 33.4508789 -11.20027623 31.46160517 -11.22631836 29.47241211 C-11.26290246 26.60522311 -11.27977218 23.73847441 -11.29296875 20.87109375 C-11.30845261 19.98852402 -11.32393646 19.10595428 -11.33988953 18.19664001 C-11.34156546 11.98126858 -10.49941696 7.1242712 -6.5 2.125 C-4.42804138 0.57103103 -2.58194418 0 0 0 Z " fill="#0D122A" transform="translate(139,72)"/>
<path d="M0 0 C0.33 0 0.66 0 1 0 C1 20.13 1 40.26 1 61 C3.97 61 6.94 61 10 61 C10 47.14 10 33.28 10 19 C10.33 19 10.66 19 11 19 C11.33 33.19 11.66 47.38 12 62 C9 63 9 63 0 63 C0 42.21 0 21.42 0 0 Z " fill="#01041D" transform="translate(62,64)"/>
<path d="M0 0 C4.29 0 8.58 0 13 0 C13.33 1.32 13.66 2.64 14 4 C13.34 4 12.68 4 12 4 C12 3.34 12 2.68 12 2 C8.7 2 5.4 2 2 2 C2.27972656 2.86496094 2.55945313 3.72992188 2.84765625 4.62109375 C5.67262927 13.45302806 8.31395773 22.33819109 10.875 31.25 C11.19734619 32.34497803 11.51969238 33.43995605 11.85180664 34.56811523 C12.14563232 35.60266846 12.43945801 36.63722168 12.7421875 37.703125 C13.0088623 38.62770508 13.27553711 39.55228516 13.55029297 40.50488281 C14.0210648 43.1168742 13.71732486 44.49522842 13 47 C10.92150249 41.61982673 9.10283806 36.24746416 7.51953125 30.703125 C7.30181564 29.9470697 7.08410004 29.1910144 6.85978699 28.41204834 C6.40525098 26.8293798 5.95241299 25.24622268 5.5012207 23.66259766 C4.80983347 21.24065913 4.10928149 18.82149234 3.40820312 16.40234375 C2.96558887 14.85693024 2.5235124 13.31136259 2.08203125 11.765625 C1.76804131 10.68586395 1.76804131 10.68586395 1.44770813 9.58428955 C0.49593705 6.21428995 0 3.53679317 0 0 Z " fill="#080F22" transform="translate(222,63)"/>
<path d="M0 0 C0.66 0 1.32 0 2 0 C2.33 15.84 2.66 31.68 3 48 C-0.96 47.67 -4.92 47.34 -9 47 C-8.67 45.68 -8.34 44.36 -8 43 C-8 43.99 -8 44.98 -8 46 C-5.03 46 -2.06 46 1 46 C0.67 45.34 0.34 44.68 0 44 C-0.08934406 42.58026727 -0.11758978 41.15642209 -0.11352539 39.73388672 C-0.11344986 38.85312469 -0.11337433 37.97236267 -0.11329651 37.06491089 C-0.10813522 36.11278717 -0.10297394 35.16066345 -0.09765625 34.1796875 C-0.0962413 33.20589142 -0.09482635 32.23209534 -0.09336853 31.22879028 C-0.08775973 28.11082927 -0.07520573 24.9929394 -0.0625 21.875 C-0.05748613 19.76432395 -0.05292303 17.65364678 -0.04882812 15.54296875 C-0.03778745 10.36195479 -0.02104073 5.18098248 0 0 Z " fill="#091125" transform="translate(317,78)"/>
<path d="M0 0 C0.66 0.33 1.32 0.66 2 1 C0.24023867 8.23934335 -1.36824576 13.84797469 -7.78515625 18.21484375 C-14.85534142 22.16458934 -22.04307753 22.78764822 -29.84765625 20.8125 C-33.41262696 19.46673973 -36.04678437 17.38770625 -39 15 C-36 15 -36 15 -34.125 16 C-31.53826017 17.21728933 -29.83090432 17.29034916 -27 17 C-26.01 16.34 -25.02 15.68 -24 15 C-24 15.66 -24 16.32 -24 17 C-23.34 17.33 -22.68 17.66 -22 18 C-22.99 18.66 -23.98 19.32 -25 20 C-22.59986309 19.6014867 -20.20662956 19.18205687 -17.8125 18.75 C-17.13896484 18.64042969 -16.46542969 18.53085938 -15.77148438 18.41796875 C-11.17250936 17.56547582 -8.27266651 16.35581956 -5 13 C-3.61194767 10.56441939 -3.61194767 10.56441939 -2.75 7.9375 C-2.27820313 6.65166016 -2.27820313 6.65166016 -1.796875 5.33984375 C-1.19143023 3.56209171 -0.59388262 1.78164786 0 0 Z " fill="#050A1C" transform="translate(217,106)"/>
<path d="M0 0 C0.66 0.66 1.32 1.32 2 2 C-0.31 10.25 -2.62 18.5 -5 27 C-10.28 27 -15.56 27 -21 27 C-22.32 22.05 -23.64 17.1 -25 12 C-24.34 12 -23.68 12 -23 12 C-22.49242138 13.41396902 -21.99425075 14.83131729 -21.5 16.25 C-21.2215625 17.03890625 -20.943125 17.8278125 -20.65625 18.640625 C-20 21 -20 21 -20 25 C-16.04 24.67 -12.08 24.34 -8 24 C-5.63646302 18.7808113 -3.87469701 13.57030637 -2.3125 8.0625 C-2.08755859 7.28326172 -1.86261719 6.50402344 -1.63085938 5.70117188 C-1.08322633 3.80193386 -0.54104051 1.90112655 0 0 Z " fill="#0A1024" transform="translate(260,99)"/>
<path d="M0 0 C0.70125 0.00515625 1.4025 0.0103125 2.125 0.015625 C2.82625 0.01046875 3.5275 0.0053125 4.25 0 C6.125 0.265625 6.125 0.265625 8.125 2.265625 C7.83200977 3.93985486 7.49809899 5.60740727 7.125 7.265625 C7.455 7.925625 7.785 8.585625 8.125 9.265625 C6.805 9.265625 5.485 9.265625 4.125 9.265625 C3.465 7.615625 2.805 5.965625 2.125 4.265625 C1.135 4.265625 0.145 4.265625 -0.875 4.265625 C-0.545 4.595625 -0.215 4.925625 0.125 5.265625 C-0.16104898 6.94105476 -0.49281233 8.60947843 -0.875 10.265625 C-2.195 9.605625 -3.515 8.945625 -4.875 8.265625 C-3.86835548 0.54801703 -3.86835548 0.54801703 0 0 Z " fill="#EF43C0" transform="translate(333.875,112.734375)"/>
<path d="M0 0 C0.33 0 0.66 0 1 0 C1.33 13.86 1.66 27.72 2 42 C-0.88211302 42.96070434 -2.69850044 43.10581883 -5.6875 43.0625 C-6.89986328 43.04896484 -6.89986328 43.04896484 -8.13671875 43.03515625 C-8.75160156 43.02355469 -9.36648437 43.01195312 -10 43 C-9.34 42.01 -8.68 41.02 -8 40 C-4.04 40.495 -4.04 40.495 0 41 C0 27.47 0 13.94 0 0 Z " fill="#000521" transform="translate(128,84)"/>
<path d="M0 0 C0.66 0.33 1.32 0.66 2 1 C2.02688151 2.64574566 2.04634123 4.29161413 2.0625 5.9375 C2.07410156 6.85402344 2.08570312 7.77054688 2.09765625 8.71484375 C2 11 2 11 1 12 C-1.25543624 12.24261665 -3.50945523 12.38332133 -5.7734375 12.5234375 C-8.43746908 13.09363373 -9.27006433 13.94633368 -11 16 C-11.66 16.66 -12.32 17.32 -13 18 C-13.33 17.34 -13.66 16.68 -14 16 C-10.25 11.125 -10.25 11.125 -8 10 C-5.3276379 9.86584528 -2.67749512 9.95681459 0 10 C0 6.7 0 3.4 0 0 Z " fill="#080B1C" transform="translate(34,37)"/>
<path d="M0 0 C4.62 0 9.24 0 14 0 C13.01 4.29 12.02 8.58 11 13 C10.34 13 9.68 13 9 13 C9.66 9.7 10.32 6.4 11 3 C7.37 3 3.74 3 0 3 C0 2.01 0 1.02 0 0 Z " fill="#0C1224" transform="translate(258,63)"/>
<path d="M0 0 C0.33 1.32 0.66 2.64 1 4 C-1.97 4 -4.94 4 -8 4 C-8 6.31 -8 8.62 -8 11 C-5.69 11 -3.38 11 -1 11 C-1 11.33 -1 11.66 -1 12 C-3.97 12 -6.94 12 -10 12 C-10 8.7 -10 5.4 -10 2 C-6.7 2 -3.4 2 0 2 C0 1.34 0 0.68 0 0 Z " fill="#0D122C" transform="translate(10,61)"/>
<path d="M0 0 C0 0.66 0 1.32 0 2 C-0.61875 2.226875 -1.2375 2.45375 -1.875 2.6875 C-4.6090136 4.08514186 -4.6090136 4.08514186 -6 9 C-9.96 9 -13.92 9 -18 9 C-18 7.68 -18 6.36 -18 5 C-17.34 5 -16.68 5 -16 5 C-16 5.66 -16 6.32 -16 7 C-13.03 7 -10.06 7 -7 7 C-7 5.68 -7 4.36 -7 3 C-2.92857143 0 -2.92857143 0 0 0 Z " fill="#0B0F1E" transform="translate(293,72)"/>
<path d="M0 0 C0.680625 0.309375 1.36125 0.61875 2.0625 0.9375 C5.42127242 2.15237513 8.43841356 2.73617878 12 3 C12.99 2.34 13.98 1.68 15 1 C15 1.66 15 2.32 15 3 C15.66 3.33 16.32 3.66 17 4 C16.34 4.66 15.68 5.32 15 6 C15 6.33 15 6.66 15 7 C8.37556458 6.6513455 5.10739657 5.25616381 0 1 C0 0.67 0 0.34 0 0 Z " fill="#0D1429" transform="translate(178,120)"/>
<path d="M0 0 C0.12375 0.639375 0.2475 1.27875 0.375 1.9375 C0.58125 2.618125 0.7875 3.29875 1 4 C1.66 4.33 2.32 4.66 3 5 C-0.76300374 6.25433458 -4.27210909 6.10695422 -8.1875 6.0625 C-8.93708984 6.05798828 -9.68667969 6.05347656 -10.45898438 6.04882812 C-12.30602383 6.03706354 -14.15302213 6.01912865 -16 6 C-15.67 5.34 -15.34 4.68 -15 4 C-10.38 4 -5.76 4 -1 4 C-0.67 2.68 -0.34 1.36 0 0 Z " fill="#0C1427" transform="translate(308,81)"/>
<path d="M0 0 C0.66 0 1.32 0 2 0 C2.66 3.3 3.32 6.6 4 10 C3.34 10 2.68 10 2 10 C-1.07692308 4.58461538 -1.07692308 4.58461538 -0.6875 1.625 C-0.460625 1.08875 -0.23375 0.5525 0 0 Z " fill="#0B1126" transform="translate(235,68)"/>
<path d="M0 0 C0.33 0.99 0.66 1.98 1 3 C3.97 3 6.94 3 10 3 C10.33 2.34 10.66 1.68 11 1 C11.33 2.32 11.66 3.64 12 5 C8.04 4.67 4.08 4.34 0 4 C0 2.68 0 1.36 0 0 Z " fill="#020521" transform="translate(308,121)"/>
</svg>
