<?xml version="1.0" encoding="UTF-8"?>
<svg version="1.1" xmlns="http://www.w3.org/2000/svg" width="178" height="96">
<path d="M0 0 C1.27939453 -0.02449219 2.55878906 -0.04898438 3.87695312 -0.07421875 C5.10478516 -0.07808594 6.33261719 -0.08195312 7.59765625 -0.0859375 C8.71793213 -0.09415527 9.83820801 -0.10237305 10.99243164 -0.11083984 C13.9375 0.375 13.9375 0.375 16.30932617 2.09228516 C18.23188133 4.78772536 18.4080496 6.08246637 18.328125 9.359375 C18.31523438 10.29394531 18.30234375 11.22851562 18.2890625 12.19140625 C18.25554687 13.15949219 18.22203125 14.12757812 18.1875 15.125 C18.16945312 16.10855469 18.15140625 17.09210937 18.1328125 18.10546875 C18.08574126 20.52963783 18.02000742 22.95182059 17.9375 25.375 C16.27138095 25.417721 14.60367115 25.41563832 12.9375 25.375 C10.62667152 23.06417152 11.47553191 16.74691671 11.33203125 13.45703125 C11.51050905 9.60026907 11.51050905 9.60026907 9.9375 6.375 C7.93791636 6.33419217 5.93704746 6.33245644 3.9375 6.375 C3.84662109 8.19837891 3.84662109 8.19837891 3.75390625 10.05859375 C3.66951668 11.64324228 3.5848679 13.22787702 3.5 14.8125 C3.46068359 15.61494141 3.42136719 16.41738281 3.38085938 17.24414062 C3.05078125 23.26171875 3.05078125 23.26171875 1.9375 24.375 C-0.5625 24.5 -0.5625 24.5 -3.0625 24.375 C-4.0625 23.375 -4.0625 23.375 -4.16015625 19.55859375 C-4.15348089 17.97653318 -4.14151875 16.39448841 -4.125 14.8125 C-4.11823242 13.60303711 -4.11823242 13.60303711 -4.11132812 12.36914062 C-4.09950518 10.37106244 -4.08156914 8.37302217 -4.0625 6.375 C-6.7025 6.375 -9.3425 6.375 -12.0625 6.375 C-12.3925 12.315 -12.7225 18.255 -13.0625 24.375 C-15.0425 24.375 -17.0225 24.375 -19.0625 24.375 C-19.0625 17.115 -19.0625 9.855 -19.0625 2.375 C-12.55951341 -0.22619463 -6.93242891 0.00700599 0 0 Z " fill="#0167A9" transform="translate(58.0625,36.625)"/>
<path d="M0 0 C1.20366211 0.00483398 1.20366211 0.00483398 2.43164062 0.00976562 C3.68170898 0.02233398 3.68170898 0.02233398 4.95703125 0.03515625 C5.80201172 0.03966797 6.64699219 0.04417969 7.51757812 0.04882812 C9.6015928 0.06060222 11.68557102 0.07853735 13.76953125 0.09765625 C13.76953125 1.74765625 13.76953125 3.39765625 13.76953125 5.09765625 C8.81953125 5.42765625 3.86953125 5.75765625 -1.23046875 6.09765625 C-0.90046875 6.75765625 -0.57046875 7.41765625 -0.23046875 8.09765625 C3.35067146 8.70884959 6.93424273 9.05896376 10.546875 9.4375 C13.76953125 10.09765625 13.76953125 10.09765625 15.76953125 13.09765625 C16.17219876 16.78877509 16.39093227 19.12779001 14.35546875 22.3046875 C10.40619846 25.04292778 6.69988189 24.52740384 2.01953125 24.34765625 C1.13136719 24.32960938 0.24320313 24.3115625 -0.671875 24.29296875 C-2.85917723 24.24592999 -5.04426691 24.18022634 -7.23046875 24.09765625 C-7.79296875 22.16015625 -7.79296875 22.16015625 -8.23046875 20.09765625 C-6.23430321 18.10149071 -2.41344912 18.68782198 0.33203125 18.53515625 C1.3984082 18.47038086 1.3984082 18.47038086 2.48632812 18.40429688 C4.24715037 18.29793848 6.00831445 18.19726779 7.76953125 18.09765625 C8.09953125 17.10765625 8.42953125 16.11765625 8.76953125 15.09765625 C7.18011719 14.91589844 7.18011719 14.91589844 5.55859375 14.73046875 C4.17051801 14.56164873 2.78250006 14.39235317 1.39453125 14.22265625 C0.34652344 14.10470703 0.34652344 14.10470703 -0.72265625 13.984375 C-6.00390625 13.32421875 -6.00390625 13.32421875 -8.23046875 11.09765625 C-8.4609375 9.22265625 -8.4609375 9.22265625 -8.41796875 7.09765625 C-8.41152344 6.39640625 -8.40507812 5.69515625 -8.3984375 4.97265625 C-8.23046875 3.09765625 -8.23046875 3.09765625 -7.23046875 1.09765625 C-4.46481493 0.17577164 -2.84763173 -0.02019597 0 0 Z " fill="#085B8B" transform="translate(151.23046875,36.90234375)"/>
<path d="M0 0 C1.4540625 0.0309375 1.4540625 0.0309375 2.9375 0.0625 C2.9375 2.0425 2.9375 4.0225 2.9375 6.0625 C3.74574219 6.00449219 4.55398437 5.94648437 5.38671875 5.88671875 C6.45535156 5.84160156 7.52398437 5.79648437 8.625 5.75 C9.68074219 5.69199219 10.73648438 5.63398437 11.82421875 5.57421875 C14.9375 6.0625 14.9375 6.0625 17.8125 7.96875 C20.79815626 12.31551426 20.49902606 15.73740082 20.25 20.875 C20.22744141 21.75865234 20.20488281 22.64230469 20.18164062 23.55273438 C20.12297428 25.7233891 20.03329979 27.8931669 19.9375 30.0625 C17.9575 30.0625 15.9775 30.0625 13.9375 30.0625 C13.6075 24.1225 13.2775 18.1825 12.9375 12.0625 C9.6375 12.0625 6.3375 12.0625 2.9375 12.0625 C2.9375 18.0025 2.9375 23.9425 2.9375 30.0625 C0.9575 30.0625 -1.0225 30.0625 -3.0625 30.0625 C-3.22978213 25.95100113 -3.39037468 21.83930194 -3.54467773 17.72729492 C-3.59816026 16.32748319 -3.65349434 14.92774096 -3.71069336 13.52807617 C-3.79242949 11.5202104 -3.86703025 9.51205813 -3.94140625 7.50390625 C-3.9885376 6.29420166 -4.03566895 5.08449707 -4.08422852 3.83813477 C-4.05364348 -0.06884601 -3.93991823 0.08040649 0 0 Z " fill="#0969A4" transform="translate(119.0625,30.9375)"/>
<path d="M0 0 C0.74507812 0.00451172 1.49015625 0.00902344 2.2578125 0.01367188 C4.0885764 0.02540754 5.91929873 0.0433415 7.75 0.0625 C7.75 1.7125 7.75 3.3625 7.75 5.0625 C3.13 5.0625 -1.49 5.0625 -6.25 5.0625 C-5.92 6.0525 -5.59 7.0425 -5.25 8.0625 C-4.33476562 8.18367188 -3.41953125 8.30484375 -2.4765625 8.4296875 C-0.69378906 8.68105469 -0.69378906 8.68105469 1.125 8.9375 C2.30835937 9.09992187 3.49171875 9.26234375 4.7109375 9.4296875 C7.75 10.0625 7.75 10.0625 9.75 12.0625 C10.0859375 14.12109375 10.0859375 14.12109375 10.125 16.5 C10.15335938 17.28246094 10.18171875 18.06492187 10.2109375 18.87109375 C9.75 21.0625 9.75 21.0625 8.3359375 22.8359375 C4.30609648 24.74737267 0.39509484 24.37659431 -4 24.25 C-5.33224609 24.22969727 -5.33224609 24.22969727 -6.69140625 24.20898438 C-8.87822578 24.17371309 -11.06379966 24.12442752 -13.25 24.0625 C-13.25 22.4125 -13.25 20.7625 -13.25 19.0625 C-7.97 18.7325 -2.69 18.4025 2.75 18.0625 C2.75 17.4025 2.75 16.7425 2.75 16.0625 C1.595 15.77375 0.44 15.485 -0.75 15.1875 C-1.47445313 15.001875 -2.19890625 14.81625 -2.9453125 14.625 C-4.45290637 14.25704489 -5.96906391 13.92219485 -7.4921875 13.625 C-12.88496933 12.51878834 -12.88496933 12.51878834 -14.75 10.1875 C-15.25 8.0625 -15.25 8.0625 -15.25 4.0625 C-14.59 4.0625 -13.93 4.0625 -13.25 4.0625 C-12.92 3.0725 -12.59 2.0825 -12.25 1.0625 C-8.31784345 -0.41021188 -4.14056046 -0.04755061 0 0 Z " fill="#286C95" transform="translate(25.25,36.9375)"/>
<path d="M0 0 C1.98 0 3.96 0 6 0 C6.33 1.65 6.66 3.3 7 5 C9.97 5.495 9.97 5.495 13 6 C13 7.65 13 9.3 13 11 C10.69 11 8.38 11 6 11 C6.14084796 12.79206547 6.28783701 14.58364917 6.4375 16.375 C6.51871094 17.37273438 6.59992188 18.37046875 6.68359375 19.3984375 C6.84965626 21.97927613 6.84965626 21.97927613 8 24 C11.02934491 24.65772428 11.02934491 24.65772428 14 25 C14 26.65 14 28.3 14 30 C9.42925897 30.44811187 6.06088565 30.56291892 1.9375 28.375 C-1.20064263 22.90855799 -0.37492706 17.15713548 0 11 C-1.65 11 -3.3 11 -5 11 C-5.33 9.68 -5.66 8.36 -6 7 C-4.7934375 6.6596875 -4.7934375 6.6596875 -3.5625 6.3125 C-2.716875 5.879375 -1.87125 5.44625 -1 5 C-0.10613836 2.45224694 -0.10613836 2.45224694 0 0 Z " fill="#1273B6" transform="translate(98,31)"/>
<path d="M0 0 C1.98 0 3.96 0 6 0 C6.33 5.61 6.66 11.22 7 17 C9.475 17.99 9.475 17.99 12 19 C12 20.65 12 22.3 12 24 C8.21935905 24.29652086 5.71161619 24.37393515 2.31640625 22.58984375 C-1.10302725 18.76676718 -0.81591033 15.28711168 -0.875 10.3125 C-0.92527344 8.99282227 -0.92527344 8.99282227 -0.9765625 7.64648438 C-1.11731703 3.08251889 -1.11731703 3.08251889 -1 1 C-0.67 0.67 -0.34 0.34 0 0 Z " fill="#1C70AB" transform="translate(82,37)"/>
<path d="M0 0 C1.62580966 0.11398665 3.25067157 0.24155659 4.875 0.375 C5.77992187 0.44460937 6.68484375 0.51421875 7.6171875 0.5859375 C10 1 10 1 12 3 C12.3359375 5.05859375 12.3359375 5.05859375 12.375 7.4375 C12.40335938 8.21996094 12.43171875 9.00242187 12.4609375 9.80859375 C12 12 12 12 10.5859375 13.7734375 C6.55609648 15.68487267 2.64509484 15.31409431 -1.75 15.1875 C-2.63816406 15.17396484 -3.52632812 15.16042969 -4.44140625 15.14648438 C-6.62822578 15.11121309 -8.81379966 15.06192752 -11 15 C-11 13.35 -11 11.7 -11 10 C-3.08 9.505 -3.08 9.505 5 9 C5 8.34 5 7.68 5 7 C0.34201396 5.79534844 -4.23649415 4.71452588 -9 4 C-9 3.67 -9 3.34 -9 3 C1.8437307 2.37739345 1.8437307 2.37739345 6.25 4.75 C8 7 8 7 8 11 C8.66 11.33 9.32 11.66 10 12 C9.67 9.03 9.34 6.06 9 3 C6.03 2.34 3.06 1.68 0 1 C0 0.67 0 0.34 0 0 Z " fill="#065686" transform="translate(23,46)"/>
<path d="M0 0 C1.91541138 -0.10841951 3.83259773 -0.18578079 5.75 -0.25 C7.35101563 -0.31960937 7.35101563 -0.31960937 8.984375 -0.390625 C12 0 12 0 14.375 1.34375 C16.9791612 5.60055197 16.41887175 9.87220431 16.25 14.75 C16.23195313 15.73355469 16.21390625 16.71710937 16.1953125 17.73046875 C16.14824126 20.15463783 16.08250742 22.57682059 16 25 C14.33388095 25.042721 12.66617115 25.04063832 11 25 C8.68917152 22.68917152 9.53803191 16.37191671 9.39453125 13.08203125 C9.57300905 9.22526907 9.57300905 9.22526907 8 6 C6.00041636 5.95919217 3.99954746 5.95745644 2 6 C1.93941406 7.21558594 1.87882812 8.43117188 1.81640625 9.68359375 C1.73201668 11.26824228 1.6473679 12.85287702 1.5625 14.4375 C1.50352539 15.64116211 1.50352539 15.64116211 1.44335938 16.86914062 C1.11328125 22.88671875 1.11328125 22.88671875 0 24 C-2.5 24.125 -2.5 24.125 -5 24 C-6 23 -6 23 -6.09765625 19.18359375 C-6.09098089 17.60153318 -6.07901875 16.01948841 -6.0625 14.4375 C-6.05798828 13.63119141 -6.05347656 12.82488281 -6.04882812 11.99414062 C-6.03700518 9.99606244 -6.01906914 7.99802217 -6 6 C-5.67 6 -5.34 6 -5 6 C-5 11.28 -5 16.56 -5 22 C-3.68 21.67 -2.36 21.34 -1 21 C-0.67 15.39 -0.34 9.78 0 4 C6.8359375 3.8046875 6.8359375 3.8046875 9 4 C11 6 11 6 11.1953125 9.4765625 C11.18201493 10.85950968 11.15816232 12.24238654 11.125 13.625 C11.11597656 14.33140625 11.10695313 15.0378125 11.09765625 15.765625 C11.07407603 17.51056098 11.03820461 19.25532295 11 21 C11.99 21 12.98 21 14 21 C14.10792837 18.39472895 14.18724878 15.79391689 14.25 13.1875 C14.28351563 12.44951172 14.31703125 11.71152344 14.3515625 10.95117188 C14.45928458 6.62602843 14.45928458 6.62602843 12.3125 3.03125 C9.69731084 1.865017 7.60355845 1.50023411 4.75 1.3125 C3.85796875 1.24675781 2.9659375 1.18101563 2.046875 1.11328125 C1.03367187 1.05720703 1.03367187 1.05720703 0 1 C0 0.67 0 0.34 0 0 Z " fill="#115682" transform="translate(60,37)"/>
<path d="M0 0 C1.46373047 0.02707031 1.46373047 0.02707031 2.95703125 0.0546875 C3.69308594 0.07789063 4.42914063 0.10109375 5.1875 0.125 C5.1875 0.455 5.1875 0.785 5.1875 1.125 C0.2375 1.785 -4.7125 2.445 -9.8125 3.125 C-9.4825 4.115 -9.1525 5.105 -8.8125 6.125 C-8.58531504 8.69134861 -8.39641816 11.24178107 -8.25 13.8125 C-8.18522461 14.8653418 -8.18522461 14.8653418 -8.11914062 15.93945312 C-8.0133264 17.66775206 -7.91243419 19.3963511 -7.8125 21.125 C-7.76351562 20.06539062 -7.71453125 19.00578125 -7.6640625 17.9140625 C-7.58903291 16.52601503 -7.51348515 15.13799549 -7.4375 13.75 C-7.4065625 13.05132812 -7.375625 12.35265625 -7.34375 11.6328125 C-7.0390625 6.3515625 -7.0390625 6.3515625 -4.8125 4.125 C-2.6484375 3.9296875 -2.6484375 3.9296875 -0.1875 4 C1.03839844 4.02707031 1.03839844 4.02707031 2.2890625 4.0546875 C3.22878906 4.08949219 3.22878906 4.08949219 4.1875 4.125 C4.1875 4.785 4.1875 5.445 4.1875 6.125 C1.5475 6.125 -1.0925 6.125 -3.8125 6.125 C-4.1425 12.065 -4.4725 18.005 -4.8125 24.125 C-6.7925 24.125 -8.7725 24.125 -10.8125 24.125 C-10.8125 16.865 -10.8125 9.605 -10.8125 2.125 C-6.3670917 0.34683668 -4.53134603 -0.10918906 0 0 Z " fill="#034977" transform="translate(49.8125,36.875)"/>
<path d="M0 0 C1.98 0 3.96 0 6 0 C6.33 1.65 6.66 3.3 7 5 C9.97 5.495 9.97 5.495 13 6 C13 7.65 13 9.3 13 11 C10.69 11 8.38 11 6 11 C6 10.67 6 10.34 6 10 C7.98 10 9.96 10 12 10 C12 9.01 12 8.02 12 7 C6.06 7.495 6.06 7.495 0 8 C0.33 8.66 0.66 9.32 1 10 C1.0716735 12.55157655 1.09308442 15.07472971 1.0625 17.625 C1.05798828 18.33140625 1.05347656 19.0378125 1.04882812 19.765625 C1.03703875 21.51045275 1.01910324 23.255237 1 25 C0.67 25 0.34 25 0 25 C0 20.38 0 15.76 0 11 C-1.65 11 -3.3 11 -5 11 C-5.33 9.68 -5.66 8.36 -6 7 C-4.7934375 6.6596875 -4.7934375 6.6596875 -3.5625 6.3125 C-2.716875 5.879375 -1.87125 5.44625 -1 5 C-0.10613836 2.45224694 -0.10613836 2.45224694 0 0 Z " fill="#05568C" transform="translate(98,31)"/>
<path d="M0 0 C1.4540625 0.0309375 1.4540625 0.0309375 2.9375 0.0625 C2.9375 2.0425 2.9375 4.0225 2.9375 6.0625 C3.75734375 6.02769531 4.5771875 5.99289063 5.421875 5.95703125 C6.49953125 5.92996094 7.5771875 5.90289062 8.6875 5.875 C10.28851563 5.82279297 10.28851563 5.82279297 11.921875 5.76953125 C15.23777855 6.09167214 16.52766673 6.83398914 18.9375 9.0625 C18.6075 9.7225 18.2775 10.3825 17.9375 11.0625 C17.41414063 10.57910156 16.89078125 10.09570312 16.3515625 9.59765625 C13.23921812 7.61844696 10.97609153 7.62818435 7.3125 7.5 C1.14636814 7.27136814 1.14636814 7.27136814 -1.0625 5.0625 C-1.3925 12.6525 -1.7225 20.2425 -2.0625 28.0625 C1.1492961 26.42471601 1.1492961 26.42471601 1.44921875 23.6796875 C1.50722656 22.77476563 1.56523438 21.86984375 1.625 20.9375 C1.69074219 20.02742188 1.75648437 19.11734375 1.82421875 18.1796875 C1.86160156 17.48101562 1.89898437 16.78234375 1.9375 16.0625 C2.2675 16.0625 2.5975 16.0625 2.9375 16.0625 C2.9375 20.6825 2.9375 25.3025 2.9375 30.0625 C0.9575 30.0625 -1.0225 30.0625 -3.0625 30.0625 C-3.22978213 25.95100113 -3.39037468 21.83930194 -3.54467773 17.72729492 C-3.59816026 16.32748319 -3.65349434 14.92774096 -3.71069336 13.52807617 C-3.79242949 11.5202104 -3.86703025 9.51205813 -3.94140625 7.50390625 C-3.9885376 6.29420166 -4.03566895 5.08449707 -4.08422852 3.83813477 C-4.05364348 -0.06884601 -3.93991823 0.08040649 0 0 Z " fill="#064871" transform="translate(119.0625,30.9375)"/>
<path d="M0 0 C1.65 0 3.3 0 5 0 C5 5.94 5 11.88 5 18 C3.35 18.33 1.7 18.66 0 19 C0 12.73 0 6.46 0 0 Z " fill="#0871AF" transform="translate(55,40)"/>
<path d="M0 0 C0.598125 0.226875 1.19625 0.45375 1.8125 0.6875 C-0.1675 1.6775 -0.1675 1.6775 -2.1875 2.6875 C-2.1875 3.6775 -2.1875 4.6675 -2.1875 5.6875 C-1.53523438 5.80867188 -0.88296875 5.92984375 -0.2109375 6.0546875 C4.59896342 6.97693989 9.20275465 7.98917277 13.8125 9.6875 C13.8125 12.6575 13.8125 15.6275 13.8125 18.6875 C12.8225 18.3575 11.8325 18.0275 10.8125 17.6875 C10.6578125 16.511875 10.6578125 16.511875 10.5 15.3125 C10.03654978 12.35704819 10.03654978 12.35704819 6.8125 10.6875 C3.84407342 10.22834493 3.84407342 10.22834493 0.625 10.0625 C-0.46167969 9.98773438 -1.54835938 9.91296875 -2.66796875 9.8359375 C-3.49941406 9.78695312 -4.33085937 9.73796875 -5.1875 9.6875 C-5.5508218 3.26881488 -5.5508218 3.26881488 -3.9375 0.6875 C-2.1875 -0.3125 -2.1875 -0.3125 0 0 Z " fill="#146DA3" transform="translate(19.1875,39.3125)"/>
<path d="M0 0 C1.41493551 -0.10884119 2.83232943 -0.18597617 4.25 -0.25 C5.03890625 -0.29640625 5.8278125 -0.3428125 6.640625 -0.390625 C9 0 9 0 11.28125 1.59375 C13.57184899 4.80058859 13.40596042 6.85098952 13.25 10.75 C13.21390625 11.92046875 13.1778125 13.0909375 13.140625 14.296875 C13.07101563 15.63492188 13.07101563 15.63492188 13 17 C13.66 16.67 14.32 16.34 15 16 C15.31241371 13.45058627 15.51303421 10.99638487 15.625 8.4375 C15.66367188 7.72658203 15.70234375 7.01566406 15.7421875 6.28320312 C15.83671783 4.52257575 15.91945817 2.76132272 16 1 C16.33 1 16.66 1 17 1 C17 7.27 17 13.54 17 20 C15.02 20 13.04 20 11 20 C10.67 14.06 10.34 8.12 10 2 C6.7 2 3.4 2 0 2 C-0.33 2.99 -0.66 3.98 -1 5 C-0.67 3.35 -0.34 1.7 0 0 Z " fill="#064C76" transform="translate(122,41)"/>
<path d="M0 0 C0.33 0 0.66 0 1 0 C1.06058594 0.77085938 1.12117188 1.54171875 1.18359375 2.3359375 C1.26738281 3.33882812 1.35117188 4.34171875 1.4375 5.375 C1.51871094 6.37273438 1.59992188 7.37046875 1.68359375 8.3984375 C1.84965626 10.97927613 1.84965626 10.97927613 3 13 C6.02934491 13.65772428 6.02934491 13.65772428 9 14 C9 15.65 9 17.3 9 19 C0.80743982 19.4726477 0.80743982 19.4726477 -2.5625 17.5 C-3.036875 17.005 -3.51125 16.51 -4 16 C-3.67 15.34 -3.34 14.68 -3 14 C-2.01 14.33 -1.02 14.66 0 15 C0 10.05 0 5.1 0 0 Z " fill="#0D5B8A" transform="translate(103,42)"/>
<path d="M0 0 C2.475 0.495 2.475 0.495 5 1 C5 3.64 5 6.28 5 9 C1.46448834 11.18906373 -1.45138074 11.26870816 -5.5625 11.25 C-6.69816406 11.25515625 -7.83382812 11.2603125 -9.00390625 11.265625 C-12 11 -12 11 -15 9 C-12.94077598 6.94077598 -8.78291876 7.58572421 -5.9375 7.4375 C-5.17888672 7.39431641 -4.42027344 7.35113281 -3.63867188 7.30664062 C-1.75934562 7.20026367 0.12030244 7.09960066 2 7 C2.16687448 4.58354218 2.16687448 4.58354218 2 2 C1.34 1.34 0.68 0.68 0 0 Z " fill="#006196" transform="translate(160,49)"/>
<path d="M0 0 C4 1 4 1 5 2 C5.09932392 4.31074168 5.12969618 6.62462942 5.125 8.9375 C5.12757812 10.20464844 5.13015625 11.47179688 5.1328125 12.77734375 C5 16 5 16 4 18 C3.01 18 2.02 18 1 18 C0.67 12.06 0.34 6.12 0 0 Z " fill="#1475B3" transform="translate(70,40)"/>
<path d="M0 0 C0.66 0.66 1.32 1.32 2 2 C1.01 3.485 1.01 3.485 0 5 C-0.33 4.67 -0.66 4.34 -1 4 C-3.13872208 3.71192723 -5.28709843 3.49385917 -7.4375 3.3125 C-8.61183594 3.20550781 -9.78617188 3.09851562 -10.99609375 2.98828125 C-14.11738449 2.64782257 -14.11738449 2.64782257 -16 5 C-16.33 4.34 -16.66 3.68 -17 3 C-19.32156597 2.59270772 -21.6568787 2.25561323 -24 2 C-24 1.67 -24 1.34 -24 1 C-6.18437556 -0.31445977 -6.18437556 -0.31445977 0 0 Z " fill="#096DA6" transform="translate(70,38)"/>
<path d="M0 0 C1.98 0 3.96 0 6 0 C6 4.29 6 8.58 6 13 C5.67 13 5.34 13 5 13 C5 9.7 5 6.4 5 3 C3.68 3 2.36 3 1 3 C1 8.28 1 13.56 1 19 C1.66 19 2.32 19 3 19 C2.67 19.99 2.34 20.98 2 22 C-0.38408552 19.61591448 -0.29104907 18.94512677 -0.44921875 15.68359375 C-0.49240234 14.83732422 -0.53558594 13.99105469 -0.58007812 13.11914062 C-0.63325195 11.79172852 -0.63325195 11.79172852 -0.6875 10.4375 C-0.73455078 9.54869141 -0.78160156 8.65988281 -0.83007812 7.74414062 C-1.05557288 2.89785179 -1.05557288 2.89785179 -1 1 C-0.67 0.67 -0.34 0.34 0 0 Z " fill="#0D5480" transform="translate(82,37)"/>
<path d="M0 0 C0.74958984 0.00451172 1.49917969 0.00902344 2.27148438 0.01367188 C4.11852383 0.02543646 5.96552213 0.04337135 7.8125 0.0625 C7.8125 1.0525 7.8125 2.0425 7.8125 3.0625 C5.20805652 3.11644705 2.60473002 3.15614469 0 3.1875 C-0.73798828 3.20425781 -1.47597656 3.22101562 -2.23632812 3.23828125 C-6.09996426 3.27324628 -7.89653668 3.25647555 -11.1875 1.0625 C-7.42449626 -0.19183458 -3.91539091 -0.04445422 0 0 Z " fill="#005E95" transform="translate(156.1875,37.9375)"/>
<path d="M0 0 C0.33 0 0.66 0 1 0 C1.48018293 6.24237805 1.48018293 6.24237805 -0.40625 9.21875 C-4.36449993 11.93706622 -8.0716965 11.42966897 -12.75 11.25 C-13.63816406 11.23195313 -14.52632812 11.21390625 -15.44140625 11.1953125 C-17.62870848 11.14827374 -19.81379816 11.08257009 -22 11 C-22.5625 9.0625 -22.5625 9.0625 -23 7 C-22 6 -22 6 -19.4375 5.9375 C-18.2309375 5.9684375 -18.2309375 5.9684375 -17 6 C-17.99 6.66 -18.98 7.32 -20 8 C-17.16239474 9.41880263 -14.72317025 9.1320472 -11.5625 9.125 C-10.40878906 9.12757812 -9.25507813 9.13015625 -8.06640625 9.1328125 C-4.95874333 9.13895922 -4.95874333 9.13895922 -2 8 C-1.19787372 6.12612784 -1.19787372 6.12612784 -0.8125 3.9375 C-0.65394531 3.20402344 -0.49539062 2.47054687 -0.33203125 1.71484375 C-0.16767578 0.86599609 -0.16767578 0.86599609 0 0 Z " fill="#0D4F74" transform="translate(166,50)"/>
<path d="M0 0 C2.475 0.495 2.475 0.495 5 1 C5 2.32 5 3.64 5 5 C5.81984375 4.96519531 6.6396875 4.93039063 7.484375 4.89453125 C8.56203125 4.86746094 9.6396875 4.84039062 10.75 4.8125 C12.35101563 4.76029297 12.35101563 4.76029297 13.984375 4.70703125 C17.30027855 5.02917214 18.59016673 5.77148914 21 8 C20.67 8.66 20.34 9.32 20 10 C19.47535156 9.51660156 18.95070312 9.03320312 18.41015625 8.53515625 C15.31413675 6.56313735 13.08411873 6.56610658 9.4375 6.4375 C3.31208659 6.20805773 3.31208659 6.20805773 0 4 C0 2.68 0 1.36 0 0 Z " fill="#085586" transform="translate(117,32)"/>
<path d="M0 0 C0.99 0 1.98 0 3 0 C2.67 5.28 2.34 10.56 2 16 C1.01 16.33 0.02 16.66 -1 17 C-0.67 11.39 -0.34 5.78 0 0 Z " fill="#0E74B1" transform="translate(118,39)"/>
<path d="M0 0 C1.2065625 0.0309375 1.2065625 0.0309375 2.4375 0.0625 C3.70332219 3.92973631 3.5493765 7.79401262 3.5 11.8125 C3.49548828 12.50988281 3.49097656 13.20726562 3.48632812 13.92578125 C3.4746002 15.63805803 3.45666653 17.35029033 3.4375 19.0625 C3.1075 19.0625 2.7775 19.0625 2.4375 19.0625 C2.4375 14.4425 2.4375 9.8225 2.4375 5.0625 C0.7875 5.0625 -0.8625 5.0625 -2.5625 5.0625 C-3.125 3.125 -3.125 3.125 -3.5625 1.0625 C-2.5625 0.0625 -2.5625 0.0625 0 0 Z " fill="#10567F" transform="translate(95.5625,36.9375)"/>
<path d="M0 0 C7.875 0.875 7.875 0.875 9 2 C9.07179964 3.51928038 9.08392007 5.04167482 9.0625 6.5625 C9.05347656 7.38878906 9.04445313 8.21507812 9.03515625 9.06640625 C9.02355469 9.70449219 9.01195312 10.34257813 9 11 C8.01 10.67 7.02 10.34 6 10 C5.938125 9.236875 5.87625 8.47375 5.8125 7.6875 C4.7452344 4.15731377 3.1524958 3.69749774 0 2 C0 1.34 0 0.68 0 0 Z " fill="#086BA9" transform="translate(24,47)"/>
<path d="M0 0 C1.65 0.33 3.3 0.66 5 1 C5.09765625 7.15234375 5.09765625 7.15234375 5 9 C4 10 4 10 2.15234375 10.09765625 C0.1015625 10.06510417 -1.94921875 10.03255208 -4 10 C-3.67 9.34 -3.34 8.68 -3 8 C-0.4375 7.375 -0.4375 7.375 2 7 C2.16687448 4.58354218 2.16687448 4.58354218 2 2 C1.34 1.34 0.68 0.68 0 0 Z " fill="#0069A7" transform="translate(160,49)"/>
<path d="M0 0 C0.33 0 0.66 0 1 0 C1 5.28 1 10.56 1 16 C2.32 15.67 3.64 15.34 5 15 C5.33 13.35 5.66 11.7 6 10 C6.33 10 6.66 10 7 10 C7.04241723 12.33294775 7.04092937 14.66702567 7 17 C6 18 6 18 3.5 18.125 C1 18 1 18 0 17 C-0.07325168 14.13732433 -0.09238205 11.299281 -0.0625 8.4375 C-0.05798828 7.63119141 -0.05347656 6.82488281 -0.04882812 5.99414062 C-0.03700518 3.99606244 -0.01906914 1.99802217 0 0 Z " fill="#0B4B73" transform="translate(54,43)"/>
<path d="M0 0 C0 0.99 0 1.98 0 3 C-1.98 3.33 -3.96 3.66 -6 4 C-6.33 7.96 -6.66 11.92 -7 16 C-7.33 16 -7.66 16 -8 16 C-8.24887295 13.89807303 -8.4734719 11.79326036 -8.6875 9.6875 C-8.81511719 8.51574219 -8.94273438 7.34398437 -9.07421875 6.13671875 C-9 3 -9 3 -7.71875 1.09375 C-5.16897335 -0.52883514 -2.94533963 -0.19635598 0 0 Z " fill="#0A6AA5" transform="translate(110,38)"/>
<path d="M0 0 C1.32 0 2.64 0 4 0 C4 2.64 4 5.28 4 8 C2.68 8.33 1.36 8.66 0 9 C0 6.03 0 3.06 0 0 Z " fill="#1172B3" transform="translate(83,40)"/>
<path d="M0 0 C0.74958984 0.00451172 1.49917969 0.00902344 2.27148438 0.01367188 C4.11852383 0.02543646 5.96552213 0.04337135 7.8125 0.0625 C7.8125 0.3925 7.8125 0.7225 7.8125 1.0625 C5.1725 1.3925 2.5325 1.7225 -0.1875 2.0625 C-0.1875 2.3925 -0.1875 2.7225 -0.1875 3.0625 C-1.46625 3.206875 -2.745 3.35125 -4.0625 3.5 C-6.44442894 3.76892746 -8.03202691 3.98476346 -10.1875 5.0625 C-10.5175 3.7425 -10.8475 2.4225 -11.1875 1.0625 C-7.42449626 -0.19183458 -3.91539091 -0.04445422 0 0 Z " fill="#066099" transform="translate(53.1875,37.9375)"/>
<path d="M0 0 C0 3.3 0 6.6 0 10 C-0.99 10.33 -1.98 10.66 -3 11 C-3 7.7 -3 4.4 -3 1 C-1 0 -1 0 0 0 Z " fill="#2171AB" transform="translate(60,48)"/>
<path d="M0 0 C1.65 0 3.3 0 5 0 C5 1.98 5 3.96 5 6 C3.35 6 1.7 6 0 6 C0 4.02 0 2.04 0 0 Z " fill="#2174B2" transform="translate(55,40)"/>
<path d="M0 0 C1.32 0 2.64 0 4 0 C4 1.65 4 3.3 4 5 C0.625 5.125 0.625 5.125 -3 5 C-3.66 4.34 -4.32 3.68 -5 3 C-3.35 2.67 -1.7 2.34 0 2 C0 1.34 0 0.68 0 0 Z " fill="#0F5581" transform="translate(90,56)"/>
<path d="M0 0 C1.45823212 -0.0270043 2.91660675 -0.04639787 4.375 -0.0625 C5.18710938 -0.07410156 5.99921875 -0.08570313 6.8359375 -0.09765625 C9 0 9 0 11 1 C11 3.64 11 6.28 11 9 C9 6 9 6 8.3125 3.875 C7.01973906 1.57184976 7.01973906 1.57184976 3.375 1.25 C2.26125 1.1675 1.1475 1.085 0 1 C0 0.67 0 0.34 0 0 Z " fill="#0271B2" transform="translate(125,39)"/>
<path d="M0 0 C1.91541138 -0.10841951 3.83259773 -0.18578079 5.75 -0.25 C6.81734375 -0.29640625 7.8846875 -0.3428125 8.984375 -0.390625 C12.63802112 0.08264522 13.72228105 1.19155042 16 4 C15.67 4.66 15.34 5.32 15 6 C14.38125 5.360625 13.7625 4.72125 13.125 4.0625 C8.86667102 1.25200287 5.00598862 1.19440733 0 1 C0 0.67 0 0.34 0 0 Z " fill="#135477" transform="translate(60,37)"/>
<path d="M0 0 C0.99 0 1.98 0 3 0 C3.33 2.64 3.66 5.28 4 8 C2.68 7.67 1.36 7.34 0 7 C0 4.69 0 2.38 0 0 Z " fill="#1272AD" transform="translate(145,40)"/>
<path d="M0 0 C0 0.99 0 1.98 0 3 C-4.95 2.67 -9.9 2.34 -15 2 C-15 1.67 -15 1.34 -15 1 C-13.25021843 0.83105557 -11.50016388 0.66493691 -9.75 0.5 C-8.77546875 0.4071875 -7.8009375 0.314375 -6.796875 0.21875 C-4.53697847 0.04199832 -2.26679807 0 0 0 Z " fill="#0567A0" transform="translate(164,38)"/>
<path d="M0 0 C0.66 0.33 1.32 0.66 2 1 C2 3.64 2 6.28 2 9 C1.34 9 0.68 9 0 9 C-1.76462683 5.91190305 -2 4.76687864 -2 1 C-1.34 0.67 -0.68 0.34 0 0 Z " fill="#4B7A99" transform="translate(12,40)"/>
<path d="M0 0 C0.99 0 1.98 0 3 0 C3 0.99 3 1.98 3 3 C3.66 3.33 4.32 3.66 5 4 C2.69 4 0.38 4 -2 4 C-1.34 2.68 -0.68 1.36 0 0 Z " fill="#066FAD" transform="translate(87,55)"/>
</svg>
