<?xml version="1.0" encoding="UTF-8"?>
<svg version="1.1" xmlns="http://www.w3.org/2000/svg" width="225" height="225">
<path d="M0 0 C74.25 0 148.5 0 225 0 C225 74.25 225 148.5 225 225 C150.75 225 76.5 225 0 225 C0 150.75 0 76.5 0 0 Z " fill="#FDFDFE" transform="translate(0,0)"/>
<path d="M0 0 C1.96621243 1.54490234 2.88997614 2.42927399 3.36889648 4.91357422 C3.36962158 5.6201416 3.37034668 6.32670898 3.37109375 7.0546875 C3.39719727 8.22451172 3.39719727 8.22451172 3.42382812 9.41796875 C3.43289914 11.04816017 3.43814477 12.67837762 3.43945312 14.30859375 C3.56667679 19.63443964 4.3287238 21.9333556 8 26 C8.72265625 28.5703125 8.72265625 28.5703125 9.0625 31.125 C9.56411222 34.83354875 10.0589497 36.6161271 13 39 C13.99 39.66 14.98 40.32 16 41 C16.98481424 44.05422565 17.71707553 47.12618893 18.44921875 50.25 C18.96097656 51.1575 19.47273438 52.065 20 53 C22.64 53.66 25.28 54.32 28 55 C28 66.22 28 77.44 28 89 C26.35 87.35 24.7 85.7 23 84 C19.19034681 80.29060084 15.34290868 77.54006098 10.625 75.0625 C1.75006167 70.38121385 -6.59208425 64.85242519 -10.03540039 55.0534668 C-11.39932158 50.14644739 -11.3623073 45.23910988 -11.40625 40.17578125 C-11.41765015 39.15195847 -11.42905029 38.12813568 -11.4407959 37.07328796 C-11.45961132 34.91926155 -11.47273007 32.76517867 -11.48046875 30.61108398 C-11.50000305 27.31198526 -11.56216635 24.0153181 -11.625 20.71679688 C-11.63805033 18.6198064 -11.64855509 16.52279821 -11.65625 14.42578125 C-11.6809436 13.44031815 -11.70563721 12.45485504 -11.7310791 11.43952942 C-11.71397496 8.82332743 -11.6418606 6.53654741 -11 4 C-7.53717567 0.83702425 -4.73775497 -0.89633202 0 0 Z " fill="#151A55" transform="translate(76,51)"/>
<path d="M0 0 C0.66 0 1.32 0 2 0 C7.28 10.23 12.56 20.46 18 31 C20.52750535 27.62999286 22.28421444 24.66356688 24.13671875 20.921875 C24.71357422 19.76171875 25.29042969 18.6015625 25.88476562 17.40625 C26.48576493 16.18754332 27.08667528 14.96879276 27.6875 13.75 C28.29975959 12.51544113 28.91238603 11.28106412 29.52539062 10.046875 C31.02054554 7.03301943 32.51193098 4.01735878 34 1 C34.99 1 35.98 1 37 1 C37.17390259 2.57467041 37.17390259 2.57467041 37.35131836 4.18115234 C37.78171368 8.06911976 38.21711813 11.9565125 38.65405273 15.84375 C38.84259947 17.52751617 39.02978017 19.21143589 39.21557617 20.89550781 C39.48258794 23.31356635 39.754478 25.73103346 40.02734375 28.1484375 C40.10967758 28.9036972 40.19201141 29.65895691 40.27684021 30.43710327 C40.67553057 34.34300087 40.67553057 34.34300087 42 38 C44.52733235 38.65555119 44.52733235 38.65555119 47 39 C47 39.33 47 39.66 47 40 C43.04 40 39.08 40 35 40 C34.86722656 38.38609375 34.73445313 36.7721875 34.59765625 35.109375 C34.41944246 32.9895689 34.24104761 30.86977801 34.0625 28.75 C33.93198242 27.15478516 33.93198242 27.15478516 33.79882812 25.52734375 C33.66831055 23.99013672 33.66831055 23.99013672 33.53515625 22.421875 C33.456604 21.47924805 33.37805176 20.53662109 33.29711914 19.56542969 C33.0253357 16.73495676 33.0253357 16.73495676 32 13 C27.71 21.58 23.42 30.16 19 39 C18.01 39 17.02 39 16 39 C14.02055654 35.20847777 12.04149209 31.41675784 10.0625 27.625 C9.49853516 26.54476562 8.93457031 25.46453125 8.35351562 24.3515625 C7.81533203 23.3203125 7.27714844 22.2890625 6.72265625 21.2265625 C6.22515869 20.27346191 5.72766113 19.32036133 5.21508789 18.33837891 C4.46640265 16.89756974 3.72614884 15.45229767 3 14 C1.76079748 16.47840505 1.69268965 18.46203224 1.46484375 21.2265625 C1.33432617 22.7734375 1.33432617 22.7734375 1.20117188 24.3515625 C1.0706543 25.97191406 1.0706543 25.97191406 0.9375 27.625 C0.84662109 28.71296875 0.75574219 29.8009375 0.66210938 30.921875 C0.43774049 33.61430157 0.21719886 36.30698709 0 39 C1.32 39.33 2.64 39.66 4 40 C0.04 40 -3.92 40 -8 40 C-7.01 39.34 -6.02 38.68 -5 38 C-4.33763429 35.61064215 -4.33763429 35.61064215 -4.12109375 32.79296875 C-3.94767456 31.20826782 -3.94767456 31.20826782 -3.77075195 29.59155273 C-3.66077881 28.46821533 -3.55080566 27.34487793 -3.4375 26.1875 C-3.19168136 23.91128745 -2.94429944 21.63524316 -2.6953125 19.359375 C-2.57833008 18.26302734 -2.46134766 17.16667969 -2.34082031 16.03710938 C-1.73773985 10.66295393 -0.90102867 5.33196963 0 0 Z " fill="#191D58" transform="translate(86,149)"/>
<path d="M0 0 C2.64 0 5.28 0 8 0 C10.04898287 4.21896866 10.21207997 7.65372146 10.125 12.3125 C10.10695313 13.56675781 10.08890625 14.82101563 10.0703125 16.11328125 C10.04710938 17.06589844 10.02390625 18.01851562 10 19 C12.64 19.33 15.28 19.66 18 20 C18.99 22.64 19.98 25.28 21 28 C22.32 25.36 23.64 22.72 25 20 C27.31 20 29.62 20 32 20 C31.06409496 21.1055189 30.12620142 22.20935453 29.1875 23.3125 C28.66542969 23.92738281 28.14335938 24.54226562 27.60546875 25.17578125 C26.12827531 26.85424679 24.59960869 28.43882034 23 30 C24.09898702 33.29696105 24.94597387 34.04670589 27.5625 36.1875 C28.20316406 36.71730469 28.84382813 37.24710938 29.50390625 37.79296875 C29.99761719 38.19128906 30.49132812 38.58960938 31 39 C28 40 28 40 25.875 38.9375 C20.04934604 37.03783023 13.5705418 40.00031833 8 42 C7.938125 41.401875 7.87625 40.80375 7.8125 40.1875 C7.1707855 37.75544324 7.1707855 37.75544324 4.5625 36.5625 C1.40321786 34.63610845 0.88839608 33.55358434 0 30 C-0.57624251 23.81297516 0.98532752 20.37690841 4.0625 15.25 C5.47897551 12.85720997 6.76040628 10.49677032 8 8 C6.86516076 4.59548229 6.44722063 4.3994436 3.4375 2.8125 C2.303125 2.214375 1.16875 1.61625 0 1 C0 0.67 0 0.34 0 0 Z " fill="#F7F6F7" transform="translate(84,54)"/>
<path d="M0 0 C4.29 0 8.58 0 13 0 C12.34 0.66 11.68 1.32 11 2 C10.50923663 6.56451173 10.62957869 11.16215711 10.625 15.75 C10.60050781 17.02617187 10.57601562 18.30234375 10.55078125 19.6171875 C10.39046164 28.66388185 10.39046164 28.66388185 15 36 C18.46806043 37.73403022 22.2080721 37.46579045 26 37 C29.42175626 35.10711356 30.65760804 33.84931772 32.11669922 30.22998047 C33.01013849 26.96292641 33.23011979 24.32161932 33.1953125 20.9453125 C33.18564453 19.28242188 33.18564453 19.28242188 33.17578125 17.5859375 C33.15902344 16.44382813 33.14226562 15.30171875 33.125 14.125 C33.11597656 12.9596875 33.10695312 11.794375 33.09765625 10.59375 C33.07417432 7.72895423 33.04133141 4.86458465 33 2 C31.68 1.34 30.36 0.68 29 0 C32.96 0 36.92 0 41 0 C40.01 0.66 39.02 1.32 38 2 C37.53838308 4.69497846 37.53838308 4.69497846 37.59375 7.85546875 C37.57183594 9.03560547 37.54992187 10.21574219 37.52734375 11.43164062 C37.51832031 12.67107422 37.50929687 13.91050781 37.5 15.1875 C37.38847785 30.26688819 37.38847785 30.26688819 34 36 C28.74203786 40.45783747 23.8110543 40.6123227 17.03515625 40.38671875 C13.06122939 39.8803883 10.86846523 38.79297931 8 36 C5.14573127 32.06996737 4.63200697 29.31483448 4.62890625 24.4921875 C4.60280273 22.64173828 4.60280273 22.64173828 4.57617188 20.75390625 C4.56702979 18.16016713 4.56184505 15.56641115 4.56054688 12.97265625 C4.54185547 11.74160156 4.52316406 10.51054687 4.50390625 9.2421875 C4.50205322 8.1166748 4.5002002 6.99116211 4.49829102 5.83154297 C4.23891088 2.46678332 4.23891088 2.46678332 0 0 Z " fill="#1A1F59" transform="translate(131,149)"/>
<path d="M0 0 C0.495 0.165 0.99 0.33 1.5 0.5 C1.5 2.81 1.5 5.12 1.5 7.5 C0.4790625 6.2625 0.4790625 6.2625 -0.5625 5 C-3.33290312 2.17462684 -3.33290312 2.17462684 -7.1875 2.0625 C-10.57357392 2.16795289 -10.57357392 2.16795289 -12.5 4.5 C-13.08442963 7.37237733 -13.08442963 7.37237733 -12.5 10.5 C-10.48246784 13.10454619 -10.48246784 13.10454619 -7.5 15.5 C-6.10185913 16.70566258 -4.70613744 17.91413468 -3.3125 19.125 C-2.63832031 19.69476563 -1.96414062 20.26453125 -1.26953125 20.8515625 C1.51472016 23.44528015 2.45936653 25.06115852 2.8125 28.875 C2.41298379 33.50938803 1.13578297 35.92843946 -2.19140625 39.125 C-5.3050137 40.9794667 -7.59027974 40.83056484 -11.1875 40.75 C-12.34636719 40.73453125 -13.50523438 40.7190625 -14.69921875 40.703125 C-17.5 40.5 -17.5 40.5 -18.5 39.5 C-18.64115161 36.82941149 -18.54247107 34.17567762 -18.5 31.5 C-16.9375 33.84375 -16.9375 33.84375 -15.375 36.1875 C-12.31664973 38.32834519 -9.1041385 38.03200381 -5.5 37.5 C-3.287019 36.62129086 -3.287019 36.62129086 -2.5 34.5 C-2.59833626 29.93282693 -3.05851702 27.99089787 -6.15234375 24.55078125 C-7.23258368 23.62053809 -8.32821832 22.7079132 -9.4375 21.8125 C-14.16925125 17.86660685 -17.13727134 15.35001091 -17.9375 9.0625 C-17.38713565 4.58096174 -15.94829737 3.29147883 -12.5 0.5 C-8.76025568 -1.36987216 -4.03209172 -0.80641834 0 0 Z " fill="#181D58" transform="translate(71.5,148.5)"/>
<path d="M0 0 C2.64 0 5.28 0 8 0 C10.04898287 4.21896866 10.21207997 7.65372146 10.125 12.3125 C10.10695313 13.56675781 10.08890625 14.82101563 10.0703125 16.11328125 C10.04710938 17.06589844 10.02390625 18.01851562 10 19 C12.64 19.33 15.28 19.66 18 20 C18.99 22.64 19.98 25.28 21 28 C22.32 25.36 23.64 22.72 25 20 C27.31 20 29.62 20 32 20 C31.06409496 21.1055189 30.12620142 22.20935453 29.1875 23.3125 C28.66542969 23.92738281 28.14335938 24.54226562 27.60546875 25.17578125 C26.12827531 26.85424679 24.59960869 28.43882034 23 30 C24.09898702 33.29696105 24.94597387 34.04670589 27.5625 36.1875 C28.20316406 36.71730469 28.84382813 37.24710938 29.50390625 37.79296875 C29.99761719 38.19128906 30.49132812 38.58960938 31 39 C28 40 28 40 25.67578125 39.0078125 C22.39383891 37.77169407 20.58372439 38.13846941 17.1875 38.875 C16.21167969 39.07867187 15.23585938 39.28234375 14.23046875 39.4921875 C13.12638672 39.74355469 13.12638672 39.74355469 12 40 C12.40992187 39.52949219 12.81984375 39.05898437 13.2421875 38.57421875 C13.78101562 37.95160156 14.31984375 37.32898438 14.875 36.6875 C15.40867187 36.07261719 15.94234375 35.45773438 16.4921875 34.82421875 C18.1640447 32.86501788 18.1640447 32.86501788 20 30 C14.64344063 23.86158464 14.64344063 23.86158464 7.5546875 20.625 C5.14131173 20.91098766 5.14131173 20.91098766 2 22 C3.31464466 17.61785113 5.07390466 13.80752769 7.29296875 9.83203125 C8.2932581 7.81879298 8.2932581 7.81879298 7 5 C5.37051936 3.77554716 5.37051936 3.77554716 3.4375 2.8125 C2.303125 2.214375 1.16875 1.61625 0 1 C0 0.67 0 0.34 0 0 Z " fill="#A18E76" transform="translate(84,54)"/>
<path d="M0 0 C0 1.98 0 3.96 0 6 C-4.51858597 8.25929298 -8.04662417 8.23967948 -13 8 C-13.99 7.67 -14.98 7.34 -16 7 C-18.67622658 6.95752021 -21.32647745 6.95381631 -24 7 C-25.32 7 -26.64 7 -28 7 C-26.125 3.125 -26.125 3.125 -25 2 C-23.55731672 1.93743704 -22.11165037 1.9405232 -20.66796875 1.97265625 C-19.78689453 1.98490234 -18.90582031 1.99714844 -17.99804688 2.00976562 C-16.13598575 2.04470353 -14.27399624 2.08371437 -12.41210938 2.12695312 C-11.52716797 2.13791016 -10.64222656 2.14886719 -9.73046875 2.16015625 C-8.91989014 2.17699463 -8.10931152 2.19383301 -7.27416992 2.21118164 C-4.62598462 1.96526857 -2.46298876 0 0 0 Z " fill="#988164" transform="translate(133,35)"/>
<path d="M0 0 C3.96 0 7.92 0 12 0 C11.01 0.66 10.02 1.32 9 2 C8.48987435 4.61196291 8.48987435 4.61196291 8.48828125 7.6640625 C8.45283203 8.78554687 8.41738281 9.90703125 8.38085938 11.0625 C8.34702148 12.8259375 8.34702148 12.8259375 8.3125 14.625 C8.27833984 15.80835938 8.24417969 16.99171875 8.20898438 18.2109375 C8.12629425 21.1405306 8.05721286 24.0698164 8 27 C7.01 27 6.02 27 5 27 C4.67 18.75 4.34 10.5 4 2 C2.68 1.34 1.36 0.68 0 0 Z " fill="#06094D" transform="translate(160,149)"/>
<path d="M0 0 C2.99220268 1.36370299 5.29026529 2.94908083 7.75 5.125 C8.67039062 5.93324219 8.67039062 5.93324219 9.609375 6.7578125 C10.06828125 7.16773437 10.5271875 7.57765625 11 8 C8 9 8 9 5.67578125 8.0078125 C2.39383891 6.77169407 0.58372439 7.13846941 -2.8125 7.875 C-3.78832031 8.07867187 -4.76414062 8.28234375 -5.76953125 8.4921875 C-6.50558594 8.65976563 -7.24164063 8.82734375 -8 9 C-7.04270084 7.87411986 -6.08412105 6.7493285 -5.125 5.625 C-4.59132813 4.99851562 -4.05765625 4.37203125 -3.5078125 3.7265625 C-2.38567993 2.44163349 -1.20628025 1.20628025 0 0 Z " fill="#131854" transform="translate(104,85)"/>
<path d="M0 0 C1.51400391 0.01740234 1.51400391 0.01740234 3.05859375 0.03515625 C4.07050781 0.04417969 5.08242187 0.05320313 6.125 0.0625 C7.29869141 0.07990234 7.29869141 0.07990234 8.49609375 0.09765625 C8.82609375 0.75765625 9.15609375 1.41765625 9.49609375 2.09765625 C9.16609375 2.75765625 8.83609375 3.41765625 8.49609375 4.09765625 C6.3515625 4.51171875 6.3515625 4.51171875 3.68359375 4.72265625 C2.81089844 4.79742187 1.93820313 4.8721875 1.0390625 4.94921875 C-1.13878118 5.07634327 -3.32235548 5.09765625 -5.50390625 5.09765625 C-3.09571996 0.12073791 -3.09571996 0.12073791 0 0 Z " fill="#89704D" transform="translate(110.50390625,36.90234375)"/>
<path d="M0 0 C3.03320748 1.51660374 3.69012609 3.94630889 5.1875 6.9375 C5.73792969 8.01902344 6.28835937 9.10054687 6.85546875 10.21484375 C7.23316406 11.13394531 7.61085938 12.05304688 8 13 C7.67 13.66 7.34 14.32 7 15 C4.69 14.01 2.38 13.02 0 12 C0 8.04 0 4.08 0 0 Z " fill="#1D205A" transform="translate(117,62)"/>
<path d="M0 0 C1.32 0 2.64 0 4 0 C5.98 4.29 7.96 8.58 10 13 C8.68 13 7.36 13 6 13 C4.99491199 11.21118264 3.99607264 9.41885304 3 7.625 C2.1646875 6.12839844 2.1646875 6.12839844 1.3125 4.6015625 C0 2 0 2 0 0 Z " fill="#1E245C" transform="translate(93,166)"/>
<path d="M0 0 C2.5 0.5 2.5 0.5 4 1 C4 3.31 4 5.62 4 8 C3.319375 7.175 2.63875 6.35 1.9375 5.5 C-0.82926736 2.72989743 -0.82926736 2.72989743 -4.5625 2.3125 C-8.26329292 2.6728905 -8.26329292 2.6728905 -10.4375 6 C-10.953125 6.99 -11.46875 7.98 -12 9 C-12.8125 7.3125 -12.8125 7.3125 -13 5 C-9.13558027 -0.48498285 -6.23617552 -0.59392148 0 0 Z " fill="#191E58" transform="translate(69,148)"/>
<path d="M0 0 C0.33 0 0.66 0 1 0 C1 3.63 1 7.26 1 11 C-1.31 11.66 -3.62 12.32 -6 13 C-4.58707905 8.1725201 -2.57025846 4.2837641 0 0 Z " fill="#8E7454" transform="translate(92,63)"/>
<path d="M0 0 C2.31 0 4.62 0 7 0 C6.0919838 1.13199353 5.17316174 2.25532363 4.25 3.375 C3.73953125 4.00148438 3.2290625 4.62796875 2.703125 5.2734375 C1 7 1 7 -3 9 C-2.01 6.03 -1.02 3.06 0 0 Z " fill="#2A2E63" transform="translate(109,74)"/>
<path d="M0 0 C0.33 0 0.66 0 1 0 C0.91291962 2.10494301 0.80474307 4.20902142 0.6875 6.3125 C0.62949219 7.48425781 0.57148437 8.65601563 0.51171875 9.86328125 C-0.01604768 13.0983686 -0.42380724 14.08684881 -3 16 C-3.24954005 14.56589632 -3.47392642 13.12739928 -3.6875 11.6875 C-3.81511719 10.88699219 -3.94273438 10.08648437 -4.07421875 9.26171875 C-4 7 -4 7 -2.5625 5.34375 C-1.7890625 4.67859375 -1.7890625 4.67859375 -1 4 C-0.28552357 1.89667109 -0.28552357 1.89667109 0 0 Z " fill="#2B2F62" transform="translate(122,150)"/>
<path d="M0 0 C2.70931419 0.15481795 4.46584039 0.48172081 6.4453125 2.40234375 C7.67679642 3.89771708 8.8429837 5.4462924 10 7 C7.0625 6.625 7.0625 6.625 4 6 C3.67 5.34 3.34 4.68 3 4 C0.47266765 3.34444881 0.47266765 3.34444881 -2 3 C-1.34 2.01 -0.68 1.02 0 0 Z " fill="#25295F" transform="translate(105,87)"/>
<path d="M0 0 C0.99 1.485 0.99 1.485 2 3 C3.99046391 5.58760309 4.89383398 5.97710145 8.1875 6.6875 C9.115625 6.790625 10.04375 6.89375 11 7 C11 7.33 11 7.66 11 8 C9.35492782 8.19406478 7.70890406 8.38007935 6.0625 8.5625 C4.68771484 8.71912109 4.68771484 8.71912109 3.28515625 8.87890625 C2.53105469 8.91886719 1.77695312 8.95882812 1 9 C0 8 0 8 -0.09765625 6.15234375 C-0.06510417 4.1015625 -0.03255208 2.05078125 0 0 Z " fill="#191C56" transform="translate(53,180)"/>
<path d="M0 0 C2.64 0 5.28 0 8 0 C8.33 1.65 8.66 3.3 9 5 C5.22454612 3.90931332 2.52956528 3.0916909 0 0 Z " fill="#907858" transform="translate(84,54)"/>
<path d="M0 0 C2.31 0 4.62 0 7 0 C4.45543849 2.96865509 1.51005335 4.3619751 -2 6 C-1.34 4.02 -0.68 2.04 0 0 Z " fill="#171B58" transform="translate(119,54)"/>
<path d="M0 0 C0.81210938 0.29003906 1.62421875 0.58007812 2.4609375 0.87890625 C3.27820313 1.16636719 4.09546875 1.45382813 4.9375 1.75 C5.56398437 1.97816406 6.19046875 2.20632812 6.8359375 2.44140625 C6.8359375 2.77140625 6.8359375 3.10140625 6.8359375 3.44140625 C-0.67175481 3.81063702 -0.67175481 3.81063702 -3.1640625 1.94140625 C-3.4940625 1.44640625 -3.8240625 0.95140625 -4.1640625 0.44140625 C-2.1640625 -0.55859375 -2.1640625 -0.55859375 0 0 Z " fill="#0F1352" transform="translate(146.1640625,185.55859375)"/>
<path d="M0 0 C0.99 0.33 1.98 0.66 3 1 C2.01 3.31 1.02 5.62 0 8 C-0.99 7.34 -1.98 6.68 -3 6 C-2.01 4.02 -1.02 2.04 0 0 Z " fill="#1D2159" transform="translate(112,166)"/>
<path d="M0 0 C1.9453125 -0.29296875 1.9453125 -0.29296875 4.125 -0.1875 C5.40375 -0.125625 6.6825 -0.06375 8 0 C8 0.33 8 0.66 8 1 C6.9275 1.226875 5.855 1.45375 4.75 1.6875 C0.62781299 3.13026545 -0.64414523 4.41910075 -3 8 C-2.45276317 4.62537285 -1.9451 2.91765 0 0 Z " fill="#0A0E4E" transform="translate(59,149)"/>
<path d="M0 0 C1.32 0.66 2.64 1.32 4 2 C3.01 2.99 2.02 3.98 1 5 C0.01 4.67 -0.98 4.34 -2 4 C-1.34 2.68 -0.68 1.36 0 0 Z " fill="#937C5D" transform="translate(107,38)"/>
<path d="M0 0 C0.66 0 1.32 0 2 0 C2.66 1.98 3.32 3.96 4 6 C3.34 5.67 2.68 5.34 2 5 C1.34 5.99 0.68 6.98 0 8 C0 5.36 0 2.72 0 0 Z " fill="#0B0F4E" transform="translate(86,149)"/>
<path d="M0 0 C0.33 0 0.66 0 1 0 C1 1.98 1 3.96 1 6 C-0.32 6.33 -1.64 6.66 -3 7 C-2.38722388 4.03824877 -1.74627478 2.61941217 0 0 Z " fill="#8B724F" transform="translate(132,35)"/>
</svg>
