<?xml version="1.0" encoding="UTF-8"?>
<svg version="1.1" xmlns="http://www.w3.org/2000/svg" width="500" height="278">
<path d="M0 0 C0.66 0 1.32 0 2 0 C9.64176056 15.70806337 16.68416306 31.67797563 23.74807739 47.65109253 C27.46115364 56.04699372 31.19075232 64.43552807 34.92111206 72.82376099 C36.63549471 76.67912159 38.3489753 80.53488302 40.0625 84.390625 C40.63671427 85.68261918 41.21093252 86.97461159 41.78515625 88.26660156 C42.18605469 89.16862305 42.58695313 90.07064453 43 91 C45.15142825 81.29355629 46.31304156 71.47845277 47.5625 61.625 C47.89376286 59.022599 48.22607654 56.42034948 48.56126404 53.81845093 C48.76844898 52.20940113 48.97336051 50.60005648 49.17567444 48.99038696 C49.6119019 45.59554525 50.1255095 42.30796863 51 39 C51.66 39 52.32 39 53 39 C53.11053207 39.62196259 53.22106415 40.24392517 53.33494568 40.88473511 C54.48300066 47.34130525 55.63537095 53.7970944 56.7902832 60.25244141 C57.22108578 62.66370078 57.65077687 65.07515901 58.0793457 67.48681641 C58.69452485 70.94746579 59.31365999 74.40738711 59.93359375 77.8671875 C60.22114784 79.49223709 60.22114784 79.49223709 60.51451111 81.15011597 C60.78467796 82.65144577 60.78467796 82.65144577 61.06030273 84.18310547 C61.21796616 85.06690887 61.37562958 85.95071228 61.53807068 86.86129761 C61.91559359 89.03810749 61.91559359 89.03810749 63 91 C77.69008404 61.08358828 77.69008404 61.08358828 91.87060547 30.92382812 C95.42525844 23.19949771 99.09524686 15.55392243 103 8 C103.66 8 104.32 8 105 8 C102.32509886 19.68818258 99.3846549 31.2792187 96.234375 42.84765625 C95.79144168 44.48239103 95.34875871 46.11719365 94.90631104 47.75205994 C93.75805079 51.99234343 92.60646231 56.23171556 91.45410156 60.47088623 C90.27201808 64.82182648 89.09319041 69.17364866 87.9140625 73.52539062 C85.61250341 82.01777794 83.3074163 90.50920224 81 99 C79.71037354 99.18973389 78.42074707 99.37946777 77.09204102 99.57495117 C75.37511481 99.8348071 73.65823919 100.09499739 71.94140625 100.35546875 C71.09437134 100.47917847 70.24733643 100.60288818 69.37463379 100.73034668 C52.37857667 103.33534216 36.64524726 111.70656785 26.3125 125.6875 C15.64693689 141.94567857 12.04188841 158.46991414 15.6875 177.609375 C18.08211651 187.74373417 22.33088904 196.74110764 27 206 C21.984375 213.10546875 16.96875 220.2109375 11.953125 227.31640625 C11.46497314 228.00798828 10.97682129 228.69957031 10.47387695 229.41210938 C9.4829563 230.81584524 8.49190599 232.21948958 7.50073242 233.62304688 C5.00919948 237.15153941 2.51985819 240.68153697 0.03515625 244.21484375 C-5.85591939 252.58616864 -11.80153336 260.91498456 -17.81225586 269.20092773 C-18.33053955 269.91579346 -18.84882324 270.63065918 -19.3828125 271.3671875 C-19.84059082 271.99737793 -20.29836914 272.62756836 -20.77001953 273.27685547 C-21.87812807 274.82926318 -22.94200855 276.41301282 -24 278 C-24.66 278 -25.32 278 -26 278 C-24.28473268 271.98134013 -21.393882 266.61188422 -18.5625 261.0625 C-13.03874702 250.12729925 -7.71024734 239.11182113 -2.45458984 228.04589844 C-0.86369527 224.71457908 0.74437147 221.39190639 2.35546875 218.0703125 C2.91105469 216.92232178 3.46664062 215.77433105 4.0390625 214.59155273 C5.12074418 212.35786084 6.20528571 210.12555112 7.29296875 207.89477539 C8.02 206.3903186 8.02 206.3903186 8.76171875 204.85546875 C9.19444092 203.96496826 9.62716309 203.07446777 10.07299805 202.15698242 C11.13161594 200.08504196 11.13161594 200.08504196 11 198 C-1.01081712 204.23388529 -12.96340364 210.55669501 -24.80126953 217.11425781 C-25.67122559 217.5934668 -26.54118164 218.07267578 -27.4375 218.56640625 C-28.19933594 218.98865479 -28.96117188 219.41090332 -29.74609375 219.84594727 C-32.11463982 221.05869827 -34.5160735 222.04908766 -37 223 C-35.68516427 220.08165783 -34.28366724 218.05079071 -31.98828125 215.828125 C-31.39917969 215.250625 -30.81007813 214.673125 -30.203125 214.078125 C-29.57921875 213.47484375 -28.9553125 212.8715625 -28.3125 212.25 C-22.7258902 206.79536338 -22.7258902 206.79536338 -17.5 201 C-12.10514526 194.61024997 -5.94508097 188.87087053 0 183 C-6.55727471 184.24450058 -13.01036 185.7051775 -19.45703125 187.43017578 C-20.78576515 187.7817424 -20.78576515 187.7817424 -22.14134216 188.14041138 C-24.04425058 188.64431873 -25.94679402 189.14960607 -27.84899902 189.65616226 C-30.85725819 190.45723115 -33.86648537 191.2545679 -36.87597656 192.05099487 C-43.25154599 193.73896414 -49.62581349 195.43181738 -56 197.125 C-63.41633117 199.09445334 -70.8331845 201.06191041 -78.25106812 203.02550888 C-81.21977395 203.81230172 -84.18766032 204.60213361 -87.15551758 205.39212036 C-88.96301686 205.87108917 -90.77055076 206.34992741 -92.578125 206.82861328 C-93.82014931 207.16052673 -93.82014931 207.16052673 -95.08726501 207.49914551 C-100.7724016 209 -100.7724016 209 -103 209 C-102 206 -102 206 -99.91577148 204.7800293 C-98.53240601 204.18315308 -98.53240601 204.18315308 -97.12109375 203.57421875 C-96.07187744 203.11499023 -95.02266113 202.65576172 -93.94165039 202.18261719 C-92.78528076 201.68922852 -91.62891113 201.19583984 -90.4375 200.6875 C-88.58809185 199.88232558 -86.73868741 199.07714258 -84.88945007 198.27157593 C-82.92499024 197.41797386 -80.95841301 196.56942953 -78.99121094 195.72216797 C-73.15867067 193.20877903 -67.34294861 190.65698959 -61.52542114 188.10910034 C-59.5551349 187.24677656 -57.58417178 186.38601723 -55.61303711 185.52563477 C-39.37215419 178.43304502 -23.18695242 171.2146106 -7 164 C-8.03705078 163.86424561 -9.07410156 163.72849121 -10.14257812 163.58862305 C-14.07204426 163.07303423 -18.00071628 162.55158733 -21.92919922 162.02856445 C-23.6142165 161.80501563 -25.29943224 161.58295644 -26.98486328 161.36254883 C-38.06617445 159.91213273 -49.03947818 158.1877308 -60 156 C-60 155.34 -60 154.68 -60 154 C-59.36550934 153.88946793 -58.73101868 153.77893585 -58.07730103 153.66505432 C-51.49097533 152.51704445 -44.9054246 151.3646672 -38.3203125 150.2097168 C-35.86054897 149.77890066 -33.40058812 149.34920959 -30.94042969 148.9206543 C-27.41028563 148.30551034 -23.88086417 147.68636256 -20.3515625 147.06640625 C-18.69370224 146.77885216 -18.69370224 146.77885216 -17.00234985 146.48548889 C-15.47098892 146.21532204 -15.47098892 146.21532204 -13.90869141 145.93969727 C-13.00712311 145.78203384 -12.10555481 145.62437042 -11.17666626 145.46192932 C-8.96714539 145.08848599 -8.96714539 145.08848599 -7 144 C-7.66717041 143.69408936 -8.33434082 143.38817871 -9.02172852 143.07299805 C-24.75011221 135.85457979 -40.41243539 128.51823323 -56 121 C-56 120.34 -56 119.68 -56 119 C-43.83408954 120.22302804 -31.75061081 121.84540416 -19.66113281 123.67871094 C-14.05251597 124.51002456 -8.67235756 125.24915187 -3 125 C-3.73766602 124.5035498 -3.73766602 124.5035498 -4.49023438 123.99707031 C-13.84870144 117.6842325 -23.09388482 111.28055123 -32.08251953 104.44995117 C-37.46444424 100.37036395 -42.95253069 96.46124181 -48.48242188 92.58544922 C-56.04815038 87.27936552 -63.53887416 81.87018349 -71.00878906 76.43017578 C-72.3534064 75.46441213 -73.71000563 74.5151466 -75.07714844 73.58154297 C-76.75041564 72.43342812 -78.38015164 71.22232652 -80 70 C-80 69.34 -80 68.68 -80 68 C-72.51383908 70.25053689 -65.81904605 73.43465839 -58.875 77 C-56.54378071 78.18129123 -54.21173422 79.3609513 -51.87890625 80.5390625 C-50.71762207 81.1259082 -49.55633789 81.71275391 -48.35986328 82.31738281 C-43.53958426 84.73137518 -38.68220069 87.06268944 -33.8125 89.375 C-24.20927689 93.93857559 -14.63146635 98.55264503 -5.0625 103.1875 C-4.00792099 103.69818024 -4.00792099 103.69818024 -2.93203735 104.21917725 C1.04565259 106.14540832 5.02299304 108.07235909 9 110 C7.82718694 106.48156081 6.13811264 103.35149751 4.39453125 100.09375 C4.03284348 99.41380981 3.6711557 98.73386963 3.29850769 98.0333252 C2.1386641 95.85439218 0.97556163 93.67721667 -0.1875 91.5 C-0.95137158 90.06521047 -1.7150455 88.63031569 -2.47851562 87.1953125 C-3.22905103 85.78639673 -3.97970083 84.37754188 -4.73046875 82.96875 C-5.096633 82.28095459 -5.46279724 81.59315918 -5.84005737 80.88452148 C-8.48858958 75.92245457 -11.21129283 71.00561095 -13.99731445 66.11914062 C-15 64 -15 64 -15 61 C-14.34 61 -13.68 61 -13 61 C-11.55908203 62.47973633 -11.55908203 62.47973633 -9.8828125 64.51953125 C-6.15155427 68.90544694 -2.10833504 72.79253965 2.125 76.6875 C9.58922429 83.62776084 16.84973489 90.7378177 24 98 C22.63450436 89.21141227 20.44417853 80.67740382 18.14575195 72.09829712 C17.48564432 69.6339057 16.83104246 67.16810642 16.17773438 64.7019043 C14.78989465 59.46667069 13.39545781 54.23320738 12 49 C10.38092082 42.92817394 8.76467077 36.85562337 7.15551758 30.78115845 C6.51535719 28.37033468 5.87011072 25.96091189 5.22460938 23.55151367 C3.14927982 15.75252474 1.24049173 7.98403899 0 0 Z " fill="#425E6A" transform="translate(103,0)"/>
<path d="M0 0 C0.99 0 1.98 0 3 0 C4.75342789 4.2069114 6.5024741 8.41563442 8.25 12.625 C8.64916626 13.58540695 8.64916626 13.58540695 9.05639648 14.56521606 C12.20725051 22.15163893 15.31615287 29.75179509 18.328125 37.39453125 C18.59594788 38.07235657 18.86377075 38.75018188 19.13970947 39.44854736 C20.43180144 42.72029086 21.71640654 45.99464951 22.98925781 49.27392578 C23.45686523 50.46099121 23.92447266 51.64805664 24.40625 52.87109375 C24.81166016 53.91193115 25.21707031 54.95276855 25.63476562 56.02514648 C27.82833824 60.81622072 27.82833824 60.81622072 31 65 C34.3 65.66 37.6 66.32 41 67 C41 46.87 41 26.74 41 6 C38.69 5.34 36.38 4.68 34 4 C34.33 3.01 34.66 2.02 35 1 C38.98352168 0.95012925 42.9669195 0.91406036 46.95068359 0.89013672 C48.96328119 0.87527121 50.97579188 0.849843 52.98828125 0.82421875 C62.52657444 0.77628763 70.22862065 0.85518842 78 7 C81.86845403 11.40203389 82.40158218 15.53656239 82.3515625 21.23046875 C81.53305737 27.6784703 78.04396008 33.8901066 73 38 C75.42561473 43.32422434 79.27034657 47.54306415 83 52 C83.8146875 52.97582031 84.629375 53.95164063 85.46875 54.95703125 C86.3040625 55.91996094 87.139375 56.88289063 88 57.875 C88.763125 58.75929687 89.52625 59.64359375 90.3125 60.5546875 C93.56095445 63.73241597 93.56095445 63.73241597 101 67 C101 46.87 101 26.74 101 6 C99.35 5.34 97.7 4.68 96 4 C96 3.01 96 2.02 96 1 C103.26 1 110.52 1 118 1 C118.33 1.99 118.66 2.98 119 4 C117.02 4.33 115.04 4.66 113 5 C112.9745906 12.41983304 112.95710812 19.83965479 112.94506836 27.25952148 C112.94004772 29.78231221 112.9332299 32.30510004 112.92456055 34.82788086 C112.91239558 38.45947994 112.9067489 42.09104047 112.90234375 45.72265625 C112.89718246 46.84583755 112.89202118 47.96901886 112.88670349 49.12623596 C112.76799539 57.13771641 112.76799539 57.13771641 114 65 C115.32 65.66 116.64 66.32 118 67 C118 62.38 118 57.76 118 53 C118.99 53 119.98 53 121 53 C121.4021875 54.8871875 121.4021875 54.8871875 121.8125 56.8125 C122.60958408 59.98960977 123.18544981 62.08610587 126 64 C131.30340061 65.7678002 136.93575253 65.92680499 142.0625 63.625 C144.23340941 61.80423727 144.89670385 60.84668974 145.23828125 58.046875 C145.26277344 57.28890625 145.28726563 56.5309375 145.3125 55.75 C145.34988281 55.00234375 145.38726562 54.2546875 145.42578125 53.484375 C144.33727619 47.13309778 139.38914867 43.34665763 134.625 39.5625 C120.68775639 28.13283455 120.68775639 28.13283455 119.62890625 20.23046875 C119.50346937 14.48250804 119.41892612 9.87736513 123.3359375 5.40234375 C130.12164894 -0.31613139 137.43614594 -0.68197793 146 0 C148.31 0.33 150.62 0.66 153 1 C153 5.95 153 10.9 153 16 C152.01 16 151.02 16 150 16 C149.773125 14.906875 149.54625 13.81375 149.3125 12.6875 C148.31292279 9.01667672 148.31292279 9.01667672 146 7.0625 C141.61663706 5.51005896 137.59509543 5.33359493 133 6 C130.18573025 7.23077315 130.18573025 7.23077315 129 10 C128.25438796 13.19195897 128.21346341 15.81045852 129 19 C131.99596733 23.55616757 136.7647502 26.6088786 141 29.9375 C147.15316221 34.78686717 153.46238432 39.97022923 155 48 C155.51255504 53.5355944 154.77258575 58.18702544 152 63 C148.21618394 67.32845625 144.53049694 69.4349661 139 71 C135.78540039 71.20410156 135.78540039 71.20410156 132.28515625 71.140625 C130.96789551 71.12193359 129.65063477 71.10324219 128.29345703 71.08398438 C127.59536926 71.06972412 126.89728149 71.05546387 126.17803955 71.04077148 C123.95436801 70.9991458 121.73132234 70.97845352 119.50732422 70.96289062 C115.60988182 70.93296943 111.71389441 70.87066545 107.81713867 70.79248047 C106.21471524 70.76387457 104.6121403 70.74286265 103.00952148 70.72900391 C100.65017251 70.70756178 98.29245098 70.66103995 95.93359375 70.609375 C95.22416122 70.60814636 94.5147287 70.60691772 93.78379822 70.60565186 C87.7952734 70.42989762 84.28841018 68.19210435 80.05078125 64.1328125 C79.47714844 63.47023437 78.90351563 62.80765625 78.3125 62.125 C77.63445312 61.35414063 76.95640625 60.58328125 76.2578125 59.7890625 C74.54360831 57.67151615 72.97803942 55.56938055 71.4296875 53.3359375 C70.97553467 52.70284668 70.52138184 52.06975586 70.0534668 51.41748047 C69.16376634 50.16856047 68.30136652 48.89958919 67.47192383 47.60986328 C66.05331032 45.50601481 66.05331032 45.50601481 63 43 C59.37 42.67 55.74 42.34 52 42 C52.33 49.59 52.66 57.18 53 65 C55.64 65.99 58.28 66.98 61 68 C60.67 68.66 60.34 69.32 60 70 C45.81 70 31.62 70 17 70 C16.505 65.545 16.505 65.545 16 61 C15.05510377 58.25953917 14.09818806 55.69895849 12.9375 53.0625 C10 46.19937071 10 46.19937071 10 44 C3.73 44.33 -2.54 44.66 -9 45 C-9.969375 47.701875 -10.93875 50.40375 -11.9375 53.1875 C-12.24163818 54.02949951 -12.54577637 54.87149902 -12.85913086 55.73901367 C-14.18644359 59.46994652 -15.37822828 63.0726065 -16 67 C-14.35 67 -12.7 67 -11 67 C-11 67.99 -11 68.98 -11 70 C-31.79 70 -52.58 70 -74 70 C-74 69.01 -74 68.02 -74 67 C-72.35 67 -70.7 67 -69 67 C-69 46.87 -69 26.74 -69 6 C-71.31 5.34 -73.62 4.68 -76 4 C-75.67 3.01 -75.34 2.02 -75 1 C-66.75 1 -58.5 1 -50 1 C-50 1.99 -50 2.98 -50 4 C-52.31 4.33 -54.62 4.66 -57 5 C-57.02544981 11.83186036 -57.04290873 18.66370839 -57.05493164 25.49560547 C-57.05994629 27.81755022 -57.06675963 30.13949184 -57.07543945 32.46142578 C-57.08763092 35.80762508 -57.09325712 39.15378246 -57.09765625 42.5 C-57.10281754 43.5305249 -57.10797882 44.5610498 -57.11329651 45.62280273 C-57.11372396 51.17118322 -56.96879746 56.52849169 -56 62 C-53.01589729 64.67443167 -49.36223169 64.26771666 -45.5 64.25 C-43.81390625 64.25773437 -43.81390625 64.25773437 -42.09375 64.265625 C-39.10899398 64.00935807 -37.43000246 63.7146279 -35 62 C-33.70768358 58.95800528 -33.70768358 58.95800528 -33 56 C-32.01 56 -31.02 56 -30 56 C-29.85714286 63.42857143 -29.85714286 63.42857143 -31 67 C-28.05775137 66.09400206 -26.37871322 65.53021698 -24.56092834 62.98522949 C-24.19156662 62.17477173 -23.8222049 61.36431396 -23.44165039 60.52929688 C-23.0285965 59.63009521 -22.6155426 58.73089355 -22.18997192 57.80444336 C-20.3283319 53.41705916 -18.58741381 49.00096647 -16.93359375 44.53125 C-16.57282242 43.57029419 -16.21205109 42.60933838 -15.84034729 41.6192627 C-14.7009329 38.58140004 -13.56892675 35.54084547 -12.4375 32.5 C-11.3009728 29.45974742 -10.16289313 26.42008225 -9.02394104 23.3807373 C-8.31983582 21.50028557 -7.61735646 19.61922388 -6.91685486 17.73742676 C-4.69695749 11.78935659 -2.3827519 5.88470281 0 0 Z M52 6 C52 15.9 52 25.8 52 36 C56.19111165 38.09555583 61.44766121 37.55842023 66 37 C68.97361086 34.78436838 70.36959793 33.26080415 72 30 C72.93229272 18.69076651 72.93229272 18.69076651 68 9 C62.48918994 4.93249733 59.5893658 6 52 6 Z M-1 18 C-2.00736628 20.93502595 -3.00460504 23.87339461 -4 26.8125 C-4.42925781 28.06256836 -4.42925781 28.06256836 -4.8671875 29.33789062 C-5.13789063 30.14033203 -5.40859375 30.94277344 -5.6875 31.76953125 C-6.06455078 32.87711792 -6.06455078 32.87711792 -6.44921875 34.00708008 C-7.13319151 36.13732879 -7.13319151 36.13732879 -7 39 C-2.05 39.33 2.9 39.66 8 40 C5.8262084 32.60910856 3.46996624 25.29705763 1 18 C0.34 18 -0.32 18 -1 18 Z " fill="#47626D" transform="translate(330,132)"/>
<path d="M0 0 C7.16639131 6.15203078 11.55425183 13.45939785 12.3125 22.9375 C12.7122098 34.32922929 10.54074289 44.03326579 3.0390625 52.84375 C-5.17348879 61.02384061 -14.43689833 64.05742586 -25.875 64.25 C-36.25126846 64.17242948 -45.46114179 61.2068806 -52.9375 53.8125 C-59.7854488 45.42376272 -63.50165866 36.0663865 -62.7578125 25.18359375 C-61.28477462 14.61680164 -56.53579238 6.23919339 -48.30859375 -0.53125 C-34.22524813 -10.36871053 -13.94070922 -10.0242558 0 0 Z M-44.8125 4.71484375 C-51.97844522 13.68950111 -51.91064505 23.82417417 -50.9375 34.8125 C-49.29120297 43.24114646 -45.09898771 50.16660314 -38.03515625 55.15625 C-31.13059378 59.24351742 -24.8006302 59.57373698 -16.9375 58.8125 C-10.02492135 56.88187517 -5.65516928 53.36511371 -2.0546875 47.19140625 C2.63671451 37.2016726 2.18903204 25.58182887 -1.03515625 15.2109375 C-3.72932015 8.04982653 -9.43094724 2.08084846 -16.2734375 -1.36328125 C-26.27214103 -4.45672179 -37.36401084 -2.84226921 -44.8125 4.71484375 Z " fill="#4B6570" transform="translate(247.9375,139.1875)"/>
<path d="M0 0 C8.25 0 16.5 0 25 0 C25 0.99 25 1.98 25 3 C22.69 3.33 20.38 3.66 18 4 C17.97455019 10.83186036 17.95709127 17.66370839 17.94506836 24.49560547 C17.94005371 26.81755022 17.93324037 29.13949184 17.92456055 31.46142578 C17.91236908 34.80762508 17.90674288 38.15378246 17.90234375 41.5 C17.89718246 42.5305249 17.89202118 43.5610498 17.88670349 44.62280273 C17.88627604 50.17118322 18.03120254 55.52849169 19 61 C21.98410271 63.67443167 25.63776831 63.26771666 29.5 63.25 C31.18609375 63.25773437 31.18609375 63.25773437 32.90625 63.265625 C35.89100602 63.00935807 37.56999754 62.7146279 40 61 C41.29231642 57.95800528 41.29231642 57.95800528 42 55 C42.99 55 43.98 55 45 55 C45.14285714 62.42857143 45.14285714 62.42857143 44 66 C47.60543248 64.85924278 47.60543248 64.85924278 50.30737305 62.34228516 C54.70746974 52.91667586 58.21236396 43.12661701 61.8125 33.375 C62.51185741 31.49329907 63.21172291 29.6117869 63.91210938 27.73046875 C65.61394282 23.15580258 67.30886544 18.57863148 69 14 C69.99 14.99 70.98 15.98 72 17 C73.32 16.34 74.64 15.68 76 15 C76 15.66 76 16.32 76 17 C75.34 17 74.68 17 74 17 C73.62875 18.85625 73.62875 18.85625 73.25 20.75 C71.95181648 26.64826858 69.98560032 32.30344763 68 38 C70.29160319 38.02692484 72.58329546 38.04636124 74.875 38.0625 C76.78925781 38.07990234 76.78925781 38.07990234 78.7421875 38.09765625 C81.88664652 38.23176569 81.88664652 38.23176569 84 37 C84.33 37.99 84.66 38.98 85 40 C79.06 40 73.12 40 67 40 C67 40.66 67 41.32 67 42 C68.485 42.495 68.485 42.495 70 43 C69.06160278 43.13486816 69.06160278 43.13486816 68.10424805 43.27246094 C65.89999291 43.78684181 65.89999291 43.78684181 65.01098633 45.59472656 C64.78693115 46.26987305 64.56287598 46.94501953 64.33203125 47.640625 C64.07873047 48.38183594 63.82542969 49.12304688 63.56445312 49.88671875 C63.31630859 50.66660156 63.06816406 51.44648438 62.8125 52.25 C62.55275391 53.01441406 62.29300781 53.77882812 62.02539062 54.56640625 C60.76216653 58.3462861 59.65419724 62.05905276 59 66 C60.65 66 62.3 66 64 66 C64 66.99 64 67.98 64 69 C43.21 69 22.42 69 1 69 C1 68.01 1 67.02 1 66 C2.65 66 4.3 66 6 66 C6 45.87 6 25.74 6 5 C3.69 4.34 1.38 3.68 -1 3 C-0.67 2.01 -0.34 1.02 0 0 Z " fill="#3D5965" transform="translate(255,133)"/>
<path d="M0 0 C0.02693575 2.12493141 0.04636628 4.24995912 0.0625 6.375 C0.07410156 7.55835938 0.08570313 8.74171875 0.09765625 9.9609375 C0 13 0 13 -1 15 C-1.66 15 -2.32 15 -3 15 C-3.34611328 14.06027344 -3.34611328 14.06027344 -3.69921875 13.1015625 C-5.57278106 8.12623721 -5.57278106 8.12623721 -9.1875 4.4375 C-14.39714952 3.62711007 -19.03860365 3.12363142 -23.9375 5.3125 C-26.33564882 7.27462177 -27.82434066 8.92766098 -28.3359375 12.05078125 C-28.34882813 12.79714844 -28.36171875 13.54351562 -28.375 14.3125 C-28.40335938 15.05113281 -28.43171875 15.78976563 -28.4609375 16.55078125 C-27.22906136 23.0964282 -21.94923065 27.07175579 -17.0625 31.0625 C-0.10634196 45.10572315 -0.10634196 45.10572315 2 56 C2.25479554 62.41888772 1.09683496 67.96815165 -3 73 C-8.99185886 79.16264818 -14.55057345 81.31580431 -23.078125 81.97265625 C-29.11611155 82.02916147 -34.68231761 80.8708217 -40 78 C-40.02691685 75.54159395 -40.04679802 73.08348118 -40.0625 70.625 C-40.07087891 69.92632812 -40.07925781 69.22765625 -40.08789062 68.5078125 C-40.11328125 63.2265625 -40.11328125 63.2265625 -39 61 C-38.34 61 -37.68 61 -37 61 C-36.82984375 61.68707031 -36.6596875 62.37414062 -36.484375 63.08203125 C-36.24203125 63.98308594 -35.9996875 64.88414062 -35.75 65.8125 C-35.51796875 66.70582031 -35.2859375 67.59914063 -35.046875 68.51953125 C-33.81912644 71.42856235 -32.68546164 72.39982831 -30 74 C-24.12089163 75.95970279 -18.04108232 75.96682847 -12.4375 73.3125 C-8.80024593 69.86177178 -8.13645879 67.50104668 -7.6875 62.5625 C-8.02868529 58.67298771 -9.08681791 56.36720047 -11 53 C-11.33 52.01 -11.66 51.02 -12 50 C-13.31159538 49.29152291 -14.64865417 48.62935416 -16 48 C-17.21367418 47.01615279 -18.3900738 45.98505696 -19.53125 44.91796875 C-20.17707031 44.31533203 -20.82289063 43.71269531 -21.48828125 43.09179688 C-22.48408203 42.14916992 -22.48408203 42.14916992 -23.5 41.1875 C-24.16386719 40.57068359 -24.82773438 39.95386719 -25.51171875 39.31835938 C-31.89776538 33.32108404 -37.04045203 28.19066928 -37.96484375 19.1484375 C-38.06638127 12.94336701 -35.98474431 7.73861485 -32 3 C-22.61056577 -3.85056623 -10.71665087 -3.36208655 0 0 Z " fill="#48636D" transform="translate(183,122)"/>
<path d="M0 0 C2.625 -0.1875 2.625 -0.1875 5 0 C4.38145533 2.70776807 3.55267885 5.14782372 2.46484375 7.69921875 C0.78708615 12.11905184 0.49827054 16.11616318 0.5625 20.8125 C0.57079834 21.59931152 0.57909668 22.38612305 0.58764648 23.19677734 C0.89627016 33.89207055 4.18514593 41.62124269 12 49 C13.65975389 50.34192868 15.32346641 51.67909475 17 53 C17 53.66 17 54.32 17 55 C18.65 55.66 20.3 56.32 22 57 C22 57.33 22 57.66 22 58 C13.70460906 58.82953909 7.94410879 56.54558653 1 52 C-7.02601142 45.00960296 -10.45415381 36.71200814 -11.81640625 26.3203125 C-12.20736526 19.2497772 -11.01548054 11.94886006 -7 6 C-4.4375 4.3125 -4.4375 4.3125 -2 3 C-1.34 2.01 -0.68 1.02 0 0 Z " fill="#49636E" transform="translate(197,144)"/>
<path d="M0 0 C2.64 0 5.28 0 8 0 C8 0.99 8 1.98 8 3 C7.34 3 6.68 3 6 3 C6.14033111 4.97956441 6.2874123 6.95865141 6.4375 8.9375 C6.51871094 10.03964844 6.59992188 11.14179688 6.68359375 12.27734375 C6.70418084 14.91109903 6.70418084 14.91109903 8 16 C9.66617115 16.04063832 11.33388095 16.042721 13 16 C14.28446919 13.43106162 14.32977144 11.23423663 14.5625 8.375 C14.64628906 7.37210938 14.73007812 6.36921875 14.81640625 5.3359375 C14.87699219 4.56507813 14.93757813 3.79421875 15 3 C14.01 3 13.02 3 12 3 C12 2.01 12 1.02 12 0 C14.91722548 -0.08103404 17.83219516 -0.14051081 20.75 -0.1875 C21.575 -0.21263672 22.4 -0.23777344 23.25 -0.26367188 C29.42297754 -0.33834499 29.42297754 -0.33834499 32.578125 1.51171875 C33.04734375 2.00285156 33.5165625 2.49398437 34 3 C33.67 5.31 33.34 7.62 33 10 C32.34 10 31.68 10 31 10 C31.78345715 11.17219543 32.57702836 12.33763668 33.375 13.5 C33.81585938 14.1496875 34.25671875 14.799375 34.7109375 15.46875 C35.34902344 16.22671875 35.34902344 16.22671875 36 17 C36.66 17 37.32 17 38 17 C38.33 12.38 38.66 7.76 39 3 C38.01 2.67 37.02 2.34 36 2 C36 1.34 36 0.68 36 0 C40.62 0 45.24 0 50 0 C49.67 4.29 49.34 8.58 49 13 C47.02 12.34 45.04 11.68 43 11 C43 12.98 43 14.96 43 17 C45.47266765 16.65555119 45.47266765 16.65555119 48 16 C48.33 15.34 48.66 14.68 49 14 C49.99 14 50.98 14 52 14 C51.67 15.98 51.34 17.96 51 20 C48.10190611 20.16250994 45.21295149 20.28107636 42.3125 20.375 C41.08756836 20.45041016 41.08756836 20.45041016 39.83789062 20.52734375 C33.88304228 20.67199594 33.88304228 20.67199594 31.30224609 18.70800781 C28 14.8757716 28 14.8757716 28 12 C27.34 12 26.68 12 26 12 C26 13.98 26 15.96 26 18 C26.66 18 27.32 18 28 18 C28 18.66 28 19.32 28 20 C25.36 20 22.72 20 20 20 C20 19.34 20 18.68 20 18 C20.66 18 21.32 18 22 18 C22 13.05 22 8.1 22 3 C20.35 3 18.7 3 17 3 C17.05220703 4.33804688 17.05220703 4.33804688 17.10546875 5.703125 C17.13253906 6.87359375 17.15960938 8.0440625 17.1875 9.25 C17.23970703 10.99023438 17.23970703 10.99023438 17.29296875 12.765625 C16.97599034 16.26506664 16.55449259 17.62386162 14 20 C9.44390728 20.65087039 7.27534979 20.89274485 3.5 18.25 C1.20224174 13.27152376 1.69022167 8.39530594 2 3 C1.34 3 0.68 3 0 3 C0 2.01 0 1.02 0 0 Z M26 3 C26 5.31 26 7.62 26 10 C27.32 9.34 28.64 8.68 30 8 C29.67 6.35 29.34 4.7 29 3 C28.01 3 27.02 3 26 3 Z M43 3 C43 4.98 43 6.96 43 9 C44.32 8.67 45.64 8.34 47 8 C47.33 6.68 47.66 5.36 48 4 C46.35 3.67 44.7 3.34 43 3 Z " fill="#8B9EA7" transform="translate(433,213)"/>
<path d="M0 0 C2.475 1.485 2.475 1.485 5 3 C5.33 2.01 5.66 1.02 6 0 C6.33 0.66 6.66 1.32 7 2 C5.35 3.98 3.7 5.96 2 8 C6.83906573 18.62174929 16.75947495 27.91948514 25 36 C24.34 36 23.68 36 23 36 C22.505 36.99 22.505 36.99 22 38 C32.23 38.33 42.46 38.66 53 39 C53 39.33 53 39.66 53 40 C47.98296821 40.09922625 42.96651348 40.17163587 37.94873047 40.21972656 C36.24355106 40.23978369 34.53843994 40.26703657 32.83349609 40.30175781 C30.37580476 40.35053861 27.91902634 40.37302719 25.4609375 40.390625 C24.70444916 40.41127014 23.94796082 40.43191528 23.16854858 40.45318604 C17.02755772 40.45576185 13.52076631 38.41468195 9.05078125 34.1328125 C8.47714844 33.47023437 7.90351563 32.80765625 7.3125 32.125 C6.29542969 30.96871094 6.29542969 30.96871094 5.2578125 29.7890625 C3.54360831 27.67151615 1.97803942 25.56938055 0.4296875 23.3359375 C-4.22528819 16.25118587 -4.22528819 16.25118587 -11.1484375 11.8828125 C-14.48234188 11.51750454 -14.48234188 11.51750454 -19 12 C-19 19.26 -19 26.52 -19 34 C-19.33 34 -19.66 34 -20 34 C-20 26.41 -20 18.82 -20 11 C-19.34 10.67 -18.68 10.34 -18 10 C-18.33 8.68 -18.66 7.36 -19 6 C-17.55367188 6.06960937 -17.55367188 6.06960937 -16.078125 6.140625 C-14.81484375 6.17671875 -13.5515625 6.2128125 -12.25 6.25 C-10.37054688 6.31960937 -10.37054688 6.31960937 -8.453125 6.390625 C-4.94953318 6.3021781 -4.94953318 6.3021781 -2.609375 4.109375 C-0.97170169 2.09922928 -0.97170169 2.09922928 0 0 Z " fill="#5A737D" transform="translate(401,162)"/>
<path d="M0 0 C0.99 0.99 1.98 1.98 3 3 C4.32 2.34 5.64 1.68 7 1 C7 1.66 7 2.32 7 3 C6.34 3 5.68 3 5 3 C4.62875 4.85625 4.62875 4.85625 4.25 6.75 C2.95181648 12.64826858 0.98560032 18.30344763 -1 24 C1.29160319 24.02692484 3.58329546 24.04636124 5.875 24.0625 C7.78925781 24.07990234 7.78925781 24.07990234 9.7421875 24.09765625 C12.88664652 24.23176569 12.88664652 24.23176569 15 23 C15.495 24.485 15.495 24.485 16 26 C10.06 26 4.12 26 -2 26 C-2 26.66 -2 27.32 -2 28 C-0.515 28.495 -0.515 28.495 1 29 C0.06160278 29.13486816 0.06160278 29.13486816 -0.89575195 29.27246094 C-3.10000709 29.78684181 -3.10000709 29.78684181 -3.98901367 31.59472656 C-4.21306885 32.26987305 -4.43712402 32.94501953 -4.66796875 33.640625 C-4.92126953 34.38183594 -5.17457031 35.12304688 -5.43554688 35.88671875 C-5.68369141 36.66660156 -5.93183594 37.44648438 -6.1875 38.25 C-6.44724609 39.01441406 -6.70699219 39.77882812 -6.97460938 40.56640625 C-8.23783347 44.3462861 -9.34580276 48.05905276 -10 52 C-8.35 52 -6.7 52 -5 52 C-5 52.99 -5 53.98 -5 55 C-25.79 55 -46.58 55 -68 55 C-68 54.67 -68 54.34 -68 54 C-42.755 53.505 -42.755 53.505 -17 53 C-17.495 50.03 -17.495 50.03 -18 47 C-17.5378418 44.91137695 -17.5378418 44.91137695 -16.69921875 42.98828125 C-16.38597656 42.24288086 -16.07273437 41.49748047 -15.75 40.72949219 C-15.2240625 39.53308105 -15.2240625 39.53308105 -14.6875 38.3125 C-13.94817236 36.55491657 -13.21271437 34.79570197 -12.48046875 33.03515625 C-12.08263184 32.08141113 -11.68479492 31.12766602 -11.27490234 30.14501953 C-8.87812829 24.23248729 -6.69893436 18.23829295 -4.5 12.25 C-4.05487061 11.04126221 -3.60974121 9.83252441 -3.15112305 8.5871582 C-2.09845334 5.72560598 -1.04800824 2.86326201 0 0 Z " fill="#546C77" transform="translate(324,147)"/>
<path d="M0 0 C0.02693575 2.12493141 0.04636628 4.24995912 0.0625 6.375 C0.07410156 7.55835938 0.08570313 8.74171875 0.09765625 9.9609375 C0 13 0 13 -1 15 C-1.66 15 -2.32 15 -3 15 C-3.34611328 14.06027344 -3.34611328 14.06027344 -3.69921875 13.1015625 C-5.57278106 8.12623721 -5.57278106 8.12623721 -9.1875 4.4375 C-14.39714952 3.62711007 -19.03860365 3.12363142 -23.9375 5.3125 C-26.33564882 7.27462177 -27.82434066 8.92766098 -28.3359375 12.05078125 C-28.43171191 17.59611986 -27.58883434 20.54114521 -24 25 C-23.67 25.66 -23.34 26.32 -23 27 C-23.66 27 -24.32 27 -25 27 C-25.2475 27.969375 -25.495 28.93875 -25.75 29.9375 C-26.1625 30.948125 -26.575 31.95875 -27 33 C-29.125 33.875 -29.125 33.875 -31 34 C-35.57732521 28.50720975 -37.88046003 24.30522026 -38 17 C-37.35691261 11.54906875 -35.5616717 7.23550148 -32 3 C-22.61056577 -3.85056623 -10.71665087 -3.36208655 0 0 Z " fill="#4B666F" transform="translate(183,122)"/>
<path d="M0 0 C0 4.95 0 9.9 0 15 C-0.99 15 -1.98 15 -3 15 C-3.3403125 13.3603125 -3.3403125 13.3603125 -3.6875 11.6875 C-4.68707721 8.01667672 -4.68707721 8.01667672 -7 6.0625 C-11.38336294 4.51005896 -15.40490457 4.33359493 -20 5 C-22.81426975 6.23077315 -22.81426975 6.23077315 -24 9 C-24.67144162 12.1593726 -24.7612117 14.85110269 -24 18 C-22.21181986 20.29189286 -20.15696421 22.02660721 -18 24 C-18.31640625 26.16796875 -18.31640625 26.16796875 -19 28 C-19.99 28 -20.98 28 -22 28 C-23.33981486 28.3062434 -24.67511887 28.63451555 -26 29 C-26 28.34 -26 27.68 -26 27 C-26.66 27 -27.32 27 -28 27 C-28.33 27.66 -28.66 28.32 -29 29 C-33.422626 22.91888925 -34.13049696 17.42897999 -33 10 C-31.2715523 5.34648697 -28.26412554 2.83594506 -23.9375 0.5625 C-16.14765186 -2.48061263 -8.06868568 -1.15266938 0 0 Z " fill="#506B74" transform="translate(483,133)"/>
<path d="M0 0 C1.58246707 -0.08153933 3.16616273 -0.13943557 4.75 -0.1875 C6.07257813 -0.23970703 6.07257813 -0.23970703 7.421875 -0.29296875 C10.48788728 0.05544174 11.79958848 0.8705695 14 3 C14.55472439 6.60570855 13.83935859 8.89608238 12 12 C13.65 13.65 15.3 15.3 17 17 C17.79211929 15.10435574 18.58367576 13.20847629 19.375 11.3125 C19.81585938 10.25675781 20.25671875 9.20101562 20.7109375 8.11328125 C21.82757462 5.41643343 22.92291801 2.71283736 24 0 C24.99 0 25.98 0 27 0 C27.40992188 1.21558594 27.81984375 2.43117187 28.2421875 3.68359375 C28.78607235 5.26836169 29.33036426 6.85298997 29.875 8.4375 C30.14441406 9.23994141 30.41382813 10.04238281 30.69140625 10.86914062 C31.08779297 12.01479492 31.08779297 12.01479492 31.4921875 13.18359375 C31.73308105 13.89056396 31.97397461 14.59753418 32.22216797 15.32592773 C32.88185759 17.20038805 32.88185759 17.20038805 35 18 C35 18.66 35 19.32 35 20 C32.36 20 29.72 20 27 20 C27 18.02 27 16.04 27 14 C24.525 13.505 24.525 13.505 22 13 C21.67 14.65 21.34 16.3 21 18 C21.66 18 22.32 18 23 18 C23 18.66 23 19.32 23 20 C13.91404508 20.62422591 13.91404508 20.62422591 10.4375 18.25 C9.06240435 16.09767638 8.3593172 14.5152204 8 12 C7.34 12 6.68 12 6 12 C6 13.98 6 15.96 6 18 C6.66 18 7.32 18 8 18 C8 18.66 8 19.32 8 20 C5.03 20 2.06 20 -1 20 C-1 19.34 -1 18.68 -1 18 C-0.34 17.67 0.32 17.34 1 17 C1.47001033 13.72444392 1.47001033 13.72444392 1.625 9.9375 C1.69976562 8.64714844 1.77453125 7.35679687 1.8515625 6.02734375 C1.90054687 5.02832031 1.94953125 4.02929688 2 3 C1.34 3 0.68 3 0 3 C0 2.01 0 1.02 0 0 Z M6 3 C6 5.31 6 7.62 6 10 C7.32 9.34 8.64 8.68 10 8 C9.67 6.35 9.34 4.7 9 3 C8.01 3 7.02 3 6 3 Z M24 7 C23.67 8.32 23.34 9.64 23 11 C23.99 11 24.98 11 26 11 C25.67 9.68 25.34 8.36 25 7 C24.67 7 24.34 7 24 7 Z " fill="#7B8E94" transform="translate(297,213)"/>
<path d="M0 0 C0.66 1.32 1.32 2.64 2 4 C2.33 2.68 2.66 1.36 3 0 C8.28 0 13.56 0 19 0 C19 1.98 19 3.96 19 6 C18.34 6 17.68 6 17 6 C16.505 5.01 16.505 5.01 16 4 C15.01 3.67 14.02 3.34 13 3 C13 7.95 13 12.9 13 18 C13.66 18 14.32 18 15 18 C15 18.66 15 19.32 15 20 C12.03 20 9.06 20 6 20 C6 19.34 6 18.68 6 18 C6.66 17.67 7.32 17.34 8 17 C8.47001033 13.72444392 8.47001033 13.72444392 8.625 9.9375 C8.69976562 8.64714844 8.77453125 7.35679687 8.8515625 6.02734375 C8.90054687 5.02832031 8.94953125 4.02929688 9 3 C7.68 3 6.36 3 5 3 C5 3.99 5 4.98 5 6 C2.1875 6.1875 2.1875 6.1875 -1 6 C-2 5 -3 4 -4 3 C-6.65466049 3.23043864 -6.65466049 3.23043864 -9 4 C-10.25252639 7.54882478 -11.15204564 10.12573759 -10.5 13.875 C-9.11213966 16.28280933 -9.11213966 16.28280933 -6.0625 17 C-3.01696088 17.32398158 -3.01696088 17.32398158 -1.25 15.5625 C-0.8375 15.046875 -0.425 14.53125 0 14 C0.66 14 1.32 14 2 14 C1.34 15.98 0.68 17.96 0 20 C-8.8515625 20.7734375 -8.8515625 20.7734375 -13.0625 17.9375 C-15.38260827 14.41991649 -16 12.20972566 -16 8 C-12.58558763 0.09293978 -7.8758929 -0.45437844 0 0 Z " fill="#7F9098" transform="translate(413,213)"/>
<path d="M0 0 C2.64 0 5.28 0 8 0 C8 0.99 8 1.98 8 3 C7.34 3 6.68 3 6 3 C6.14033111 4.97956441 6.2874123 6.95865141 6.4375 8.9375 C6.51871094 10.03964844 6.59992188 11.14179688 6.68359375 12.27734375 C6.70418084 14.91109903 6.70418084 14.91109903 8 16 C9.66617115 16.04063832 11.33388095 16.042721 13 16 C14.28446919 13.43106162 14.32977144 11.23423663 14.5625 8.375 C14.64628906 7.37210938 14.73007812 6.36921875 14.81640625 5.3359375 C14.87699219 4.56507813 14.93757813 3.79421875 15 3 C14.01 3 13.02 3 12 3 C12 2.01 12 1.02 12 0 C14.95857409 -0.05379226 17.91617721 -0.09357093 20.875 -0.125 C21.71675781 -0.14175781 22.55851562 -0.15851563 23.42578125 -0.17578125 C24.23144531 -0.18222656 25.03710938 -0.18867188 25.8671875 -0.1953125 C26.61081543 -0.20578613 27.35444336 -0.21625977 28.12060547 -0.22705078 C30 0 30 0 32 2 C31.34 2 30.68 2 30 2 C29.67 2.66 29.34 3.32 29 4 C28.01 3.67 27.02 3.34 26 3 C26 5.31 26 7.62 26 10 C25.67 10 25.34 10 25 10 C25 7.36 25 4.72 25 2 C24.67 2 24.34 2 24 2 C24 5.63 24 9.26 24 13 C24.33 12.34 24.66 11.68 25 11 C25.99 11.33 26.98 11.66 28 12 C27.34 12 26.68 12 26 12 C26 13.98 26 15.96 26 18 C26.66 18 27.32 18 28 18 C28 18.66 28 19.32 28 20 C25.36 20 22.72 20 20 20 C20 19.34 20 18.68 20 18 C20.66 18 21.32 18 22 18 C22 13.05 22 8.1 22 3 C20.35 3 18.7 3 17 3 C17.05220703 4.33804688 17.05220703 4.33804688 17.10546875 5.703125 C17.13253906 6.87359375 17.15960938 8.0440625 17.1875 9.25 C17.23970703 10.99023438 17.23970703 10.99023438 17.29296875 12.765625 C16.97599034 16.26506664 16.55449259 17.62386162 14 20 C9.44390728 20.65087039 7.27534979 20.89274485 3.5 18.25 C1.20224174 13.27152376 1.69022167 8.39530594 2 3 C1.34 3 0.68 3 0 3 C0 2.01 0 1.02 0 0 Z " fill="#516770" transform="translate(433,213)"/>
<path d="M0 0 C0.66 0 1.32 0 2 0 C2.25523437 1.03060547 2.25523437 1.03060547 2.515625 2.08203125 C2.75796875 2.98308594 3.0003125 3.88414062 3.25 4.8125 C3.48203125 5.70582031 3.7140625 6.59914062 3.953125 7.51953125 C5.18087356 10.42856235 6.31453836 11.39982831 9 13 C12.06957098 14.02319033 14.22440323 14.13371939 17.4375 14.125 C18.38496094 14.12757813 19.33242187 14.13015625 20.30859375 14.1328125 C22.95274827 14.10399632 22.95274827 14.10399632 25.22265625 13.3671875 C25.80917969 13.24601563 26.39570313 13.12484375 27 13 C27.66 13.66 28.32 14.32 29 15 C29.99 15 30.98 15 32 15 C27.72682185 19.94789049 22.12245568 20.49504395 15.921875 20.97265625 C9.88388845 21.02916147 4.31768239 19.8708217 -1 17 C-1.02691685 14.54159395 -1.04679802 12.08348118 -1.0625 9.625 C-1.07087891 8.92632812 -1.07925781 8.22765625 -1.08789062 7.5078125 C-1.11328125 2.2265625 -1.11328125 2.2265625 0 0 Z " fill="#617980" transform="translate(144,183)"/>
<path d="M0 0 C-1.98 0.99 -1.98 0.99 -4 2 C-4 1.34 -4 0.68 -4 0 C-4.45375 0.474375 -4.9075 0.94875 -5.375 1.4375 C-7 3 -7 3 -9 4 C-9.99 3.67 -10.98 3.34 -12 3 C-23.04031839 1.99502954 -29.93180183 3.95453456 -39 10 C-40.175625 9.9071875 -40.175625 9.9071875 -41.375 9.8125 C-45.21637889 10.08688421 -46.54791582 12.19761809 -49 15 C-49 10.9878354 -47.57679058 9.74704045 -44.96875 6.84375 C-32.39919135 -4.92774144 -15.64268559 -5.36320649 0 0 Z " fill="#7A8E97" transform="translate(241,135)"/>
<path d="M0 0 C0.66 0 1.32 0 2 0 C2.66 1.32 3.32 2.64 4 4 C3.67 4.33 3.34 4.66 3 5 C2.79011244 6.41091085 2.63168764 7.82965476 2.5 9.25 C2.16813426 12.55285424 1.7322392 15.75722638 1 19 C2.65 19 4.3 19 6 19 C6 19.99 6 20.98 6 22 C-14.79 22 -35.58 22 -57 22 C-57 21.67 -57 21.34 -57 21 C-31.755 20.505 -31.755 20.505 -6 20 C-6.495 17.03 -6.495 17.03 -7 14 C-6.07421875 10.859375 -6.07421875 10.859375 -4.6875 7.75 C-4.01267578 6.19539062 -4.01267578 6.19539062 -3.32421875 4.609375 C-2 2 -2 2 0 0 Z " fill="#728996" transform="translate(313,180)"/>
<path d="M0 0 C0.66 0 1.32 0 2 0 C10.67936366 18.07186141 10.67936366 18.07186141 14.625 27.0625 C15.11226562 28.16722656 15.59953125 29.27195312 16.1015625 30.41015625 C16.39804688 31.26480469 16.69453125 32.11945312 17 33 C16.67 33.66 16.34 34.32 16 35 C13.9375 35.625 13.9375 35.625 12 36 C12.20625 36.7425 12.4125 37.485 12.625 38.25 C13.05154009 41.37796068 12.49700675 42.32595741 11 45 C9.43007646 38.91362076 7.8638753 32.8262926 6.30029297 26.73828125 C5.76762768 24.66611902 5.23410174 22.59417784 4.69970703 20.52246094 C3.9329707 17.54940168 3.1693047 14.5755685 2.40625 11.6015625 C2.16563843 10.67131256 1.92502686 9.74106262 1.67712402 8.78262329 C1.45689575 7.92188202 1.23666748 7.06114075 1.00976562 6.17431641 C0.81435181 5.41486725 0.61893799 4.65541809 0.41760254 3.87295532 C0 2 0 2 0 0 Z " fill="#526973" transform="translate(103,0)"/>
<path d="M0 0 C2.19921875 -0.34375 2.19921875 -0.34375 5 0 C7.45703125 2.40625 7.45703125 2.40625 9.8125 5.5 C10.99779297 7.03140625 10.99779297 7.03140625 12.20703125 8.59375 C12.79871094 9.3878125 13.39039063 10.181875 14 11 C14.33 8.36 14.66 5.72 15 3 C14.01 2.67 13.02 2.34 12 2 C12 1.34 12 0.68 12 0 C14.64 0 17.28 0 20 0 C20 0.99 20 1.98 20 3 C19.34 3 18.68 3 18 3 C18 8.61 18 14.22 18 20 C17.01 20 16.02 20 15 20 C13.30369687 18.03123367 11.80463882 16.11326838 10.3125 14 C9.89677734 13.42765625 9.48105469 12.8553125 9.05273438 12.265625 C8.02643139 10.85003468 7.01206601 9.42580369 6 8 C6 10.97 6 13.94 6 17 C6.66 17.33 7.32 17.66 8 18 C8 18.66 8 19.32 8 20 C5.36 20 2.72 20 0 20 C0 19.34 0 18.68 0 18 C0.66 17.67 1.32 17.34 2 17 C2 12.71 2 8.42 2 4 C1.34 3.67 0.68 3.34 0 3 C0 2.01 0 1.02 0 0 Z " fill="#536C75" transform="translate(261,213)"/>
<path d="M0 0 C2.19921875 -0.34375 2.19921875 -0.34375 5 0 C7.45703125 2.40625 7.45703125 2.40625 9.8125 5.5 C10.99779297 7.03140625 10.99779297 7.03140625 12.20703125 8.59375 C12.79871094 9.3878125 13.39039063 10.181875 14 11 C14.33 8.36 14.66 5.72 15 3 C14.01 2.67 13.02 2.34 12 2 C12 1.34 12 0.68 12 0 C14.64 0 17.28 0 20 0 C20 0.99 20 1.98 20 3 C19.34 3 18.68 3 18 3 C18 8.61 18 14.22 18 20 C17.01 20 16.02 20 15 20 C13.30369687 18.03123367 11.80463882 16.11326838 10.3125 14 C9.89677734 13.42765625 9.48105469 12.8553125 9.05273438 12.265625 C8.02643139 10.85003468 7.01206601 9.42580369 6 8 C6 10.97 6 13.94 6 17 C6.66 17.33 7.32 17.66 8 18 C8 18.66 8 19.32 8 20 C5.36 20 2.72 20 0 20 C0 19.34 0 18.68 0 18 C0.66 17.67 1.32 17.34 2 17 C2 12.71 2 8.42 2 4 C1.34 3.67 0.68 3.34 0 3 C0 2.01 0 1.02 0 0 Z " fill="#526970" transform="translate(158,213)"/>
<path d="M0 0 C8.78760665 -0.46070947 8.78760665 -0.46070947 13.125 1.1875 C15 3 15 3 15.4375 5.4375 C15.0012965 7.99240622 14.31518076 9.78063247 13 12 C13.825 12.94875 14.65 13.8975 15.5 14.875 C18 17.75 18 17.75 18 20 C14.41209425 19.70100785 13.21833224 19.23013399 10.6875 16.5625 C9 14 9 14 9 12 C8.34 12 7.68 12 7 12 C7 13.98 7 15.96 7 18 C7.66 18 8.32 18 9 18 C9 18.66 9 19.32 9 20 C6.03 20 3.06 20 0 20 C0 19.34 0 18.68 0 18 C0.66 17.67 1.32 17.34 2 17 C2.47001033 13.72444392 2.47001033 13.72444392 2.625 9.9375 C2.69976562 8.64714844 2.77453125 7.35679687 2.8515625 6.02734375 C2.90054688 5.02832031 2.94953125 4.02929688 3 3 C2.01 2.67 1.02 2.34 0 2 C0 1.34 0 0.68 0 0 Z M7 3 C7 5.31 7 7.62 7 10 C8.32 9.34 9.64 8.68 11 8 C10.67 6.35 10.34 4.7 10 3 C9.01 3 8.02 3 7 3 Z " fill="#637883" transform="translate(194,213)"/>
<path d="M0 0 C1.58246707 -0.08153933 3.16616273 -0.13943557 4.75 -0.1875 C6.07257813 -0.23970703 6.07257813 -0.23970703 7.421875 -0.29296875 C10.48788728 0.05544174 11.79958848 0.8705695 14 3 C14.55472439 6.60570855 13.83935859 8.89608238 12 12 C12.825 12.94875 13.65 13.8975 14.5 14.875 C17 17.75 17 17.75 17 20 C13.41209425 19.70100785 12.21833224 19.23013399 9.6875 16.5625 C8 14 8 14 8 12 C7.34 12 6.68 12 6 12 C6 13.98 6 15.96 6 18 C6.66 18 7.32 18 8 18 C8 18.66 8 19.32 8 20 C5.03 20 2.06 20 -1 20 C-1 19.34 -1 18.68 -1 18 C-0.34 17.67 0.32 17.34 1 17 C1.47001033 13.72444392 1.47001033 13.72444392 1.625 9.9375 C1.69976562 8.64714844 1.77453125 7.35679687 1.8515625 6.02734375 C1.90054687 5.02832031 1.94953125 4.02929688 2 3 C1.34 3 0.68 3 0 3 C0 2.01 0 1.02 0 0 Z M6 3 C6 5.31 6 7.62 6 10 C7.32 9.34 8.64 8.68 10 8 C9.67 6.35 9.34 4.7 9 3 C8.01 3 7.02 3 6 3 Z " fill="#4D6771" transform="translate(362,213)"/>
<path d="M0 0 C0.66 0.33 1.32 0.66 2 1 C2.625 3.5625 2.625 3.5625 3 6 C4.32 6.33 5.64 6.66 7 7 C1.62566233 8.42728561 -3.74950939 9.85136959 -9.12548828 11.27246094 C-10.95514988 11.75660155 -12.78457826 12.24162446 -14.61376953 12.72753906 C-17.23930375 13.42483541 -19.86565362 14.11898001 -22.4921875 14.8125 C-23.31306854 15.03123779 -24.13394958 15.24997559 -24.97970581 15.4753418 C-30.77225659 17 -30.77225659 17 -33 17 C-32 14 -32 14 -29.48730469 12.58959961 C-28.39321289 12.11530518 -27.29912109 11.64101074 -26.171875 11.15234375 C-24.97949219 10.62962891 -23.78710938 10.10691406 -22.55859375 9.56835938 C-21.28913778 9.02456382 -20.01960578 8.4809457 -18.75 7.9375 C-17.49567352 7.39093735 -16.24176175 6.8434219 -14.98828125 6.29492188 C-11.6650315 4.847931 -8.33854647 3.41132399 -5 2 C-4.08508789 1.59338135 -3.17017578 1.1867627 -2.22753906 0.76782227 C-1.49245117 0.51444092 -0.75736328 0.26105957 0 0 Z " fill="#5C757D" transform="translate(33,192)"/>
<path d="M0 0 C4.29 0 8.58 0 13 0 C13.33 1.98 13.66 3.96 14 6 C13.34 6 12.68 6 12 6 C12 8.31 12 10.62 12 13 C11.34 13 10.68 13 10 13 C10 12.34 10 11.68 10 11 C8.68 11 7.36 11 6 11 C6 12.98 6 14.96 6 17 C7.98 17 9.96 17 12 17 C12.33 16.01 12.66 15.02 13 14 C13.66 14 14.32 14 15 14 C14.67 15.98 14.34 17.96 14 20 C9.05 20 4.1 20 -1 20 C-1 19.34 -1 18.68 -1 18 C-0.01 18 0.98 18 2 18 C2 13.05 2 8.1 2 3 C1.34 3 0.68 3 0 3 C0 2.01 0 1.02 0 0 Z M6 3 C6 4.98 6 6.96 6 9 C7.32 8.67 8.64 8.34 10 8 C10.33 6.35 10.66 4.7 11 3 C9.35 3 7.7 3 6 3 Z " fill="#A2B1B8" transform="translate(143,213)"/>
<path d="M0 0 C4.62 0 9.24 0 14 0 C14 1.98 14 3.96 14 6 C13.34 6 12.68 6 12 6 C12 8.31 12 10.62 12 13 C11.34 13 10.68 13 10 13 C10 12.34 10 11.68 10 11 C8.68 11 7.36 11 6 11 C6 12.98 6 14.96 6 17 C8.97065509 16.65772428 8.97065509 16.65772428 12 16 C12.33 15.34 12.66 14.68 13 14 C13.66 14 14.32 14 15 14 C14.67 15.98 14.34 17.96 14 20 C9.38 20 4.76 20 0 20 C0 19.34 0 18.68 0 18 C0.66 18 1.32 18 2 18 C2 13.05 2 8.1 2 3 C1.34 3 0.68 3 0 3 C0 2.01 0 1.02 0 0 Z M6 3 C6 4.98 6 6.96 6 9 C7.32 8.67 8.64 8.34 10 8 C10 7.34 10 6.68 10 6 C10.66 5.67 11.32 5.34 12 5 C11.67 4.34 11.34 3.68 11 3 C9.35 3 7.7 3 6 3 Z " fill="#3A5059" transform="translate(179,213)"/>
<path d="M0 0 C0.66 0.99 1.32 1.98 2 3 C2.99 2.67 3.98 2.34 5 2 C6.28445103 6.39475302 6.28445103 6.39475302 5.03125 9.0612793 C4.5259375 9.72554932 4.020625 10.38981934 3.5 11.07421875 C2.94546143 11.82010254 2.39092285 12.56598633 1.81958008 13.33447266 C1.21911865 14.11097168 0.61865723 14.8874707 0 15.6875 C-1.20510103 17.29246293 -2.40953287 18.89792856 -3.61328125 20.50390625 C-4.19803223 21.27492676 -4.7827832 22.04594727 -5.38525391 22.84033203 C-7.96389464 26.2891763 -10.34620625 29.8598646 -12.73046875 33.4453125 C-13.14941406 33.95835937 -13.56835938 34.47140625 -14 35 C-14.66 35 -15.32 35 -16 35 C-14.71952876 30.90830548 -13.1937798 27.15914899 -11.25 23.33984375 C-10.7240625 22.29892578 -10.198125 21.25800781 -9.65625 20.18554688 C-9.1096875 19.11369141 -8.563125 18.04183594 -8 16.9375 C-6.91483083 14.80171303 -5.83143123 12.66502582 -4.75 10.52734375 C-4.03070313 9.11569946 -4.03070313 9.11569946 -3.296875 7.67553711 C-2.07417816 5.15303435 -1.00536397 2.61566539 0 0 Z " fill="#4C6471" transform="translate(93,243)"/>
<path d="M0 0 C0 4.95 0 9.9 0 15 C-0.99 15 -1.98 15 -3 15 C-3.3403125 13.3603125 -3.3403125 13.3603125 -3.6875 11.6875 C-4.68707721 8.01667672 -4.68707721 8.01667672 -7 6.0625 C-11.36625507 4.516118 -15.42227738 4.28707599 -20 5 C-23.08691577 6.79517723 -23.08691577 6.79517723 -25 9 C-25 6.33333333 -25 3.66666667 -25 1 C-17.07053169 -2.52420814 -8.32849254 -1.18978465 0 0 Z " fill="#355057" transform="translate(483,133)"/>
<path d="M0 0 C1.22589844 0.01353516 1.22589844 0.01353516 2.4765625 0.02734375 C3.41628906 0.04474609 3.41628906 0.04474609 4.375 0.0625 C5.8356285 2.70988916 6.375 3.95698334 6.375 7.0625 C5.385 7.0625 4.395 7.0625 3.375 7.0625 C3.045 6.0725 2.715 5.0825 2.375 4.0625 C0.02132287 3.3746764 0.02132287 3.3746764 -2.625 3.0625 C-5.96575097 4.79919952 -5.96575097 4.79919952 -6.4375 8.4375 C-6.76545559 12.69276498 -6.76545559 12.69276498 -4.625 16.0625 C-1.56591587 16.87834568 -1.56591587 16.87834568 1.375 17.0625 C1.375 15.7425 1.375 14.4225 1.375 13.0625 C0.715 12.7325 0.055 12.4025 -0.625 12.0625 C-0.625 11.4025 -0.625 10.7425 -0.625 10.0625 C2.015 10.0625 4.655 10.0625 7.375 10.0625 C7.26137738 11.5425841 7.13377092 13.02160074 7 14.5 C6.93039063 15.32371094 6.86078125 16.14742187 6.7890625 16.99609375 C6.65242188 17.67800781 6.51578125 18.35992187 6.375 19.0625 C2.66046768 20.91976616 -1.58079425 20.64751089 -5.625 20.0625 C-9.31764401 17.19881689 -11.36625481 14.95996473 -12 10.3125 C-11.4778401 5.7871142 -9.78270622 4.2953897 -6.625 1.0625 C-4.21954362 -0.14022819 -2.67503047 -0.03821472 0 0 Z " fill="#677783" transform="translate(222.625,212.9375)"/>
<path d="M0 0 C2.97 0 5.94 0 9 0 C8.67 0.99 8.34 1.98 8 3 C7.34 3 6.68 3 6 3 C6.14084796 4.79206547 6.28783701 6.58364917 6.4375 8.375 C6.51871094 9.37273437 6.59992188 10.37046875 6.68359375 11.3984375 C6.84965626 13.97927613 6.84965626 13.97927613 8 16 C9.98 16.33 11.96 16.66 14 17 C14.33 12.38 14.66 7.76 15 3 C14.01 2.67 13.02 2.34 12 2 C12 1.34 12 0.68 12 0 C14.64 0 17.28 0 20 0 C20 0.99 20 1.98 20 3 C19.34 3 18.68 3 18 3 C18.05220703 4.10408203 18.05220703 4.10408203 18.10546875 5.23046875 C18.37509588 14.94988494 18.37509588 14.94988494 15 19 C13.12735324 20.87264676 10.50240053 20.23607378 8.0078125 20.328125 C6 20 6 20 4.27734375 18.8984375 C2.40411812 16.11437738 2.55162476 13.69566245 2.4375 10.375 C2.3599687 8.24641332 2.23041652 6.11749866 2 4 C1.34 3.67 0.68 3.34 0 3 C0 2.01 0 1.02 0 0 Z " fill="#4B636B" transform="translate(377,213)"/>
<path d="M0 0 C10.70031314 1.14039618 21.35820743 2.39175482 32 4 C28.25 8.875 28.25 8.875 26 10 C25.67 10.99 25.34 11.98 25 13 C19.43335076 11.33913088 14.34213647 8.88928264 9.125 6.375 C8.24585938 5.95476562 7.36671875 5.53453125 6.4609375 5.1015625 C4.30577122 4.0708308 2.15220078 3.03690574 0 2 C0 1.34 0 0.68 0 0 Z " fill="#516E77" transform="translate(47,119)"/>
<path d="M0 0 C4.62 0 9.24 0 14 0 C14 1.98 14 3.96 14 6 C13.01 5.67 12.02 5.34 11 5 C11 4.34 11 3.68 11 3 C9.35 3 7.7 3 6 3 C6 4.98 6 6.96 6 9 C7.32 9 8.64 9 10 9 C10 8.34 10 7.68 10 7 C10.99 7 11.98 7 13 7 C13 9.31 13 11.62 13 14 C12.01 13.67 11.02 13.34 10 13 C10 12.34 10 11.68 10 11 C8.68 11 7.36 11 6 11 C6.34227572 13.97065509 6.34227572 13.97065509 7 17 C7.66 17.33 8.32 17.66 9 18 C9 18.66 9 19.32 9 20 C6.03 20 3.06 20 0 20 C0 19.34 0 18.68 0 18 C0.66 18 1.32 18 2 18 C2 13.05 2 8.1 2 3 C1.34 3 0.68 3 0 3 C0 2.01 0 1.02 0 0 Z " fill="#8EA3A7" transform="translate(282,213)"/>
<path d="M0 0 C1.58246707 -0.08153933 3.16616273 -0.13943557 4.75 -0.1875 C6.07257813 -0.23970703 6.07257813 -0.23970703 7.421875 -0.29296875 C10.48894554 0.05556199 11.79448098 0.87541746 14 3 C14.5 5.4375 14.5 5.4375 14 8 C12.25 10.3125 12.25 10.3125 10 12 C8.68 12 7.36 12 6 12 C6 13.98 6 15.96 6 18 C6.66 18 7.32 18 8 18 C8 18.66 8 19.32 8 20 C5.03 20 2.06 20 -1 20 C-1 19.34 -1 18.68 -1 18 C-0.34 17.67 0.32 17.34 1 17 C1.47001033 13.72444392 1.47001033 13.72444392 1.625 9.9375 C1.69976562 8.64714844 1.77453125 7.35679687 1.8515625 6.02734375 C1.90054687 5.02832031 1.94953125 4.02929688 2 3 C1.34 3 0.68 3 0 3 C0 2.01 0 1.02 0 0 Z M6 3 C6 5.31 6 7.62 6 10 C7.32 9.34 8.64 8.68 10 8 C9.67 6.35 9.34 4.7 9 3 C8.01 3 7.02 3 6 3 Z " fill="#8D9FA6" transform="translate(297,213)"/>
<path d="M0 0 C2.64 0 5.28 0 8 0 C8.33 2.64 8.66 5.28 9 8 C9.66 8 10.32 8 11 8 C11.98120464 4.94736336 11.98120464 3.05263664 11 0 C13.64 0 16.28 0 19 0 C17.87092799 3.38721604 16.48555675 4.51444325 14 7 C11.78294373 10.3255844 11.82086702 13.05907441 12 17 C12.66 17.33 13.32 17.66 14 18 C14 18.66 14 19.32 14 20 C11.03 20 8.06 20 5 20 C5 19.34 5 18.68 5 18 C5.66 18 6.32 18 7 18 C6.71572583 16.41532272 6.42225182 14.8322943 6.125 13.25 C5.88136719 11.92742187 5.88136719 11.92742187 5.6328125 10.578125 C4.57948403 6.28678678 3.73713403 4.49142269 0 2 C0 1.34 0 0.68 0 0 Z " fill="#81939D" transform="translate(229,213)"/>
<path d="M0 0 C0.66 0 1.32 0 2 0 C-0.46804124 10.72547708 -3.09487131 21.38391802 -6 32 C-6.33 31.34 -6.66 30.68 -7 30 C-10.02934491 29.34227572 -10.02934491 29.34227572 -13 29 C-11.20656316 22.98430044 -8.5463131 17.38113311 -5.9375 11.6875 C-5.47794922 10.67365234 -5.01839844 9.65980469 -4.54492188 8.61523438 C-1.13127309 1.13127309 -1.13127309 1.13127309 0 0 Z " fill="#546D78" transform="translate(206,8)"/>
<path d="M0 0 C0.99 0 1.98 0 3 0 C3.268125 1.258125 3.53625 2.51625 3.8125 3.8125 C4.60958408 6.98960977 5.18544981 9.08610587 8 11 C8.99 11.33 9.98 11.66 11 12 C11 12.66 11 13.32 11 14 C14.63 14 18.26 14 22 14 C21.01 15.485 21.01 15.485 20 17 C17.26953125 17.328125 17.26953125 17.328125 13.8125 17.25 C12.56855469 17.22421875 11.32460938 17.1984375 10.04296875 17.171875 C3.68546989 16.92861529 -2.65769109 16.49743599 -9 16 C-5.53785351 13.94835763 -4.40610765 14 0 14 C0 9.38 0 4.76 0 0 Z " fill="#4B646C" transform="translate(448,185)"/>
<path d="M0 0 C8.25 0 16.5 0 25 0 C25 0.99 25 1.98 25 3 C22.69 3.33 20.38 3.66 18 4 C17.67 4.99 17.34 5.98 17 7 C16.67 5.35 16.34 3.7 16 2 C13.02934491 2.34227572 13.02934491 2.34227572 10 3 C8.70033415 5.5993317 8.83955838 7.54864203 8.79467773 10.45947266 C8.77473251 11.60050446 8.75478729 12.74153625 8.73423767 13.91714478 C8.70916893 15.77186905 8.70916893 15.77186905 8.68359375 17.6640625 C8.66281265 18.92640717 8.64203156 20.18875183 8.62062073 21.48934937 C8.56622074 24.84632045 8.51599764 28.20330189 8.46777344 31.56036377 C8.41754958 34.98561065 8.36186814 38.41076829 8.30664062 41.8359375 C8.19938141 48.55722061 8.0976256 55.27857044 8 62 C7.67 62 7.34 62 7 62 C6.67 43.19 6.34 24.38 6 5 C3.69 4.34 1.38 3.68 -1 3 C-0.67 2.01 -0.34 1.02 0 0 Z " fill="#A8BAC6" transform="translate(255,133)"/>
<path d="M0 0 C0.66 0.33 1.32 0.66 2 1 C1.67 2.32 1.34 3.64 1 5 C1.66 5.33 2.32 5.66 3 6 C-3.98165821 9.14859096 -9.59220953 10.1521906 -17.3125 10.0625 C-18.05306641 10.05798828 -18.79363281 10.05347656 -19.55664062 10.04882812 C-21.37112899 10.03712175 -23.18557534 10.01918898 -25 10 C-24.01 9.34 -23.02 8.68 -22 8 C-23.32 7.34 -24.64 6.68 -26 6 C-26 5.01 -26 4.02 -26 3 C-25.30519531 3.15855469 -24.61039063 3.31710938 -23.89453125 3.48046875 C-14.93427759 5.08871941 -7.83853442 4.58480315 0 0 Z " fill="#668087" transform="translate(239,193)"/>
<path d="M0 0 C1 1 1 1 1.0625 3.5625 C1.041875 4.366875 1.02125 5.17125 1 6 C0.34 6 -0.32 6 -1 6 C-1.66 5.01 -2.32 4.02 -3 3 C-3.66 3 -4.32 3 -5 3 C-4.94436349 4.83468832 -4.94436349 4.83468832 -4 7 C-2.989375 7.804375 -1.97875 8.60875 -0.9375 9.4375 C2 12 2 12 2.5625 14.625 C2 17 2 17 1 18.8125 C-2.23988962 20.73618446 -5.2825819 20.18282384 -9 20 C-9.33 18.02 -9.66 16.04 -10 14 C-9.34 14 -8.68 14 -8 14 C-7.01 15.485 -7.01 15.485 -6 17 C-5.01 17 -4.02 17 -3 17 C-3 15.68 -3 14.36 -3 13 C-3.969375 12.360625 -4.93875 11.72125 -5.9375 11.0625 C-9 9 -9 9 -10.125 6.5 C-10 4 -10 4 -8.4375 1.6875 C-5.39766602 -0.41700045 -3.62516277 -0.40279586 0 0 Z " fill="#74888F" transform="translate(342,213)"/>
<path d="M0 0 C5.61 0 11.22 0 17 0 C17 1.98 17 3.96 17 6 C16.34 6 15.68 6 15 6 C14.67 5.34 14.34 4.68 14 4 C11.97536745 3.34786708 11.97536745 3.34786708 10 3 C10.11341637 5.31309705 10.24103807 7.62550185 10.375 9.9375 C10.44460938 11.22527344 10.51421875 12.51304687 10.5859375 13.83984375 C10.72257812 14.88269531 10.85921875 15.92554688 11 17 C11.66 17.33 12.32 17.66 13 18 C13 18.66 13 19.32 13 20 C10.03 20 7.06 20 4 20 C4 19.34 4 18.68 4 18 C4.66 17.67 5.32 17.34 6 17 C6.47001033 13.72444392 6.47001033 13.72444392 6.625 9.9375 C6.73714844 8.00197266 6.73714844 8.00197266 6.8515625 6.02734375 C6.90054687 5.02832031 6.94953125 4.02929688 7 3 C5.68 3 4.36 3 3 3 C2.67 3.99 2.34 4.98 2 6 C1.34 6 0.68 6 0 6 C0 4.02 0 2.04 0 0 Z " fill="#75858F" transform="translate(344,213)"/>
<path d="M0 0 C4.62 0 9.24 0 14 0 C13.67 4.29 13.34 8.58 13 13 C11.02 12.34 9.04 11.68 7 11 C7 12.98 7 14.96 7 17 C8.98 16.67 10.96 16.34 13 16 C13 16.66 13 17.32 13 18 C10.69 18 8.38 18 6 18 C5.67 17.34 5.34 16.68 5 16 C4.67 16.66 4.34 17.32 4 18 C3.34 17.67 2.68 17.34 2 17 C2.33 12.38 2.66 7.76 3 3 C2.01 2.67 1.02 2.34 0 2 C0 1.34 0 0.68 0 0 Z M7 3 C7 4.98 7 6.96 7 9 C8.32 8.67 9.64 8.34 11 8 C11.33 6.68 11.66 5.36 12 4 C10.35 3.67 8.7 3.34 7 3 Z " fill="#8CA1A5" transform="translate(469,213)"/>
<path d="M0 0 C7.35342179 -0.20177072 13.94887561 -0.21211746 21 2 C21.02693575 4.12493141 21.04636628 6.24995912 21.0625 8.375 C21.07410156 9.55835938 21.08570313 10.74171875 21.09765625 11.9609375 C21 15 21 15 20 17 C19.34 17 18.68 17 18 17 C17.76925781 16.37351563 17.53851563 15.74703125 17.30078125 15.1015625 C15.3765096 9.87772074 15.3765096 9.87772074 11.25 6.4375 C10.5075 6.293125 9.765 6.14875 9 6 C9.66 4.35 10.32 2.7 11 1 C7.37 1 3.74 1 0 1 C0 0.67 0 0.34 0 0 Z " fill="#7C9099" transform="translate(162,120)"/>
<path d="M0 0 C2.64 0 5.28 0 8 0 C8 0.99 8 1.98 8 3 C7.34 3 6.68 3 6 3 C6 7.95 6 12.9 6 18 C6.66 18 7.32 18 8 18 C8 18.66 8 19.32 8 20 C5.36 20 2.72 20 0 20 C0 19.34 0 18.68 0 18 C0.66 18 1.32 18 2 18 C2 13.05 2 8.1 2 3 C1.34 3 0.68 3 0 3 C0 2.01 0 1.02 0 0 Z " fill="#7D939E" transform="translate(252,213)"/>
<path d="M0 0 C8.17824952 2.39707314 15.46651278 6.08858772 23 10 C22.01 10.495 22.01 10.495 21 11 C21 12.65 21 14.3 21 16 C16.4055937 13.81733527 12.40040232 10.91835918 8.25 8 C7.45722656 7.4534375 6.66445313 6.906875 5.84765625 6.34375 C4.72423828 5.55484375 4.72423828 5.55484375 3.578125 4.75 C2.89137695 4.27046875 2.20462891 3.7909375 1.49707031 3.296875 C1.00303711 2.86890625 0.50900391 2.4409375 0 2 C0 1.34 0 0.68 0 0 Z " fill="#697F8B" transform="translate(23,68)"/>
<path d="M0 0 C0.66 0 1.32 0 2 0 C3.48046875 1.50390625 3.48046875 1.50390625 5.1875 3.5625 C8.60201725 7.58675247 12.21845349 11.32190005 16 15 C15.67 15.99 15.34 16.98 15 18 C14.34 18 13.68 18 13 18 C13 18.99 13 19.98 13 21 C12.34 20.67 11.68 20.34 11 20 C10.375 16.9375 10.375 16.9375 10 14 C9.23300781 13.93554688 8.46601562 13.87109375 7.67578125 13.8046875 C5 13 5 13 3.41796875 10.8203125 C3.01191406 9.93085937 2.60585937 9.04140625 2.1875 8.125 C1.76855469 7.24070312 1.34960938 6.35640625 0.91796875 5.4453125 C0 3 0 3 0 0 Z " fill="#3B555F" transform="translate(88,61)"/>
<path d="M0 0 C2.95857409 -0.05379226 5.91617721 -0.09357093 8.875 -0.125 C9.71675781 -0.14175781 10.55851562 -0.15851563 11.42578125 -0.17578125 C12.23144531 -0.18222656 13.03710938 -0.18867188 13.8671875 -0.1953125 C14.98262939 -0.21102295 14.98262939 -0.21102295 16.12060547 -0.22705078 C18 0 18 0 20 2 C19.34 2 18.68 2 18 2 C17.67 2.66 17.34 3.32 17 4 C16.01 3.67 15.02 3.34 14 3 C14 5.31 14 7.62 14 10 C13.67 10 13.34 10 13 10 C13 7.36 13 4.72 13 2 C12.67 2 12.34 2 12 2 C12 5.63 12 9.26 12 13 C12.33 12.34 12.66 11.68 13 11 C13.99 11.33 14.98 11.66 16 12 C15.34 12 14.68 12 14 12 C14 13.98 14 15.96 14 18 C14.66 18 15.32 18 16 18 C16 18.66 16 19.32 16 20 C13.36 20 10.72 20 8 20 C8 19.34 8 18.68 8 18 C8.66 18 9.32 18 10 18 C10 13.05 10 8.1 10 3 C3.59628479 1.5527864 3.59628479 1.5527864 0 3 C0 2.01 0 1.02 0 0 Z " fill="#A3B4BA" transform="translate(445,213)"/>
<path d="M0 0 C3.3 0 6.6 0 10 0 C9.01 0.495 9.01 0.495 8 1 C8 21.13 8 41.26 8 62 C7.67 62 7.34 62 7 62 C6.67 43.19 6.34 24.38 6 5 C3.69 4.34 1.38 3.68 -1 3 C-0.67 2.01 -0.34 1.02 0 0 Z " fill="#BFD6E0" transform="translate(365,133)"/>
<path d="M0 0 C9.41002278 0.96355353 9.41002278 0.96355353 14 2 C14 4.31 14 6.62 14 9 C11.03 9 8.06 9 5 9 C5.33 7.02 5.66 5.04 6 3 C5.34 3 4.68 3 4 3 C4 4.98 4 6.96 4 9 C3.34 9 2.68 9 2 9 C2 7.02 2 5.04 2 3 C1.34 3 0.68 3 0 3 C0 2.01 0 1.02 0 0 Z " fill="#BCC9CF" transform="translate(486,132)"/>
<path d="M0 0 C3.96 0 7.92 0 12 0 C12.33 1.65 12.66 3.3 13 5 C12.34 5 11.68 5 11 5 C11 7.31 11 9.62 11 12 C10.34 12 9.68 12 9 12 C9 11.01 9 10.02 9 9 C7.35 9 5.7 9 4 9 C4 11.31 4 13.62 4 16 C3.34 16 2.68 16 2 16 C2 11.05 2 6.1 2 1 C1.34 0.67 0.68 0.34 0 0 Z M5 2 C5 3.98 5 5.96 5 8 C6.32 7.67 7.64 7.34 9 7 C9.33 5.35 9.66 3.7 10 2 C8.35 2 6.7 2 5 2 Z " fill="#8C9CA4" transform="translate(144,214)"/>
<path d="M0 0 C2.25 -0.3125 2.25 -0.3125 5 0 C7.375 2.25 7.375 2.25 9 5 C8.75 7.3125 8.75 7.3125 8 9 C7.34 8.67 6.68 8.34 6 8 C6 10.97 6 13.94 6 17 C6.66 17.33 7.32 17.66 8 18 C8 18.66 8 19.32 8 20 C5.36 20 2.72 20 0 20 C0 19.34 0 18.68 0 18 C0.66 17.67 1.32 17.34 2 17 C2 12.71 2 8.42 2 4 C1.34 3.67 0.68 3.34 0 3 C0 2.01 0 1.02 0 0 Z " fill="#4E626A" transform="translate(261,213)"/>
<path d="M0 0 C1.125 3.75 1.125 3.75 0 6 C-11.55 6 -23.1 6 -35 6 C-35 5.34 -35 4.68 -35 4 C-30.77498861 1.91150005 -27.65779085 1.89590879 -23 2.3125 C-21.80375 2.41175781 -20.6075 2.51101562 -19.375 2.61328125 C-16.5254707 2.93978982 -13.8050065 3.42344075 -11 4 C-9.23158847 4.20911144 -7.46052637 4.39701754 -5.6875 4.5625 C-4.80449219 4.64628906 -3.92148437 4.73007813 -3.01171875 4.81640625 C-2.34785156 4.87699219 -1.68398438 4.93757812 -1 5 C-0.67 3.35 -0.34 1.7 0 0 Z " fill="#2E4B56" transform="translate(307,195)"/>
<path d="M0 0 C2.64 0 5.28 0 8 0 C8 0.99 8 1.98 8 3 C7.34 3 6.68 3 6 3 C6.03480469 3.73605469 6.06960938 4.47210938 6.10546875 5.23046875 C6.37509588 14.94988494 6.37509588 14.94988494 3 19 C2 20 2 20 0.15234375 20.09765625 C-1.8984375 20.06510417 -3.94921875 20.03255208 -6 20 C-4.8125 18.5 -4.8125 18.5 -3 17 C-1.35 17 0.3 17 2 17 C2.33 12.38 2.66 7.76 3 3 C2.01 2.67 1.02 2.34 0 2 C0 1.34 0 0.68 0 0 Z " fill="#91A0A5" transform="translate(389,213)"/>
<path d="M0 0 C0.375 2.25 0.375 2.25 0 5 C-2.85950572 7.46050493 -4.70720699 9.03153154 -8.5625 8.9375 C-11.32322548 8.74608939 -11.32322548 8.74608939 -13.8125 11.5 C-14.534375 12.325 -15.25625 13.15 -16 14 C-16 9.39278001 -13.15254038 7.15254038 -10 4 C-4.87179487 0 -4.87179487 0 0 0 Z " fill="#4F6A77" transform="translate(208,136)"/>
<path d="M0 0 C7.25 0 7.25 0 11 1 C10.01 1 9.02 1 8 1 C8 5.95 8 10.9 8 16 C8.66 16 9.32 16 10 16 C10 16.66 10 17.32 10 18 C7.03 18 4.06 18 1 18 C1 17.34 1 16.68 1 16 C1.66 15.67 2.32 15.34 3 15 C3.47001033 11.72444392 3.47001033 11.72444392 3.625 7.9375 C3.69976562 6.64714844 3.77453125 5.35679687 3.8515625 4.02734375 C3.90054687 3.02832031 3.94953125 2.02929688 4 1 C2.68 0.67 1.36 0.34 0 0 Z " fill="#8A9FA8" transform="translate(418,215)"/>
<path d="M0 0 C8.78760665 -0.46070947 8.78760665 -0.46070947 13.125 1.1875 C15 3 15 3 15.3125 5.6875 C15.1578125 6.8321875 15.1578125 6.8321875 15 8 C14.01 8 13.02 8 12 8 C12 6.68 12 5.36 12 4 C10.35 3.67 8.7 3.34 7 3 C7 5.31 7 7.62 7 10 C6.67 10 6.34 10 6 10 C6 7.36 6 4.72 6 2 C5.34 2 4.68 2 4 2 C4 7.28 4 12.56 4 18 C3.34 17.67 2.68 17.34 2 17 C2.33 12.38 2.66 7.76 3 3 C2.01 2.67 1.02 2.34 0 2 C0 1.34 0 0.68 0 0 Z " fill="#96A3AE" transform="translate(194,213)"/>
<path d="M0 0 C0.33 1.32 0.66 2.64 1 4 C1.66 3.34 2.32 2.68 3 2 C3 3.32 3 4.64 3 6 C-4.52341971 9.68494027 -11.83340455 9.28710687 -20 9 C-20 8.67 -20 8.34 -20 8 C-16.7 7.67 -13.4 7.34 -10 7 C-10 6.67 -10 6.34 -10 6 C-11.65 5.67 -13.3 5.34 -15 5 C-15 4.67 -15 4.34 -15 4 C-14.33613281 3.96261719 -13.67226563 3.92523438 -12.98828125 3.88671875 C-7.92963621 3.5100897 -4.15819181 3.18794705 0 0 Z " fill="#798D95" transform="translate(474,194)"/>
<path d="M0 0 C4.56454251 0.54339792 7.9728176 1.79463821 12 4 C10.35 5.98 8.7 7.96 7 10 C3.64084842 8.56036361 1.28375062 6.87583411 -1 4 C-0.75 1.75 -0.75 1.75 0 0 Z " fill="#4A646C" transform="translate(44,79)"/>
<path d="M0 0 C0.99 0.99 1.98 1.98 3 3 C4.32 2.34 5.64 1.68 7 1 C7 1.66 7 2.32 7 3 C6.34 3 5.68 3 5 3 C4.87882812 3.61488281 4.75765625 4.22976562 4.6328125 4.86328125 C4.38144531 6.07564453 4.38144531 6.07564453 4.125 7.3125 C3.96257812 8.11300781 3.80015625 8.91351563 3.6328125 9.73828125 C3 12 3 12 1 15 C1 14.01 1 13.02 1 12 C-0.65 12.33 -2.3 12.66 -4 13 C-3.52140759 11.39566191 -3.04210442 9.79153584 -2.5625 8.1875 C-2.29566406 7.29417969 -2.02882813 6.40085938 -1.75390625 5.48046875 C-1.19612127 3.64526945 -0.60655425 1.81966274 0 0 Z " fill="#687E89" transform="translate(324,147)"/>
<path d="M0 0 C0.66 0 1.32 0 2 0 C2 5.28 2 10.56 2 16 C3.32 16 4.64 16 6 16 C6 16.66 6 17.32 6 18 C3.03 18 0.06 18 -3 18 C-3 17.34 -3 16.68 -3 16 C-2.34 16 -1.68 16 -1 16 C-1.01160156 14.92878906 -1.02320313 13.85757813 -1.03515625 12.75390625 C-1.04453299 11.35677257 -1.05363331 9.95963701 -1.0625 8.5625 C-1.07506836 7.50192383 -1.07506836 7.50192383 -1.08789062 6.41992188 C-1.09653588 4.61306441 -1.05220011 2.80612397 -1 1 C-0.67 0.67 -0.34 0.34 0 0 Z " fill="#73888E" transform="translate(285,215)"/>
<path d="M0 0 C0.66 0 1.32 0 2 0 C1.38120598 2.75153071 0.75523814 5.50108898 0.125 8.25 C-0.13603516 9.41595703 -0.13603516 9.41595703 -0.40234375 10.60546875 C-0.57636719 11.35957031 -0.75039062 12.11367188 -0.9296875 12.890625 C-1.08679199 13.58188477 -1.24389648 14.27314453 -1.40576172 14.98535156 C-2.04346845 17.14737125 -2.93799834 19.01604085 -4 21 C-4 19.68 -4 18.36 -4 17 C-5.32 17.33 -6.64 17.66 -8 18 C-6.65150163 13.64029169 -4.95092154 9.68658562 -2.875 5.625 C-2.33617187 4.56539062 -1.79734375 3.50578125 -1.2421875 2.4140625 C-0.83226562 1.61742187 -0.42234375 0.82078125 0 0 Z " fill="#6D8088" transform="translate(206,8)"/>
<path d="M0 0 C0.33 0.99 0.66 1.98 1 3 C5.82380802 3.0246519 10.64757967 3.04283693 15.47143555 3.05493164 C17.11369464 3.05997174 18.75594923 3.06680378 20.39819336 3.07543945 C22.75375479 3.08751926 25.10925709 3.09323139 27.46484375 3.09765625 C28.57266457 3.10539818 28.57266457 3.10539818 29.7028656 3.11329651 C31.46898088 3.1134925 33.23497146 3.06194719 35 3 C35.33 2.67 35.66 2.34 36 2 C37.99958364 1.95919217 40.00045254 1.95745644 42 2 C42 2.99 42 3.98 42 5 C27.81 5 13.62 5 -1 5 C-0.67 3.35 -0.34 1.7 0 0 Z " fill="#A1B2BB" transform="translate(348,197)"/>
<path d="M0 0 C1.32 0 2.64 0 4 0 C3.88541307 1.43836751 3.75790884 2.87570966 3.625 4.3125 C3.55539062 5.11300781 3.48578125 5.91351563 3.4140625 6.73828125 C3 9 3 9 1 12 C1 11.01 1 10.02 1 9 C-0.98 9.99 -0.98 9.99 -3 11 C-3.6875 9.375 -3.6875 9.375 -4 7 C-1.72413793 1.72413793 -1.72413793 1.72413793 0 0 Z " fill="#607A83" transform="translate(321,159)"/>
<path d="M0 0 C5.28 0 10.56 0 16 0 C16 1.98 16 3.96 16 6 C15.34 6 14.68 6 14 6 C13.67 4.68 13.34 3.36 13 2 C11.68 2 10.36 2 9 2 C9 6.29 9 10.58 9 15 C8.67 15 8.34 15 8 15 C7.67 11.04 7.34 7.08 7 3 C5.35 2.67 3.7 2.34 2 2 C1.67 2.99 1.34 3.98 1 5 C0.67 5 0.34 5 0 5 C0 3.35 0 1.7 0 0 Z " fill="#6D7F87" transform="translate(416,213)"/>
<path d="M0 0 C1.84658203 -0.02126953 1.84658203 -0.02126953 3.73046875 -0.04296875 C6.8125 0.1875 6.8125 0.1875 8.8125 2.1875 C7.8225 2.1875 6.8325 2.1875 5.8125 2.1875 C6.1425 3.5075 6.4725 4.8275 6.8125 6.1875 C2.8525 5.8575 -1.1075 5.5275 -5.1875 5.1875 C-5.1875 4.5275 -5.1875 3.8675 -5.1875 3.1875 C-7.4975 2.8575 -9.8075 2.5275 -12.1875 2.1875 C-12.1875 1.8575 -12.1875 1.5275 -12.1875 1.1875 C-8.08770638 0.21135866 -4.20934446 0.02217779 0 0 Z " fill="#7D8E99" transform="translate(387.1875,132.8125)"/>
<path d="M0 0 C0.66 0.99 1.32 1.98 2 3 C2.99 2.67 3.98 2.34 5 2 C5.8125 4.0625 5.8125 4.0625 6 7 C4.58973707 9.54689275 2.86023965 11.76642506 1 14 C-1.1803075 10.72953875 -1.68959439 8.8800701 -2 5 C-1.0625 2.125 -1.0625 2.125 0 0 Z " fill="#526F79" transform="translate(93,243)"/>
<path d="M0 0 C0.99 0 1.98 0 3 0 C4.41404314 3.80024093 5.34892324 6.92922882 5 11 C4 12 4 12 0.9375 12.0625 C-0.031875 12.041875 -1.00125 12.02125 -2 12 C-2.17835515 7.45194365 -1.99785435 4.1205746 0 0 Z M0 7 C-0.33 8.32 -0.66 9.64 -1 11 C-0.01 11 0.98 11 2 11 C1.67 9.68 1.34 8.36 1 7 C0.67 7 0.34 7 0 7 Z " fill="#6A8288" transform="translate(321,213)"/>
<path d="M0 0 C7.26 0 14.52 0 22 0 C22.33 0.99 22.66 1.98 23 3 C21.0085944 3.38133299 19.00720923 3.71325582 17 4 C16.67 3.67 16.34 3.34 16 3 C14.31391034 2.92794489 12.62499341 2.91613932 10.9375 2.9375 C10.01839844 2.94652344 9.09929687 2.95554688 8.15234375 2.96484375 C7.44207031 2.97644531 6.73179687 2.98804688 6 3 C5.67 3.66 5.34 4.32 5 5 C2.525 4.01 2.525 4.01 0 3 C0 2.01 0 1.02 0 0 Z " fill="#8A9AA2" transform="translate(426,133)"/>
<path d="M0 0 C1.9375 2 1.9375 2 3 4 C3.66 4 4.32 4 5 4 C5 4.66 5 5.32 5 6 C2.1875 6.1875 2.1875 6.1875 -1 6 C-2 5 -3 4 -4 3 C-6.60648505 2.83789781 -6.60648505 2.83789781 -9 4 C-10.37466625 6.47636012 -10.37466625 6.47636012 -11 9 C-11.12375 8.360625 -11.2475 7.72125 -11.375 7.0625 C-11.684375 6.0415625 -11.684375 6.0415625 -12 5 C-12.66 4.67 -13.32 4.34 -14 4 C-9.79496388 -0.34068245 -5.80852441 -1.16844592 0 0 Z " fill="#8C99A1" transform="translate(413,213)"/>
<path d="M0 0 C6.8359375 -0.1953125 6.8359375 -0.1953125 9 0 C11 2 11 2 11.125 4.625 C11.08375 5.40875 11.0425 6.1925 11 7 C9.02 7.99 9.02 7.99 7 9 C6.34 6.69 5.68 4.38 5 2 C4.01 2 3.02 2 2 2 C1.67 6.62 1.34 11.24 1 16 C0.67 16 0.34 16 0 16 C0 10.72 0 5.44 0 0 Z " fill="#546974" transform="translate(300,214)"/>
<path d="M0 0 C1.1446875 0.495 1.1446875 0.495 2.3125 1 C7.68710383 2.45751968 13.7910234 2.9241399 19.2109375 1.36328125 C20.09652344 1.18345703 20.09652344 1.18345703 21 1 C21.66 1.66 22.32 2.32 23 3 C23.99 3 24.98 3 26 3 C23.60490662 5.89932357 21.68754757 6.50168276 18 7 C18 6.34 18 5.68 18 5 C11.07 4.505 11.07 4.505 4 4 C3.67 4.66 3.34 5.32 3 6 C3 5.34 3 4.68 3 4 C2.34 4 1.68 4 1 4 C0.67 2.68 0.34 1.36 0 0 Z " fill="#79919C" transform="translate(150,195)"/>
<path d="M0 0 C4.62 0 9.24 0 14 0 C14 1.98 14 3.96 14 6 C13.34 5.67 12.68 5.34 12 5 C12.33 3.68 12.66 2.36 13 1 C10.03 1 7.06 1 4 1 C4.02320313 1.90363281 4.04640625 2.80726563 4.0703125 3.73828125 C4.08835938 4.91777344 4.10640625 6.09726563 4.125 7.3125 C4.14820313 8.48425781 4.17140625 9.65601563 4.1953125 10.86328125 C4 14 4 14 2 17 C2 12.38 2 7.76 2 3 C1.34 3 0.68 3 0 3 C0 2.01 0 1.02 0 0 Z " fill="#ABBAC2" transform="translate(179,213)"/>
<path d="M0 0 C2.64 0 5.28 0 8 0 C8 0.99 8 1.98 8 3 C7.34 3 6.68 3 6 3 C6 8.61 6 14.22 6 20 C5.01 19.67 4.02 19.34 3 19 C3.66 19 4.32 19 5 19 C4.42547254 15.06924356 4.42547254 15.06924356 2 12 C2.0234375 9.8359375 2.0234375 9.8359375 2.375 7.375 C2.48585938 6.55773437 2.59671875 5.74046875 2.7109375 4.8984375 C2.80632812 4.27195313 2.90171875 3.64546875 3 3 C2.01 2.67 1.02 2.34 0 2 C0 1.34 0 0.68 0 0 Z " fill="#ADBFC7" transform="translate(273,213)"/>
<path d="M0 0 C2.64 0 5.28 0 8 0 C8 0.99 8 1.98 8 3 C7.34 3 6.68 3 6 3 C6 8.61 6 14.22 6 20 C5.01 19.67 4.02 19.34 3 19 C3.66 19 4.32 19 5 19 C4.42547254 15.06924356 4.42547254 15.06924356 2 12 C2.0234375 9.8359375 2.0234375 9.8359375 2.375 7.375 C2.48585937 6.55773437 2.59671875 5.74046875 2.7109375 4.8984375 C2.80632812 4.27195313 2.90171875 3.64546875 3 3 C2.01 2.67 1.02 2.34 0 2 C0 1.34 0 0.68 0 0 Z " fill="#ADBEC1" transform="translate(170,213)"/>
<path d="M0 0 C0 0.33 0 0.66 0 1 C-0.78246094 1.06058594 -1.56492187 1.12117187 -2.37109375 1.18359375 C-3.38300781 1.26738281 -4.39492188 1.35117188 -5.4375 1.4375 C-6.44683594 1.51871094 -7.45617187 1.59992188 -8.49609375 1.68359375 C-10.93640779 1.73211468 -10.93640779 1.73211468 -12 3 C-9.03 3.33 -6.06 3.66 -3 4 C-3 4.33 -3 4.66 -3 5 C-3.66386719 5.02578125 -4.32773437 5.0515625 -5.01171875 5.078125 C-10.54441741 5.43351002 -13.96566075 5.83118278 -18 10 C-18 7.33333333 -18 4.66666667 -18 2 C-12.12116651 -0.61281488 -6.29268272 -0.18328202 0 0 Z " fill="#82979E" transform="translate(476,132)"/>
<path d="M0 0 C2.375 -0.1875 2.375 -0.1875 5 0 C5.66 0.99 6.32 1.98 7 3 C6.01 3 5.02 3 4 3 C4.0868276 5.12577907 4.1949951 7.25069581 4.3125 9.375 C4.39951172 11.15003906 4.39951172 11.15003906 4.48828125 12.9609375 C4.65714844 13.96382812 4.82601562 14.96671875 5 16 C5.99 16.66 6.98 17.32 8 18 C8 18.66 8 19.32 8 20 C5.36 20 2.72 20 0 20 C0 19.34 0 18.68 0 18 C0.66 17.67 1.32 17.34 2 17 C2 12.71 2 8.42 2 4 C1.34 3.67 0.68 3.34 0 3 C0 2.01 0 1.02 0 0 Z " fill="#798790" transform="translate(158,213)"/>
<path d="M0 0 C5.61 0.66 11.22 1.32 17 2 C17 2.33 17 2.66 17 3 C15.02 3.33 13.04 3.66 11 4 C11 4.33 11 4.66 11 5 C13.97 5.495 13.97 5.495 17 6 C17 6.33 17 6.66 17 7 C11.72 7 6.44 7 1 7 C1.99 6.34 2.98 5.68 4 5 C2.68 4.34 1.36 3.68 0 3 C0 2.01 0 1.02 0 0 Z " fill="#80939E" transform="translate(213,196)"/>
<path d="M0 0 C1.98 0 3.96 0 6 0 C6 4.95 6 9.9 6 15 C5.01 15 4.02 15 3 15 C2.773125 13.9275 2.54625 12.855 2.3125 11.75 C0.86973455 7.62781299 -0.41910075 6.35585477 -4 4 C-2.02 3.67 -0.04 3.34 2 3 C2 3.99 2 4.98 2 6 C2.66 6.33 3.32 6.66 4 7 C4.33 5.02 4.66 3.04 5 1 C3.35 1 1.7 1 0 1 C0 0.67 0 0.34 0 0 Z " fill="#8398A1" transform="translate(477,133)"/>
<path d="M0 0 C0.99386719 0.00902344 1.98773438 0.01804687 3.01171875 0.02734375 C4.15060547 0.04474609 4.15060547 0.04474609 5.3125 0.0625 C4.9825 1.3825 4.6525 2.7025 4.3125 4.0625 C0.0225 4.0625 -4.2675 4.0625 -8.6875 4.0625 C-8.6875 3.0725 -8.6875 2.0825 -8.6875 1.0625 C-5.53819107 0.01273036 -3.29935544 -0.03881595 0 0 Z " fill="#304F5B" transform="translate(167.6875,120.9375)"/>
<path d="M0 0 C0.99 0 1.98 0 3 0 C3.14285714 7.42857143 3.14285714 7.42857143 2 11 C5.54518884 9.60240095 5.54518884 9.60240095 9 8 C9 9.32 9 10.64 9 12 C6.36 12 3.72 12 1 12 C0.67 10.68 0.34 9.36 0 8 C-1.98 8.33 -3.96 8.66 -6 9 C-4.7934375 7.88625 -4.7934375 7.88625 -3.5625 6.75 C-1.23011409 4.24695171 -0.36465606 3.2819045 0 0 Z " fill="#7F9498" transform="translate(297,188)"/>
<path d="M0 0 C1.40919383 2.44260263 2.02070175 4.16561399 2.375 7 C3.11364572 10.54549945 4.36797456 11.6226867 7 14 C7 14.66 7 15.32 7 16 C3.41209425 15.70100785 2.21833224 15.23013399 -0.3125 12.5625 C-2 10 -2 10 -2 8 C-1.34 8 -0.68 8 0 8 C0 7.34 0 6.68 0 6 C-0.66 5.67 -1.32 5.34 -2 5 C-1.34 3.35 -0.68 1.7 0 0 Z " fill="#71888D" transform="translate(205,217)"/>
<path d="M0 0 C0.33 0.99 0.66 1.98 1 3 C-0.75 6.1875 -0.75 6.1875 -3 9 C-3.99 9 -4.98 9 -6 9 C-6.66 9.66 -7.32 10.32 -8 11 C-9 8 -9 8 -8.3125 6 C-6.78584442 3.67366768 -5.41076663 2.38801715 -3 1 C-2.01 1.33 -1.02 1.66 0 2 C0 1.34 0 0.68 0 0 Z " fill="#526E79" transform="translate(483,188)"/>
<path d="M0 0 C2.125 0.375 2.125 0.375 4 1 C3.34 3.31 2.68 5.62 2 8 C0.35 7.67 -1.3 7.34 -3 7 C-2.25 2.25 -2.25 2.25 0 0 Z M-4 8 C-3.01 8.495 -3.01 8.495 -2 9 C-2.33 11.64 -2.66 14.28 -3 17 C-3.33 17 -3.66 17 -4 17 C-4 14.03 -4 11.06 -4 8 Z " fill="#324F59" transform="translate(455,136)"/>
<path d="M0 0 C2.64 0 5.28 0 8 0 C8 0.99 8 1.98 8 3 C7.34 3 6.68 3 6 3 C6 6.63 6 10.26 6 14 C5.67 14 5.34 14 5 14 C4.67 10.37 4.34 6.74 4 3 C3.67 6.96 3.34 10.92 3 15 C2.67 15 2.34 15 2 15 C2 11.04 2 7.08 2 3 C1.34 3 0.68 3 0 3 C0 2.01 0 1.02 0 0 Z " fill="#A9B9BF" transform="translate(433,213)"/>
<path d="M0 0 C1.21236328 0.02707031 1.21236328 0.02707031 2.44921875 0.0546875 C3.37154297 0.08949219 3.37154297 0.08949219 4.3125 0.125 C5.7731285 2.77238916 6.3125 4.01948334 6.3125 7.125 C5.3225 7.125 4.3325 7.125 3.3125 7.125 C2.9825 6.135 2.6525 5.145 2.3125 4.125 C-0.60232778 3.31532562 -2.14863217 2.90654007 -5 4.0625 C-5.556875 4.413125 -6.11375 4.76375 -6.6875 5.125 C-7.0175 4.135 -7.3475 3.145 -7.6875 2.125 C-4.48369983 -0.01086678 -3.66810033 -0.10632175 0 0 Z " fill="#8F9DA3" transform="translate(222.6875,212.875)"/>
<path d="M0 0 C0.33 0 0.66 0 1 0 C1.125 5.75 1.125 5.75 0 8 C-1.32796291 8.35412344 -2.66216607 8.68521554 -4 9 C-4.99 9.66 -5.98 10.32 -7 11 C-6.67 7.7 -6.34 4.4 -6 1 C-3.03 1.495 -3.03 1.495 0 2 C0 1.34 0 0.68 0 0 Z " fill="#36525F" transform="translate(483,182)"/>
<path d="M0 0 C0.66 0.66 1.32 1.32 2 2 C1.34 2 0.68 2 0 2 C0 1.34 0 0.68 0 0 Z M3 -1 C3.66 -1 4.32 -1 5 -1 C5.33 -0.01 5.66 0.98 6 2 C8.29160319 2.02692484 10.58329546 2.04636124 12.875 2.0625 C14.78925781 2.07990234 14.78925781 2.07990234 16.7421875 2.09765625 C19.88664652 2.23176569 19.88664652 2.23176569 22 1 C22.33 1.99 22.66 2.98 23 4 C16.73 4 10.46 4 4 4 C3.34 2.68 2.68 1.36 2 0 C2.33 -0.33 2.66 -0.66 3 -1 Z " fill="#7C909A" transform="translate(317,169)"/>
<path d="M0 0 C0 1.66666667 0 3.33333333 0 5 C-1.6045556 4.85851011 -3.20863767 4.71164314 -4.8125 4.5625 C-5.70582031 4.48128906 -6.59914063 4.40007812 -7.51953125 4.31640625 C-10 4 -10 4 -13 3 C-13 2.34 -13 1.68 -13 1 C-8.60563789 0.14256349 -4.47427924 -0.08948558 0 0 Z " fill="#748C93" transform="translate(56,153)"/>
<path d="M0 0 C-0.3125 2.375 -0.3125 2.375 -1 5 C-1.99 5.66 -2.98 6.32 -4 7 C-6.5 5.1875 -6.5 5.1875 -9 3 C-9 2.01 -9 1.02 -9 0 C-5.52176885 -1.15941038 -3.54104422 -0.70820884 0 0 Z " fill="#516977" transform="translate(402,135)"/>
<path d="M0 0 C1.65 0.99 3.3 1.98 5 3 C5.33 2.01 5.66 1.02 6 0 C6.33 0.66 6.66 1.32 7 2 C5.02 4.64 3.04 7.28 1 10 C0.67 9.34 0.34 8.68 0 8 C-2.52733235 7.34444881 -2.52733235 7.34444881 -5 7 C-4.360625 6.21625 -3.72125 5.4325 -3.0625 4.625 C-1.01857687 2.20460719 -1.01857687 2.20460719 0 0 Z " fill="#647C83" transform="translate(401,162)"/>
<path d="M0 0 C2.0703125 3.7109375 2.0703125 3.7109375 1.4375 6.3125 C-0.39618899 9.74070116 -2.39183995 13.09925789 -5 16 C-5.66 16 -6.32 16 -7 16 C-5.35433477 10.31497465 -2.70967216 5.23318364 0 0 Z " fill="#7E8F96" transform="translate(84,262)"/>
<path d="M0 0 C1.98 0.495 1.98 0.495 4 1 C4 3.97 4 6.94 4 10 C4.33 10 4.66 10 5 10 C5 11.98 5 13.96 5 16 C5.99 16 6.98 16 8 16 C8 16.66 8 17.32 8 18 C5.03 18 2.06 18 -1 18 C-1 17.34 -1 16.68 -1 16 C-0.34 15.67 0.32 15.34 1 15 C1.47001033 11.72444392 1.47001033 11.72444392 1.625 7.9375 C1.69976562 6.64714844 1.77453125 5.35679687 1.8515625 4.02734375 C1.90054687 3.02832031 1.94953125 2.02929688 2 1 C1.34 0.67 0.68 0.34 0 0 Z " fill="#899CA2" transform="translate(362,215)"/>
<path d="M0 0 C1.98 0 3.96 0 6 0 C6 0.33 6 0.66 6 1 C4.35 1 2.7 1 1 1 C1 2.98 1 4.96 1 7 C1.99 6.67 2.98 6.34 4 6 C4.33 5.34 4.66 4.68 5 4 C5.66 4 6.32 4 7 4 C7 6.31 7 8.62 7 11 C6.34 11 5.68 11 5 11 C5 10.34 5 9.68 5 9 C3.68 9 2.36 9 1 9 C1 10.98 1 12.96 1 15 C0.67 15 0.34 15 0 15 C0 10.05 0 5.1 0 0 Z " fill="#8699A2" transform="translate(184,215)"/>
<path d="M0 0 C0.33 0 0.66 0 1 0 C1.33 4.95 1.66 9.9 2 15 C4.31 15 6.62 15 9 15 C9 13.68 9 12.36 9 11 C9.99 11 10.98 11 12 11 C11.34 12.65 10.68 14.3 10 16 C4.72 16 -0.56 16 -6 16 C-6 15.67 -6 15.34 -6 15 C-4.02 15 -2.04 15 0 15 C0 10.05 0 5.1 0 0 Z " fill="#485E62" transform="translate(473,216)"/>
<path d="M0 0 C1.65 0 3.3 0 5 0 C5 4.95 5 9.9 5 15 C6.65 15.33 8.3 15.66 10 16 C10 16.66 10 17.32 10 18 C7.03 18 4.06 18 1 18 C1 17.34 1 16.68 1 16 C1.66 15.67 2.32 15.34 3 15 C3.47001033 11.72444392 3.47001033 11.72444392 3.625 7.9375 C3.69976562 6.64714844 3.77453125 5.35679687 3.8515625 4.02734375 C3.90054687 3.02832031 3.94953125 2.02929688 4 1 C2.68 0.67 1.36 0.34 0 0 Z " fill="#839399" transform="translate(347,215)"/>
<path d="M0 0 C1.98 0 3.96 0 6 0 C6 0.66 6 1.32 6 2 C5.34 2 4.68 2 4 2 C4.02320313 2.91523438 4.04640625 3.83046875 4.0703125 4.7734375 C4.08835937 5.96195313 4.10640625 7.15046875 4.125 8.375 C4.14820313 9.55835938 4.17140625 10.74171875 4.1953125 11.9609375 C4 15 4 15 2 17 C1.34 16.34 0.68 15.68 0 15 C0.33 14.34 0.66 13.68 1 13 C1.22858114 10.9625237 1.41024278 8.91959697 1.5625 6.875 C1.64628906 5.77929688 1.73007812 4.68359375 1.81640625 3.5546875 C1.87699219 2.71164063 1.93757813 1.86859375 2 1 C1.34 0.67 0.68 0.34 0 0 Z " fill="#69787B" transform="translate(446,214)"/>
<path d="M0 0 C1 1 1 1 1.0625 3.5625 C1.041875 4.366875 1.02125 5.17125 1 6 C0.34 6 -0.32 6 -1 6 C-1.66 5.01 -2.32 4.02 -3 3 C-3.66 3 -4.32 3 -5 3 C-5.99 4.98 -6.98 6.96 -8 9 C-8.66 8.34 -9.32 7.68 -10 7 C-9.8125 4.5 -9.8125 4.5 -9 2 C-5.55892734 -0.29404844 -4.03160191 -0.26293056 0 0 Z " fill="#86969E" transform="translate(342,213)"/>
<path d="M0 0 C2.64 0 5.28 0 8 0 C6.86653089 3.40040734 5.53733498 4.53729252 3 7 C1.97676564 8.31558703 0.96873032 9.64377755 0 11 C0 10.34 0 9.68 0 9 C-0.66 8.67 -1.32 8.34 -2 8 C-1.34 8 -0.68 8 0 8 C0.98120464 4.94736336 0.98120464 3.05263664 0 0 Z " fill="#90A1A9" transform="translate(240,213)"/>
<path d="M0 0 C0.66 0 1.32 0 2 0 C3.99825961 2.99738941 4.27550398 3.63347508 4.25 7 C4.25515625 7.680625 4.2603125 8.36125 4.265625 9.0625 C4 11 4 11 2 14 C1.17361624 11.10765685 1 9.11257569 1 6 C0.67 6.66 0.34 7.32 0 8 C-0.66 8 -1.32 8 -2 8 C-1.125 2.25 -1.125 2.25 0 0 Z " fill="#5B7077" transform="translate(314,174)"/>
<path d="M0 0 C0.66 0 1.32 0 2 0 C1.85831863 1.43791516 1.71148957 2.8753237 1.5625 4.3125 C1.48128906 5.11300781 1.40007812 5.91351563 1.31640625 6.73828125 C1 9 1 9 0 12 C-0.66 12 -1.32 12 -2 12 C-3.40457737 9.19084526 -3.24895157 7.11189466 -3 4 C-1.625 1.625 -1.625 1.625 0 0 Z " fill="#7E949C" transform="translate(214,216)"/>
<path d="M0 0 C1.32 0 2.64 0 4 0 C4 2.64 4 5.28 4 8 C5.98 8 7.96 8 10 8 C9.67 8.66 9.34 9.32 9 10 C7.35 9.67 5.7 9.34 4 9 C4 11.31 4 13.62 4 16 C3.34 16 2.68 16 2 16 C2 11.05 2 6.1 2 1 C1.34 0.67 0.68 0.34 0 0 Z " fill="#344E5A" transform="translate(144,214)"/>
<path d="M0 0 C0.66 0 1.32 0 2 0 C2.23460937 0.62390625 2.46921875 1.2478125 2.7109375 1.890625 C4.36823075 4.60255941 5.6141599 4.88975997 8.625 5.75 C9.85089844 6.11351562 9.85089844 6.11351562 11.1015625 6.484375 C11.72804687 6.65453125 12.35453125 6.8246875 13 7 C13 7.33 13 7.66 13 8 C11.41753293 8.08153933 9.83383727 8.13943557 8.25 8.1875 C7.36828125 8.22230469 6.4865625 8.25710937 5.578125 8.29296875 C2.55328417 7.94923684 1.24416398 6.99772541 -1 5 C-0.67 3.35 -0.34 1.7 0 0 Z " fill="#798D95" transform="translate(214,225)"/>
<path d="M0 0 C1.58246707 -0.08153933 3.16616273 -0.13943557 4.75 -0.1875 C6.07257813 -0.23970703 6.07257813 -0.23970703 7.421875 -0.29296875 C10.49201421 0.05591071 11.80981386 0.85037286 14 3 C14.25 5.6875 14.25 5.6875 14 8 C13.34 6.68 12.68 5.36 12 4 C11.34 5.32 10.68 6.64 10 8 C9.896875 7.360625 9.79375 6.72125 9.6875 6.0625 C9.460625 5.381875 9.23375 4.70125 9 4 C8.01 3.67 7.02 3.34 6 3 C6 5.31 6 7.62 6 10 C5.67 10 5.34 10 5 10 C5 7.36 5 4.72 5 2 C3.35 1.67 1.7 1.34 0 1 C0 0.67 0 0.34 0 0 Z " fill="#AEC2CA" transform="translate(362,213)"/>
<path d="M0 0 C-0.99 0.66 -1.98 1.32 -3 2 C-2.67 2.66 -2.34 3.32 -2 4 C-6.29 4.99 -10.58 5.98 -15 7 C-14 4 -14 4 -11.34765625 2.578125 C-10.26355469 2.13984375 -9.17945313 1.7015625 -8.0625 1.25 C-6.98097656 0.80140625 -5.89945313 0.3528125 -4.78515625 -0.109375 C-2 -1 -2 -1 0 0 Z " fill="#8D9FA6" transform="translate(15,202)"/>
<path d="M0 0 C4 0 4 0 7 1 C7 3.31 7 5.62 7 8 C5.35 8 3.7 8 2 8 C0.74335022 5.09399739 0 3.20395416 0 0 Z " fill="#8C9DA5" transform="translate(493,133)"/>
<path d="M0 0 C3.3 0 6.6 0 10 0 C9.01 0.495 9.01 0.495 8 1 C8 4.3 8 7.6 8 11 C7.67 11 7.34 11 7 11 C6.67 9.02 6.34 7.04 6 5 C3.69 4.34 1.38 3.68 -1 3 C-0.67 2.01 -0.34 1.02 0 0 Z " fill="#8E9EA4" transform="translate(365,133)"/>
<path d="M0 0 C2 0 2 0 3.578125 1.57421875 C5.23512002 3.66869143 6.73719687 5.64421899 8 8 C7.375 11 7.375 11 6 13 C2.84297684 9.09130466 0 5.1385061 0 0 Z " fill="#758A92" transform="translate(88,61)"/>
<path d="M0 0 C0.66 0 1.32 0 2 0 C2.33 2.97 2.66 5.94 3 9 C2.34 8.34 1.68 7.68 1 7 C0.01 12.94 -0.98 18.88 -2 25 C-2.33 25 -2.66 25 -3 25 C-2.53007706 16.52902072 -1.74640116 8.30812204 0 0 Z " fill="#97A8AF" transform="translate(154,39)"/>
<path d="M0 0 C0.66 0 1.32 0 2 0 C2.20496094 0.69867188 2.40992188 1.39734375 2.62109375 2.1171875 C2.89050781 3.02726563 3.15992188 3.93734375 3.4375 4.875 C3.83775391 6.23238281 3.83775391 6.23238281 4.24609375 7.6171875 C4.92613826 9.98275381 4.92613826 9.98275381 6 12 C5.01 12.33 4.02 12.66 3 13 C3 11.68 3 10.36 3 9 C2.34 8.67 1.68 8.34 1 8 C1.33 7.01 1.66 6.02 2 5 C1.34 5 0.68 5 0 5 C0 8.96 0 12.92 0 17 C-0.33 17 -0.66 17 -1 17 C-1.02691685 14.54159395 -1.04679802 12.08348118 -1.0625 9.625 C-1.07087891 8.92632812 -1.07925781 8.22765625 -1.08789062 7.5078125 C-1.11328125 2.2265625 -1.11328125 2.2265625 0 0 Z " fill="#84979B" transform="translate(144,183)"/>
<path d="M0 0 C0.33 0 0.66 0 1 0 C1 1.98 1 3.96 1 6 C1.66 6 2.32 6 3 6 C3 4.35 3 2.7 3 1 C3.33 1 3.66 1 4 1 C4.12375 1.969375 4.2475 2.93875 4.375 3.9375 C4.58125 4.948125 4.7875 5.95875 5 7 C5.66 7.33 6.32 7.66 7 8 C7 8.66 7 9.32 7 10 C4.03 10 1.06 10 -2 10 C-2 9.34 -2 8.68 -2 8 C-1.34 8 -0.68 8 0 8 C0 5.36 0 2.72 0 0 Z " fill="#8E9EA3" transform="translate(236,223)"/>
<path d="M0 0 C0.66 0.33 1.32 0.66 2 1 C1.360625 1.12375 0.72125 1.2475 0.0625 1.375 C-0.618125 1.58125 -1.29875 1.7875 -2 2 C-2.33 2.66 -2.66 3.32 -3 4 C-2.67 4.33 -2.34 4.66 -2 5 C-1.67 5.66 -1.34 6.32 -1 7 C-4.67410785 8.17571451 -8.16929183 8.07366746 -12 8 C-8.2646504 3.81188075 -5.22578394 1.77479455 0 0 Z " fill="#657B82" transform="translate(22,197)"/>
<path d="M0 0 C2.12472576 -0.05386629 4.24983652 -0.09273071 6.375 -0.125 C7.55835938 -0.14820313 8.74171875 -0.17140625 9.9609375 -0.1953125 C13 0 13 0 15 2 C12.23547967 3.38226016 9.9538637 3.09525387 6.875 3.0625 C5.77929688 3.05347656 4.68359375 3.04445312 3.5546875 3.03515625 C2.29011719 3.01775391 2.29011719 3.01775391 1 3 C0.67 2.01 0.34 1.02 0 0 Z " fill="#334F5A" transform="translate(155,199)"/>
<path d="M0 0 C0.66 0.33 1.32 0.66 2 1 C2 4.3 2 7.6 2 11 C2.66 11.33 3.32 11.66 4 12 C4 12.66 4 13.32 4 14 C1.36 14 -1.28 14 -4 14 C-4 13.34 -4 12.68 -4 12 C-3.34 11.67 -2.68 11.34 -2 11 C-1.30906104 8.42048126 -1.30906104 8.42048126 -0.875 5.4375 C-0.70742188 4.42558594 -0.53984375 3.41367188 -0.3671875 2.37109375 C-0.24601562 1.58863281 -0.12484375 0.80617187 0 0 Z " fill="#7D8F93" transform="translate(265,219)"/>
<path d="M0 0 C2.97 0 5.94 0 9 0 C8.67 0.99 8.34 1.98 8 3 C7.34 3 6.68 3 6 3 C6 6.3 6 9.6 6 13 C5.67 13 5.34 13 5 13 C5 9.7 5 6.4 5 3 C4.01 3.33 3.02 3.66 2 4 C1.34 3.67 0.68 3.34 0 3 C0 2.01 0 1.02 0 0 Z " fill="#93A4AC" transform="translate(377,213)"/>
<path d="M0 0 C0.94875 0.350625 1.8975 0.70125 2.875 1.0625 C2.875 1.7225 2.875 2.3825 2.875 3.0625 C5.35 4.0525 5.35 4.0525 7.875 5.0625 C7.875 5.3925 7.875 5.7225 7.875 6.0625 C0.25 5.1875 0.25 5.1875 -3.125 4.0625 C-3.125 3.4025 -3.125 2.7425 -3.125 2.0625 C-3.785 2.0625 -4.445 2.0625 -5.125 2.0625 C-5.125 1.4025 -5.125 0.7425 -5.125 0.0625 C-3.125 -0.9375 -3.125 -0.9375 0 0 Z " fill="#37515E" transform="translate(211.125,195.9375)"/>
<path d="M0 0 C0.66 0 1.32 0 2 0 C2.86375896 1.61992165 3.71575854 3.24611861 4.5625 4.875 C5.03816406 5.77992188 5.51382813 6.68484375 6.00390625 7.6171875 C6.33261719 8.40351563 6.66132812 9.18984375 7 10 C6.67 10.66 6.34 11.32 6 12 C5.34 11.67 4.68 11.34 4 11 C3.67 11.99 3.34 12.98 3 14 C2.01 9.38 1.02 4.76 0 0 Z " fill="#82949C" transform="translate(103,0)"/>
<path d="M0 0 C0.33 0 0.66 0 1 0 C1.24875561 2.26877104 1.47339246 4.54019735 1.6875 6.8125 C1.81511719 8.07707031 1.94273437 9.34164062 2.07421875 10.64453125 C2 14 2 14 0.78125 15.9375 C-2.3996643 17.83488748 -5.37233798 17.17840961 -9 17 C-7.8125 15.5 -7.8125 15.5 -6 14 C-4.35 14 -2.7 14 -1 14 C-0.67 9.38 -0.34 4.76 0 0 Z " fill="#9CAAB1" transform="translate(392,216)"/>
<path d="M0 0 C1.2065625 0.0309375 1.2065625 0.0309375 2.4375 0.0625 C1.1175 0.3925 -0.2025 0.7225 -1.5625 1.0625 C-1.5625 3.7025 -1.5625 6.3425 -1.5625 9.0625 C0.0875 9.0625 1.7375 9.0625 3.4375 9.0625 C2.7775 9.7225 2.1175 10.3825 1.4375 11.0625 C0.4475 10.7325 -0.5425 10.4025 -1.5625 10.0625 C-1.8925 11.7125 -2.2225 13.3625 -2.5625 15.0625 C-2.8925 15.0625 -3.2225 15.0625 -3.5625 15.0625 C-3.58935412 12.75006208 -3.60882841 10.4375373 -3.625 8.125 C-3.63660156 6.83722656 -3.64820313 5.54945313 -3.66015625 4.22265625 C-3.53232863 0.08615436 -3.53232863 0.08615436 0 0 Z " fill="#374E56" transform="translate(459.5625,213.9375)"/>
<path d="M0 0 C1 1 1 1 1.0625 3.5625 C1.041875 4.366875 1.02125 5.17125 1 6 C0.01 6 -0.98 6 -2 6 C-2 4.68 -2 3.36 -2 2 C-3.65 1.67 -5.3 1.34 -7 1 C-7 3.31 -7 5.62 -7 8 C-7.33 8 -7.66 8 -8 8 C-8 5.36 -8 2.72 -8 0 C-4.95694001 -0.97812643 -3.0322553 -1.04560527 0 0 Z " fill="#899CA2" transform="translate(208,215)"/>
<path d="M0 0 C4.29 0.33 8.58 0.66 13 1 C12.01 2.485 12.01 2.485 11 4 C8.1796875 4.29296875 8.1796875 4.29296875 4.875 4.1875 C3.23144531 4.14689453 3.23144531 4.14689453 1.5546875 4.10546875 C0.29011719 4.05326172 0.29011719 4.05326172 -1 4 C-0.67 2.68 -0.34 1.36 0 0 Z " fill="#344E56" transform="translate(457,198)"/>
<path d="M0 0 C-0.99 0.33 -1.98 0.66 -3 1 C-3 1.66 -3 2.32 -3 3 C-6.63 3 -10.26 3 -14 3 C-14.33 2.01 -14.66 1.02 -15 0 C-13.25093341 -0.19601608 -11.50068154 -0.38147403 -9.75 -0.5625 C-8.77546875 -0.66691406 -7.8009375 -0.77132812 -6.796875 -0.87890625 C-4.2368648 -0.98974468 -2.41851841 -0.77738092 0 0 Z " fill="#354F58" transform="translate(234,199)"/>
<path d="M0 0 C3.3 0 6.6 0 10 0 C10 0.99 10 1.98 10 3 C7.69 3.33 5.38 3.66 3 4 C2.67 4.99 2.34 5.98 2 7 C1.34 4.69 0.68 2.38 0 0 Z " fill="#8B9AA2" transform="translate(270,133)"/>
<path d="M0 0 C9.41002278 -0.18451025 9.41002278 -0.18451025 14 1 C13.67 1.99 13.34 2.98 13 4 C3.58997722 3.03644647 3.58997722 3.03644647 -1 2 C-0.67 1.34 -0.34 0.68 0 0 Z " fill="#334D58" transform="translate(220,133)"/>
<path d="M0 0 C0.556875 0.226875 1.11375 0.45375 1.6875 0.6875 C0.6975 0.6875 -0.2925 0.6875 -1.3125 0.6875 C-1.3125 1.6775 -1.3125 2.6675 -1.3125 3.6875 C-0.3225 4.0175 0.6675 4.3475 1.6875 4.6875 C-3.0625 7.5625 -3.0625 7.5625 -5.3125 8.6875 C-5.9725 6.7075 -6.6325 4.7275 -7.3125 2.6875 C-2.88173077 -0.38942308 -2.88173077 -0.38942308 0 0 Z " fill="#6C7F8B" transform="translate(160.3125,121.3125)"/>
<path d="M0 0 C1.32 0.33 2.64 0.66 4 1 C4.66 3.31 5.32 5.62 6 8 C5.01 8 4.02 8 3 8 C2.34 8.99 1.68 9.98 1 11 C-0.17571451 7.32589215 -0.07366746 3.83070817 0 0 Z " fill="#5F7781" transform="translate(107,11)"/>
<path d="M0 0 C0.99 0 1.98 0 3 0 C3 2.97 3 5.94 3 9 C2.01 9.33 1.02 9.66 0 10 C-1.125 3.375 -1.125 3.375 0 0 Z " fill="#61747D" transform="translate(398,218)"/>
<path d="M0 0 C0.66 0 1.32 0 2 0 C4.45 9.1 4.45 9.1 3 12 C2.01 12 1.02 12 0 12 C0 8.04 0 4.08 0 0 Z " fill="#364E53" transform="translate(144,188)"/>
<path d="M0 0 C1.32 0.33 2.64 0.66 4 1 C3.67 3.31 3.34 5.62 3 8 C1.35 8 -0.3 8 -2 8 C-1.34 5.36 -0.68 2.72 0 0 Z " fill="#6E858C" transform="translate(463,215)"/>
<path d="M0 0 C3.3 0 6.6 0 10 0 C10 0.33 10 0.66 10 1 C7.69 1 5.38 1 3 1 C3 6.61 3 12.22 3 18 C2.34 17.67 1.68 17.34 1 17 C1.33 12.38 1.66 7.76 2 3 C1.34 3 0.68 3 0 3 C0 2.01 0 1.02 0 0 Z " fill="#9EAEBA" transform="translate(297,213)"/>
<path d="M0 0 C2.83333333 4.25 2.83333333 4.25 3 7 C1.0625 9.25 1.0625 9.25 -1 11 C-1.66 10.34 -2.32 9.68 -3 9 C-2.01 6.03 -1.02 3.06 0 0 Z " fill="#60727C" transform="translate(87,256)"/>
<path d="M0 0 C0.66 0 1.32 0 2 0 C1.67 1.98 1.34 3.96 1 6 C-3.62 6 -8.24 6 -13 6 C-13 5.67 -13 5.34 -13 5 C-11.02 4.67 -9.04 4.34 -7 4 C-7 3.67 -7 3.34 -7 3 C-6.030625 2.87625 -5.06125 2.7525 -4.0625 2.625 C-2.5465625 2.315625 -2.5465625 2.315625 -1 2 C-0.67 1.34 -0.34 0.68 0 0 Z " fill="#B1BEC4" transform="translate(192,227)"/>
<path d="M0 0 C1.75 0.125 1.75 0.125 4 1 C6.25 4.0625 6.25 4.0625 8 7 C6.35 7.33 4.7 7.66 3 8 C0 3.375 0 3.375 0 0 Z " fill="#687E84" transform="translate(305,224)"/>
<path d="M0 0 C4.875 4.625 4.875 4.625 6 8 C3.21788056 7.62403791 1.4120716 7.32681541 -0.8125 5.5625 C-2 4 -2 4 -2 2 C-1.34 2 -0.68 2 0 2 C0 1.34 0 0.68 0 0 Z " fill="#74898E" transform="translate(373,225)"/>
<path d="M0 0 C1.98567708 0.5859375 3.97135417 1.171875 5.95703125 1.7578125 C5.62703125 2.4178125 5.29703125 3.0778125 4.95703125 3.7578125 C1.65703125 3.7578125 -1.64296875 3.7578125 -5.04296875 3.7578125 C-5.04296875 3.0978125 -5.04296875 2.4378125 -5.04296875 1.7578125 C-2.04296875 -0.2421875 -2.04296875 -0.2421875 0 0 Z " fill="#354E5E" transform="translate(277.04296875,197.2421875)"/>
<path d="M0 0 C0.66 0 1.32 0 2 0 C1.01 4.29 0.02 8.58 -1 13 C-1.99 12.01 -2.98 11.02 -4 10 C-3.52449439 8.51965236 -3.04448784 7.04074979 -2.5625 5.5625 C-2.29566406 4.73878906 -2.02882812 3.91507813 -1.75390625 3.06640625 C-1 1 -1 1 0 0 Z " fill="#95A8AF" transform="translate(206,8)"/>
<path d="M0 0 C0.33 0.99 0.66 1.98 1 3 C3.50447516 4.21869929 3.50447516 4.21869929 6 5 C6 5.99 6 6.98 6 8 C4.33388095 8.042721 2.66617115 8.04063832 1 8 C0 7 0 7 -0.0625 3.4375 C-0.041875 2.303125 -0.02125 1.16875 0 0 Z " fill="#5D777D" transform="translate(334,216)"/>
<path d="M0 0 C1.67542976 0.28604898 3.34385343 0.61781233 5 1 C4.34 1.66 3.68 2.32 3 3 C1.68 2.34 0.36 1.68 -1 1 C-0.67 0.67 -0.34 0.34 0 0 Z M-2 2 C-1.67 2.66 -1.34 3.32 -1 4 C-0.34 4 0.32 4 1 4 C1 4.66 1 5.32 1 6 C3.97 6.495 3.97 6.495 7 7 C4.83032311 7.95465783 3.43671207 8.14401212 1.17578125 7.3984375 C-0.5684743 6.64129615 -2.28627131 5.82390802 -4 5 C-3.34 4.67 -2.68 4.34 -2 4 C-2 3.34 -2 2.68 -2 2 Z " fill="#687E88" transform="translate(207,194)"/>
<path d="M0 0 C0.66 0.33 1.32 0.66 2 1 C1.67 1.66 1.34 2.32 1 3 C1.66 3.33 2.32 3.66 3 4 C2.443125 4.061875 1.88625 4.12375 1.3125 4.1875 C-1.94987173 5.33373872 -3.68667874 7.49390197 -6 10 C-6 6.41087588 -5.33563446 5.89142971 -3 3.3125 C-2.443125 2.68988281 -1.88625 2.06726563 -1.3125 1.42578125 C-0.879375 0.95527344 -0.44625 0.48476562 0 0 Z " fill="#6A808A" transform="translate(198,140)"/>
<path d="M0 0 C3.63 0 7.26 0 11 0 C11.33 0.66 11.66 1.32 12 2 C11.01 2.33 10.02 2.66 9 3 C9 2.34 9 1.68 9 1 C7.68 1.33 6.36 1.66 5 2 C4.67 3.32 4.34 4.64 4 6 C3.34 6 2.68 6 2 6 C1.34 4.02 0.68 2.04 0 0 Z " fill="#344E56" transform="translate(431,135)"/>
<path d="M0 0 C0.99 0 1.98 0 3 0 C3 2.31 3 4.62 3 7 C1.35 6.67 -0.3 6.34 -2 6 C-1.125 1.125 -1.125 1.125 0 0 Z " fill="#425E64" transform="translate(199,25)"/>
<path d="M0 0 C0.33 0.66 0.66 1.32 1 2 C1.66 2 2.32 2 3 2 C3.33 1.34 3.66 0.68 4 0 C4.66 0.66 5.32 1.32 6 2 C4.54462432 2.83848804 3.08559627 3.67063934 1.625 4.5 C0.40683594 5.19609375 0.40683594 5.19609375 -0.8359375 5.90625 C-3 7 -3 7 -5 7 C-3.70700306 4.11562221 -2.34058637 2.12780579 0 0 Z " fill="#8EA0A4" transform="translate(71,216)"/>
<path d="M0 0 C2.64 0 5.28 0 8 0 C7.01 0.495 7.01 0.495 6 1 C5.34786708 3.02463255 5.34786708 3.02463255 5 5 C3.35 4.67 1.7 4.34 0 4 C0 2.68 0 1.36 0 0 Z " fill="#385363" transform="translate(174,122)"/>
<path d="M0 0 C5.94 0.66 11.88 1.32 18 2 C18 2.33 18 2.66 18 3 C13.545 3.495 13.545 3.495 9 4 C9 3.34 9 2.68 9 2 C7.329375 2.2784375 7.329375 2.2784375 5.625 2.5625 C2 3 2 3 0 2 C0 1.34 0 0.68 0 0 Z " fill="#9DADB2" transform="translate(47,119)"/>
<path d="M0 0 C3.36720387 1.39332574 4.9859524 2.9789286 7 6 C4 6 4 6 2 5 C1.01 5.33 0.02 5.66 -1 6 C-0.67 4.02 -0.34 2.04 0 0 Z " fill="#4A686C" transform="translate(95,69)"/>
<path d="M0 0 C0.99 0 1.98 0 3 0 C3.66 1.98 4.32 3.96 5 6 C3.824375 5.9690625 3.824375 5.9690625 2.625 5.9375 C0.01885039 5.81315937 0.01885039 5.81315937 -2 7 C-1.34 4.69 -0.68 2.38 0 0 Z " fill="#728997" transform="translate(330,132)"/>
<path d="M0 0 C1.46067199 0.45082469 2.91848032 0.91093537 4.375 1.375 C5.18710937 1.63023438 5.99921875 1.88546875 6.8359375 2.1484375 C9 3 9 3 11 5 C8.3125 5.75 8.3125 5.75 5 6 C2.125 4.1875 2.125 4.1875 0 2 C0 1.34 0 0.68 0 0 Z " fill="#909DA5" transform="translate(23,68)"/>
<path d="M0 0 C0.66 0 1.32 0 2 0 C3.125 1.6875 3.125 1.6875 4 4 C3.125 6.75 3.125 6.75 2 9 C1.01 8.67 0.02 8.34 -1 8 C-0.34 7.67 0.32 7.34 1 7 C0.4740625 5.824375 0.4740625 5.824375 -0.0625 4.625 C-0.371875 3.75875 -0.68125 2.8925 -1 2 C-0.67 1.34 -0.34 0.68 0 0 Z " fill="#335157" transform="translate(313,180)"/>
<path d="M0 0 C0.66 0.33 1.32 0.66 2 1 C0.515 3.475 0.515 3.475 -1 6 C-0.34 6.33 0.32 6.66 1 7 C-0.65 8.32 -2.3 9.64 -4 11 C-3.56179109 6.44262737 -3.14958831 3.42346555 0 0 Z " fill="#5F7076" transform="translate(151,125)"/>
<path d="M0 0 C2.00720923 0.28674418 4.0085944 0.61866701 6 1 C1.375 5 1.375 5 -2 5 C-1.125 1.125 -1.125 1.125 0 0 Z " fill="#5B727D" transform="translate(78,212)"/>
<path d="M0 0 C0.99 0.33 1.98 0.66 3 1 C2.34 1 1.68 1 1 1 C0.67 2.32 0.34 3.64 0 5 C-3.75 6.125 -3.75 6.125 -6 5 C-4.59240479 2.18480957 -2.77416723 1.38708362 0 0 Z " fill="#395059" transform="translate(24,197)"/>
<path d="M0 0 C3.465 1.98 3.465 1.98 7 4 C5.625 6.5 5.625 6.5 4 9 C3.34 9 2.68 9 2 9 C2.33 7.68 2.66 6.36 3 5 C2.01 4.67 1.02 4.34 0 4 C0 2.68 0 1.36 0 0 Z " fill="#5F6F79" transform="translate(452,193)"/>
<path d="M0 0 C1.04220703 0.47566406 1.04220703 0.47566406 2.10546875 0.9609375 C5.26188644 2.09401052 7.97280167 2.40480011 11.3125 2.625 C12.91544922 2.73714844 12.91544922 2.73714844 14.55078125 2.8515625 C15.35902344 2.90054688 16.16726563 2.94953125 17 3 C17 3.33 17 3.66 17 4 C11.72 4 6.44 4 1 4 C0.67 2.68 0.34 1.36 0 0 Z " fill="#7F959F" transform="translate(273,194)"/>
<path d="M0 0 C2.31 0 4.62 0 7 0 C6.67 1.32 6.34 2.64 6 4 C2.7 4 -0.6 4 -4 4 C-4 3.67 -4 3.34 -4 3 C-1.36 3 1.28 3 4 3 C4 2.34 4 1.68 4 1 C2.68 0.67 1.36 0.34 0 0 Z " fill="#4D6976" transform="translate(166,121)"/>
<path d="M0 0 C1.32 0.66 2.64 1.32 4 2 C2.35 3.65 0.7 5.3 -1 7 C-2.32 6.34 -3.64 5.68 -5 5 C-3.625 3.5 -3.625 3.5 -2 2 C-1.34 2 -0.68 2 0 2 C0 1.34 0 0.68 0 0 Z " fill="#5E717D" transform="translate(52,82)"/>
<path d="M0 0 C0.99 0 1.98 0 3 0 C3.99 2.64 4.98 5.28 6 8 C5.34 8.66 4.68 9.32 4 10 C3.32845067 8.71086513 2.66291141 7.41859796 2 6.125 C1.62875 5.40570313 1.2575 4.68640625 0.875 3.9453125 C0 2 0 2 0 0 Z " fill="#6D7D86" transform="translate(95,75)"/>
<path d="M0 0 C0.66 0 1.32 0 2 0 C1.67 2.97 1.34 5.94 1 9 C0.01 9 -0.98 9 -2 9 C-2 7.68 -2 6.36 -2 5 C-1.34 5 -0.68 5 0 5 C0 3.35 0 1.7 0 0 Z " fill="#526C79" transform="translate(190,64)"/>
<path d="M0 0 C2.475 0.99 2.475 0.99 5 2 C5 2.66 5 3.32 5 4 C2.36 4 -0.28 4 -3 4 C-3 3.34 -3 2.68 -3 2 C-2.01 2 -1.02 2 0 2 C0 1.34 0 0.68 0 0 Z " fill="#798D92" transform="translate(255,229)"/>
<path d="M0 0 C1.65 0 3.3 0 5 0 C5.66 1.32 6.32 2.64 7 4 C4.69 3.67 2.38 3.34 0 3 C0 2.01 0 1.02 0 0 Z " fill="#8DA1A5" transform="translate(261,213)"/>
<path d="M0 0 C0.99 0.33 1.98 0.66 3 1 C2.67 2.65 2.34 4.3 2 6 C1.34 6 0.68 6 0 6 C0 5.34 0 4.68 0 4 C-0.66 4 -1.32 4 -2 4 C-2 3.01 -2 2.02 -2 1 C-1.34 0.67 -0.68 0.34 0 0 Z " fill="#405860" transform="translate(245,189)"/>
<path d="M0 0 C1.65 0 3.3 0 5 0 C4.67 2.64 4.34 5.28 4 8 C3.34 8 2.68 8 2 8 C2 6.02 2 4.04 2 2 C1.34 2 0.68 2 0 2 C0 1.34 0 0.68 0 0 Z " fill="#95A2A8" transform="translate(486,133)"/>
<path d="M0 0 C0.66 0.99 1.32 1.98 2 3 C0.6875 5.9375 0.6875 5.9375 -1 9 C-1.99 9.33 -2.98 9.66 -4 10 C-2.8905928 6.51329166 -1.73662334 3.22515763 0 0 Z " fill="#74888E" transform="translate(182,58)"/>
<path d="M0 0 C2.12508244 3.18762365 2.5020163 5.26512223 3 9 C2.67 8.01 2.34 7.02 2 6 C1.34 6 0.68 6 0 6 C-0.33 6.66 -0.66 7.32 -1 8 C-2 6 -2 6 -1.0625 2.875 C-0.5365625 1.451875 -0.5365625 1.451875 0 0 Z " fill="#49666F" transform="translate(155,45)"/>
<path d="M0 0 C0.33 0.99 0.66 1.98 1 3 C3.97 3.33 6.94 3.66 10 4 C10 4.33 10 4.66 10 5 C5.71 5 1.42 5 -3 5 C-2.01 3.35 -1.02 1.7 0 0 Z " fill="#455763" transform="translate(182,227)"/>
<path d="M0 0 C1.98 0.99 1.98 0.99 4 2 C3.67 4.31 3.34 6.62 3 9 C2.34 9 1.68 9 1 9 C0.67 6.03 0.34 3.06 0 0 Z " fill="#39525D" transform="translate(236,220)"/>
<path d="M0 0 C2.64 0 5.28 0 8 0 C7.34 1.32 6.68 2.64 6 4 C4.02 3.34 2.04 2.68 0 2 C0 1.34 0 0.68 0 0 Z " fill="#869398" transform="translate(222,223)"/>
<path d="M0 0 C2.375 -0.1875 2.375 -0.1875 5 0 C5.66 0.99 6.32 1.98 7 3 C6.01 3 5.02 3 4 3 C3.67 3.99 3.34 4.98 3 6 C1.5 4.6875 1.5 4.6875 0 3 C0 2.01 0 1.02 0 0 Z " fill="#94A8AF" transform="translate(158,213)"/>
<path d="M0 0 C0.66 1.32 1.32 2.64 2 4 C-0.475 5.485 -0.475 5.485 -3 7 C-3.66 6.34 -4.32 5.68 -5 5 C-3.35 3.35 -1.7 1.7 0 0 Z " fill="#526772" transform="translate(102,184)"/>
<path d="M0 0 C0.66 0.33 1.32 0.66 2 1 C1.1875 3.4375 1.1875 3.4375 0 6 C-0.99 6.33 -1.98 6.66 -3 7 C-2.25 2.25 -2.25 2.25 0 0 Z " fill="#56727E" transform="translate(455,136)"/>
<path d="M0 0 C1.66611905 -0.042721 3.33382885 -0.04063832 5 0 C5.33 0.33 5.66 0.66 6 1 C7.66617115 1.04063832 9.33388095 1.042721 11 1 C8.08291076 2.98362069 6.87619096 2.9876191 3.25 2.625 C2.1775 2.41875 1.105 2.2125 0 2 C0 1.34 0 0.68 0 0 Z " fill="#4B626A" transform="translate(51,121)"/>
<path d="M0 0 C0.99 0.33 1.98 0.66 3 1 C4.03039555 5.53374042 4.17766075 6.64467851 2 11 C1.34 7.37 0.68 3.74 0 0 Z " fill="#6B8288" transform="translate(112,34)"/>
<path d="M0 0 C-0.33 0.99 -0.66 1.98 -1 3 C-3.64 3 -6.28 3 -9 3 C-9 2.34 -9 1.68 -9 1 C-2.25 0 -2.25 0 0 0 Z " fill="#6E7F82" transform="translate(448,230)"/>
<path d="M0 0 C0.66 0 1.32 0 2 0 C1.34 2.64 0.68 5.28 0 8 C-0.66 8 -1.32 8 -2 8 C-2.125 5.125 -2.125 5.125 -2 2 C-1.34 1.34 -0.68 0.68 0 0 Z " fill="#445B60" transform="translate(214,216)"/>
<path d="M0 0 C0.66 0 1.32 0 2 0 C1.50769231 5.53846154 1.50769231 5.53846154 -1.0625 7.875 C-2.0215625 8.431875 -2.0215625 8.431875 -3 9 C-2.01 6.03 -1.02 3.06 0 0 Z " fill="#5E7983" transform="translate(116,195)"/>
<path d="M0 0 C1.32 0 2.64 0 4 0 C3.67 1.65 3.34 3.3 3 5 C1.68 4.67 0.36 4.34 -1 4 C-0.67 2.68 -0.34 1.36 0 0 Z " fill="#34535C" transform="translate(321,159)"/>
<path d="M0 0 C1.32 0.66 2.64 1.32 4 2 C3.34 2 2.68 2 2 2 C2 3.65 2 5.3 2 7 C0.68 6.34 -0.64 5.68 -2 5 C-1.34 3.35 -0.68 1.7 0 0 Z " fill="#6C8288" transform="translate(42,77)"/>
<path d="M0 0 C2.475 0.495 2.475 0.495 5 1 C5 2.32 5 3.64 5 5 C3.68 4.67 2.36 4.34 1 4 C0.67 2.68 0.34 1.36 0 0 Z " fill="#596F77" transform="translate(165,220)"/>
<path d="M0 0 C0.99 0.33 1.98 0.66 3 1 C1.515 4.465 1.515 4.465 0 8 C-0.66 7.34 -1.32 6.68 -2 6 C-1.44444444 1.44444444 -1.44444444 1.44444444 0 0 Z " fill="#94A2A9" transform="translate(334,214)"/>
<path d="M0 0 C0.33 0.66 0.66 1.32 1 2 C1.66 2.33 2.32 2.66 3 3 C1.71937515 4.7074998 0.38232443 6.37373596 -1 8 C-1.66 8 -2.32 8 -3 8 C-1.125 2.25 -1.125 2.25 0 0 Z " fill="#627984" transform="translate(112,204)"/>
<path d="M0 0 C0.33 0 0.66 0 1 0 C1.144375 1.11375 1.28875 2.2275 1.4375 3.375 C1.78372035 6.82142047 1.78372035 6.82142047 3 9 C1.68 9.33 0.36 9.66 -1 10 C-0.67 6.7 -0.34 3.4 0 0 Z " fill="#8399A5" transform="translate(442,190)"/>
<path d="M0 0 C2.64 0.99 5.28 1.98 8 3 C6.68 3.33 5.36 3.66 4 4 C3.67 4.66 3.34 5.32 3 6 C3 5.34 3 4.68 3 4 C2.34 4 1.68 4 1 4 C0.67 2.68 0.34 1.36 0 0 Z " fill="#607581" transform="translate(150,195)"/>
<path d="M0 0 C3.875 1.75 3.875 1.75 5 4 C3.35 4.33 1.7 4.66 0 5 C-0.33 4.01 -0.66 3.02 -1 2 C-0.67 1.34 -0.34 0.68 0 0 Z " fill="#5A6F80" transform="translate(201,187)"/>
<path d="M0 0 C0.99 0.33 1.98 0.66 3 1 C3 3.31 3 5.62 3 8 C2.34 8 1.68 8 1 8 C0.67 5.36 0.34 2.72 0 0 Z " fill="#94A5AD" transform="translate(497,133)"/>
<path d="M0 0 C2.31 1.65 4.62 3.3 7 5 C5 6 5 6 1 6 C0.67 4.02 0.34 2.04 0 0 Z " fill="#6F7F88" transform="translate(419,192)"/>
<path d="M0 0 C1.5 1.375 1.5 1.375 3 3 C3 3.66 3 4.32 3 5 C2.34 5 1.68 5 1 5 C1 5.66 1 6.32 1 7 C0.34 7 -0.32 7 -1 7 C-0.67 4.69 -0.34 2.38 0 0 Z " fill="#59707B" transform="translate(311,182)"/>
<path d="M0 0 C2.56687367 3.8503105 1.83288724 5.58569763 1 10 C-1.08351471 6.09340991 -1.13112345 4.24171294 0 0 Z " fill="#637C83" transform="translate(316,178)"/>
<path d="M0 0 C0.66 0 1.32 0 2 0 C2 0.66 2 1.32 2 2 C2.66 2 3.32 2 4 2 C4.33 3.65 4.66 5.3 5 7 C2.5 5.1875 2.5 5.1875 0 3 C0 2.01 0 1.02 0 0 Z " fill="#576873" transform="translate(455,160)"/>
<path d="M0 0 C1.65 0 3.3 0 5 0 C4.34 1.32 3.68 2.64 3 4 C1.35 4 -0.3 4 -2 4 C-1.34 2.68 -0.68 1.36 0 0 Z " fill="#304E5D" transform="translate(56,153)"/>
<path d="M0 0 C0.66 0.99 1.32 1.98 2 3 C1.1875 4.9375 1.1875 4.9375 0 7 C-0.99 7.33 -1.98 7.66 -3 8 C-1.125 2.25 -1.125 2.25 0 0 Z " fill="#657C85" transform="translate(174,75)"/>
<path d="M0 0 C1.32 0 2.64 0 4 0 C3.67 1.32 3.34 2.64 3 4 C1.68 3.67 0.36 3.34 -1 3 C-0.67 2.01 -0.34 1.02 0 0 Z " fill="#4D6269" transform="translate(38,77)"/>
</svg>
