<svg width="490" height="476" viewBox="0 0 490 476" fill="none" xmlns="http://www.w3.org/2000/svg">
<path d="M290.667 1.10018C292.533 1.63351 296.667 2.83351 300 3.76684C335.333 13.5002 360.933 28.4335 384.133 52.7002C416.8 86.8335 431.733 136.434 422.667 180.967C414.533 220.7 396.933 253.634 368.267 282.434C343.2 307.5 327.067 319.367 297.067 334.434C275.6 345.367 257.733 351.5 230 357.9C215.067 361.367 212 361.634 184.667 361.5C157.467 361.5 154.267 361.234 140.667 357.9C124.267 354.034 112 350.434 110 349.1C109.333 348.567 105.733 347.1 102 345.767C60.9333 330.7 19.4667 288.567 6.26667 248.434C5.06667 244.7 3.2 239.1 2.13333 235.767L0.133333 229.767L0 235.634C0 238.967 0.533333 243.367 1.33333 245.634C2 247.9 3.86667 254.3 5.46667 259.767C14.8 292.834 41.3333 325.367 76.6667 347.367C99.0667 361.1 115.467 367.9 142.667 374.567C160.4 378.967 161.067 379.1 191.333 378.967C219.733 378.967 223.333 378.7 239.333 375.234C330 355.9 408 290.567 434 212.434C439.467 195.767 439.733 194.567 442 181.1C448.133 142.567 439.6 102.967 417.867 70.1668C406.133 52.5668 375.333 26.9668 355.467 18.4335C352.4 17.2335 347.333 14.9668 344 13.3668C334.533 9.10018 310.933 2.56684 300 1.10018C288.267 -0.366491 286.133 -0.366491 290.667 1.10018Z" fill="#065F46"/>
<path d="M208.667 11.1005C144.533 20.7005 84.8 61.3672 55.0667 115.767C33.0667 155.9 35.2 206.301 60.5334 244.301C82.2667 276.967 113.333 296.434 156.533 304.434C180.4 308.834 197.2 308.834 221.333 304.567C238.4 301.501 245.2 299.767 251.333 296.967C252.8 296.434 257.333 294.567 261.333 293.101C282 285.101 305.6 268.834 324.267 249.634C345.333 227.901 354.8 213.1 362.8 189.367C366.4 178.7 366.667 176.567 366.667 156.834C366.667 137.767 366.4 134.834 363.333 126.167C356.8 107.5 343.333 87.5005 329.467 75.9005C321.467 69.1005 310.8 61.1005 310 61.1005C309.6 61.1005 306.533 59.3672 303.067 57.2338C294.133 51.7672 276.267 45.7672 261.467 43.2338C211.2 34.7005 154.4 52.4338 115.867 88.8338C101.2 102.7 93.0667 113.634 84.6667 131.234C75.2 150.7 72.6667 162.967 73.7334 183.767C74.1334 192.167 75.3334 202.034 76.4 205.767C78.6667 213.634 85.4667 227.634 89.7334 232.701C97.0667 241.767 107.2 251.767 108.933 251.767C110.133 251.767 110.667 249.501 110.667 242.967C110.667 221.634 126.8 190.167 148.267 169.634C172 146.834 192.8 134.434 220.933 126.3C234.533 122.434 236.667 122.167 258 122.034C277.867 121.9 281.867 122.3 290.667 124.967C303.867 128.967 317.067 136.034 324.933 143.234C328.4 146.434 331.867 149.1 332.4 149.1C332.933 149.1 333.067 146.834 332.533 144.034C326.8 110.567 304.133 86.4338 267.333 74.9672C256.267 71.5005 253.733 71.2338 234 71.2338C214.667 71.2338 211.467 71.6338 200 74.9672C183.333 79.7672 176.4 82.8338 162.533 91.1005C148.933 99.3672 147.6 100.434 134.933 112.434C112.533 133.767 98.9334 162.034 94.6667 196.434C93.8667 202.967 92.9334 208.567 92.5334 208.967C91.4667 210.167 92 182.834 93.4667 174.434C96.8 153.234 108.133 130.567 125.067 111.1C130.133 105.234 136.4 98.7005 139.067 96.7005C141.6 94.8338 144.533 92.3005 145.6 91.3672C156 81.1005 189.067 65.2338 210.533 60.1672C224.8 56.8338 262.533 56.8338 274 60.1672C302 68.4338 322.267 82.4338 336.4 103.5C355.067 131.1 355.2 174.034 336.667 207.234C310 254.834 250.933 288.967 191.333 291.234C181.067 291.634 168.133 291.367 162.667 290.701C141.867 288.034 120 279.901 104 268.967C94.1334 262.301 77.4667 244.967 70.9334 234.834C39.7334 186.034 54.1334 123.234 107.333 75.2338C122.667 61.3672 144 47.1005 157.333 41.9005C160.667 40.5672 165.2 38.7005 167.333 37.7672C173.733 34.8338 190.133 30.3005 204.667 27.6338C228 23.3672 265.067 24.7005 284 30.7005C314.8 40.3005 334.533 51.6338 352.533 70.0338C367.467 85.1005 378.933 106.167 383.867 127.1C387.333 141.767 387.733 167.9 384.533 183.234C382 195.367 372.4 218.034 364.667 229.767C338.267 270.034 293.733 301.367 238.667 318.301C209.467 327.234 168.533 327.501 137.333 318.967C112 312.034 88.8 299.101 67.8667 280.301C41.2 256.434 26.6667 228.7 22.8 194.434C20 169.634 25.2 139.767 36.1334 117.9C39.2 111.9 39.6 110.434 37.6 112.434C34.9334 115.1 24.1334 135.367 19.6 145.9C14.1334 158.7 11.8667 171.9 11.8667 190.434C11.8667 200.434 12.2667 210.301 12.6667 212.434C23.4667 259.767 55.6 299.101 102 322.034C118.933 330.434 129.067 334.301 142 337.234C182 346.301 227.467 342.967 265.733 328.301C311.333 310.567 344.533 286.567 370 252.434C394.667 219.234 404 193.5 404 157.367C404 118.967 391.467 89.3672 363.067 60.3005C336.4 33.1005 300.667 15.9005 259.6 10.4338C246.267 8.7005 222.4 8.96717 208.667 11.1005Z" fill="#065F46"/>
<path d="M419.2 64.4336C420.533 66.7003 423.333 70.567 425.333 73.1003C431.333 80.7003 442 102.167 446.4 115.234C448.667 121.9 451.2 132.3 451.867 138.567C458.533 191.1 442.667 242.834 404.8 293.1C398.133 301.9 370 330.434 360.533 337.9C332 360.434 290.8 380.567 253.333 390.3C232.8 395.634 222.133 396.967 196 397.9C141.2 399.9 94.5334 385.634 54.6667 354.7C44 346.434 26.2667 327.234 19.0667 316.3C15.2 310.567 10.8 303.9 9.20003 301.767C6.6667 298.034 6.53337 298.034 7.33337 301.1C11.8667 317.367 29.4667 343.9 46.6667 360.167C72.6667 384.834 113.867 406.034 151.333 413.767C157.2 414.967 164.533 416.434 167.467 417.1C170.533 417.767 181.6 418.7 192.133 419.234C256.8 422.034 321.6 400.7 378.533 357.9C409.733 334.434 439.733 298.167 454.133 266.7C467.467 237.634 472.8 215.234 474.533 180.7L475.467 161.767L476.533 173.767C477.733 186.567 476.667 213.9 474.667 222.967C467.067 256.3 462.667 268.567 450.533 291.5C446.133 299.9 438.4 312.434 433.333 319.367C423.067 333.767 398.8 359.1 384.133 370.7C343.467 403.1 290.933 426.034 244 431.9C224.133 434.434 181.867 434.034 166 431.367C116.4 422.7 82 405.634 48 372.7C35.2 360.3 30.8 356.434 32.6667 359.767C37.4667 367.9 57.8667 393.234 67.6 403.1C88.9334 424.967 106.667 437.767 132.667 450.434C172.4 469.5 200.8 475.767 248 475.634C295.333 475.634 319.2 470.3 361.2 450.834C383.733 440.3 402 427.234 422.133 407.234C457.467 371.9 478.4 328.3 487.6 271.1C490.8 250.967 490.8 206.834 487.6 189.5C479.067 144.034 458.667 103.1 428.667 71.6336C418.933 61.367 415.6 58.8336 419.2 64.4336Z" fill="#065F46"/>
</svg>
